G04 DipTrace 2.3.1.0*
%INwopr.gtl*%
%MOIN*%
%ADD13C,0.013*%
%ADD14C,0.025*%
%ADD22R,0.0512X0.0591*%
%ADD23R,0.0591X0.0512*%
%ADD40C,0.04*%
%FSLAX44Y44*%
G04*
G70*
G90*
G75*
G01*
%LNTop*%
%LPD*%
X18187Y16438D2*
D13*
X18185D1*
X18187Y17438D2*
D3*
X16623Y16436D2*
Y16438D1*
X16625Y17438D2*
D3*
X19690Y17377D2*
Y17437D1*
X19688Y17439D1*
X19627Y16502D2*
Y16500D1*
X19688Y16439D1*
X26627Y21314D2*
X26688Y21252D1*
X29128Y20940D2*
D3*
Y20252D2*
D3*
Y19502D2*
D3*
X31128Y21815D2*
D3*
X32128Y21877D2*
Y21813D1*
X12062Y16438D2*
D3*
X12061Y17436D2*
Y17438D1*
X10498Y16436D2*
Y16438D1*
Y17436D2*
Y17438D1*
X8250Y16437D2*
Y16438D1*
Y17438D2*
D3*
X6687Y16438D2*
X6689D1*
X6687Y17438D2*
D3*
X15125Y16375D2*
Y16436D1*
X15123Y16438D1*
X15125Y17438D2*
D3*
X13562Y16375D2*
Y16436D1*
X13561Y16438D1*
Y17436D2*
Y17438D1*
X33379Y7876D2*
Y10814D1*
X34004Y11439D1*
Y12501D1*
X33003D1*
X32878Y12626D1*
Y12623D1*
X23002Y20690D2*
Y15064D1*
X30378D1*
X30441Y15127D1*
X30066Y10314D2*
Y12064D1*
X30566Y12564D1*
X31878D1*
X32191Y12251D1*
X32253D1*
X32316Y12189D1*
X33504D1*
X33629Y12064D1*
Y11564D1*
X32816Y10751D1*
X31753D1*
X31316Y10314D1*
Y6876D1*
X22387Y8165D2*
Y5291D1*
X21662Y4567D1*
X21442Y4346D1*
Y3244D1*
X21521D1*
X24867Y9346D2*
X23686Y8165D1*
X22387D1*
X30773Y6315D2*
X30084D1*
X27899D1*
X26257Y7956D1*
X24867Y9346D1*
X32151Y5291D2*
X31796D1*
X30773Y6315D1*
X33379Y6938D2*
X31732Y5291D1*
X31796D1*
X32151Y8166D2*
X33379Y6938D1*
X26257Y6197D2*
Y7956D1*
X9066Y4813D2*
X10925D1*
X21416D1*
X21662Y4567D1*
X30375Y9750D2*
Y6606D1*
X30084Y6315D1*
X30875Y12063D2*
Y11626D1*
Y10250D1*
X30375Y9750D1*
X35562Y6669D2*
X35456D1*
X34688Y7437D1*
X32740D1*
X33379Y6938D1*
X25044Y3169D2*
X25125Y3250D1*
X24428D1*
X22387Y5291D1*
X21540Y3205D2*
Y3560D1*
X21442Y3244D1*
X21540Y1039D2*
Y3205D1*
X32878Y11626D2*
X30875D1*
X31128Y21065D2*
X32128D1*
X31128D2*
Y18814D1*
X28440D1*
X28378Y18877D1*
Y19502D1*
Y20252D1*
Y20940D1*
Y20252D2*
X26128D1*
X25940Y20440D1*
Y21252D1*
X18939Y17439D2*
Y20627D1*
X19565Y21252D1*
X25253D1*
X25940D1*
X18939Y17439D2*
Y16439D1*
X17437Y17438D2*
Y16437D1*
X15875Y17438D2*
Y16438D1*
X14375Y17438D2*
Y16438D1*
X12812Y17438D2*
Y16438D1*
X18939Y16439D2*
Y15627D1*
X19002Y15564D1*
X17437D1*
X15875D1*
X14375D1*
X12751D1*
Y16376D1*
X12812Y16438D1*
X14375D2*
Y15564D1*
X15875Y16438D2*
Y15564D1*
X17437Y16437D2*
Y15564D1*
X7437Y17438D2*
Y16438D1*
X8998Y17438D2*
Y16438D1*
X9750D2*
Y17438D1*
X8998D1*
Y16438D2*
X9750D1*
X11312D2*
Y17438D1*
X12751Y15564D2*
X11312D1*
Y15601D1*
X10925D1*
X9750D1*
X8998D1*
X7527D1*
X7437Y15690D1*
Y16438D1*
X8998D2*
Y15601D1*
X9750Y16438D2*
Y15601D1*
X11312Y16438D2*
Y15601D1*
X10925D2*
Y4813D1*
X25253Y19752D2*
Y21252D1*
D40*
X18187Y16438D3*
Y17438D3*
X16623Y16436D3*
X16625Y17438D3*
X19690Y17377D3*
X19627Y16502D3*
X26627Y21314D3*
X29128Y20940D3*
Y20252D3*
Y19502D3*
X31128Y21815D3*
X32128Y21877D3*
X12062Y16438D3*
X12061Y17436D3*
X10498Y16436D3*
Y17436D3*
X8250Y16437D3*
Y17438D3*
X6687Y16438D3*
Y17438D3*
X15125Y16375D3*
Y17438D3*
X13562Y16375D3*
X13561Y17436D3*
X33379Y7876D3*
X32878Y12626D3*
D3*
X23002Y20690D3*
X30441Y15127D3*
X30066Y10314D3*
X31316Y6876D3*
X22387Y8165D3*
X24867Y9346D3*
X22387Y8165D3*
X30773Y6315D3*
X24867Y9346D3*
X32151Y5291D3*
X30773Y6315D3*
X33379Y6938D3*
X32151Y8166D3*
X33379Y6938D3*
X26257Y6197D3*
X9066Y4813D3*
X30375Y9750D3*
X30875Y12063D3*
X30375Y9750D3*
X35562Y6669D3*
X25044Y3169D3*
X21540Y3205D3*
Y1039D3*
Y3205D3*
X32878Y11626D3*
X25253Y19752D3*
X24515Y23626D2*
D14*
X33610D1*
X24398Y23378D2*
X33727D1*
X24398Y23129D2*
X33727D1*
X24398Y22880D2*
X33727D1*
X24398Y22632D2*
X33727D1*
X24398Y22383D2*
X33727D1*
X24398Y22134D2*
X30543D1*
X32714D2*
X33727D1*
X24398Y21885D2*
X30543D1*
X32714D2*
X33727D1*
X24328Y21637D2*
X26141D1*
X27234D2*
X30543D1*
X32714D2*
X33727D1*
X5171Y21388D2*
X26141D1*
X27234D2*
X28579D1*
X29671D2*
X30543D1*
X32714D2*
X35961D1*
X5086Y21139D2*
X22860D1*
X23146D2*
X26141D1*
X27234D2*
X28579D1*
X29671D2*
X36036D1*
X5027Y20891D2*
X22559D1*
X23445D2*
X26141D1*
X27234D2*
X28579D1*
X29671D2*
X35813D1*
X3468Y20642D2*
X22516D1*
X23488D2*
X28579D1*
X29671D2*
X36516D1*
X3398Y20393D2*
X22618D1*
X23386D2*
X28579D1*
X29671D2*
X36590D1*
X3398Y20145D2*
X22649D1*
X23359D2*
X28579D1*
X29671D2*
X36602D1*
X3398Y19896D2*
X22649D1*
X23359D2*
X28579D1*
X29671D2*
X36602D1*
X3398Y19647D2*
X22649D1*
X23359D2*
X28579D1*
X29671D2*
X36602D1*
X3398Y19399D2*
X22649D1*
X23359D2*
X28579D1*
X29671D2*
X36602D1*
X3398Y19150D2*
X22649D1*
X23359D2*
X28579D1*
X29671D2*
X36602D1*
X3398Y18901D2*
X22649D1*
X23359D2*
X36602D1*
X3398Y18653D2*
X22649D1*
X23359D2*
X36602D1*
X3398Y18404D2*
X22649D1*
X23359D2*
X36602D1*
X5211Y18155D2*
X22649D1*
X23359D2*
X36602D1*
X5211Y17906D2*
X6145D1*
X7234D2*
X7704D1*
X8796D2*
X9954D1*
X11043D2*
X11516D1*
X12605D2*
X13016D1*
X14105D2*
X14579D1*
X15668D2*
X16079D1*
X17168D2*
X17641D1*
X18730D2*
X19141D1*
X20234D2*
X22649D1*
X23359D2*
X36602D1*
X5211Y17658D2*
X6145D1*
X7234D2*
X7704D1*
X8796D2*
X9954D1*
X11043D2*
X11516D1*
X12605D2*
X13016D1*
X14105D2*
X14579D1*
X15668D2*
X16079D1*
X17168D2*
X17641D1*
X18730D2*
X19141D1*
X20234D2*
X22649D1*
X23359D2*
X36602D1*
X5211Y17409D2*
X6145D1*
X7234D2*
X7704D1*
X8796D2*
X9954D1*
X11043D2*
X11516D1*
X12605D2*
X13016D1*
X14105D2*
X14579D1*
X15668D2*
X16079D1*
X17168D2*
X17641D1*
X18730D2*
X19141D1*
X20234D2*
X22649D1*
X23359D2*
X36602D1*
X5211Y17160D2*
X6145D1*
X7234D2*
X7704D1*
X8796D2*
X9954D1*
X11043D2*
X11516D1*
X12605D2*
X13016D1*
X14105D2*
X14579D1*
X15668D2*
X16079D1*
X17168D2*
X17641D1*
X18730D2*
X19141D1*
X20234D2*
X22649D1*
X23359D2*
X36602D1*
X5211Y16912D2*
X6145D1*
X7234D2*
X7704D1*
X8796D2*
X9954D1*
X11043D2*
X11516D1*
X12605D2*
X13016D1*
X14105D2*
X14579D1*
X15668D2*
X16079D1*
X17168D2*
X17641D1*
X18730D2*
X19141D1*
X20234D2*
X22649D1*
X23359D2*
X36602D1*
X5211Y16663D2*
X6145D1*
X7234D2*
X7704D1*
X8796D2*
X9954D1*
X11043D2*
X11516D1*
X12605D2*
X13016D1*
X14105D2*
X14579D1*
X15668D2*
X16079D1*
X17168D2*
X17641D1*
X18730D2*
X19141D1*
X20234D2*
X22649D1*
X23359D2*
X36602D1*
X5211Y16414D2*
X6145D1*
X7234D2*
X7704D1*
X8796D2*
X9954D1*
X11043D2*
X11516D1*
X12605D2*
X13016D1*
X14105D2*
X14579D1*
X15668D2*
X16079D1*
X17168D2*
X17641D1*
X18730D2*
X19141D1*
X20234D2*
X22649D1*
X23359D2*
X36602D1*
X5211Y16166D2*
X6145D1*
X7234D2*
X7704D1*
X8796D2*
X9954D1*
X11043D2*
X11516D1*
X12605D2*
X13016D1*
X14105D2*
X14579D1*
X15668D2*
X16079D1*
X17168D2*
X17641D1*
X18730D2*
X19141D1*
X20234D2*
X22649D1*
X23359D2*
X36602D1*
X5211Y15917D2*
X6145D1*
X7234D2*
X7704D1*
X8796D2*
X9954D1*
X11043D2*
X11516D1*
X12605D2*
X13016D1*
X14105D2*
X14579D1*
X15668D2*
X16079D1*
X17168D2*
X17641D1*
X18730D2*
X19141D1*
X20234D2*
X22649D1*
X23359D2*
X36602D1*
X3398Y15668D2*
X22649D1*
X23359D2*
X36602D1*
X3398Y15420D2*
X22649D1*
X23359D2*
X30055D1*
X30828D2*
X36602D1*
X3398Y15171D2*
X22649D1*
X30929D2*
X36602D1*
X3398Y14922D2*
X22680D1*
X30882D2*
X36602D1*
X3375Y14674D2*
X30313D1*
X30570D2*
X36602D1*
X2150Y14425D2*
X37102D1*
X2150Y14176D2*
X37102D1*
X2150Y13927D2*
X37102D1*
X2150Y13679D2*
X37102D1*
X2150Y13430D2*
X37102D1*
X2150Y13181D2*
X37102D1*
X2150Y12933D2*
X32504D1*
X33254D2*
X37102D1*
X2150Y12684D2*
X30196D1*
X32250D2*
X32391D1*
X34304D2*
X37102D1*
X2150Y12435D2*
X29946D1*
X34359D2*
X37102D1*
X2150Y12187D2*
X29735D1*
X30679D2*
X31766D1*
X34359D2*
X37102D1*
X2150Y11938D2*
X29711D1*
X30429D2*
X32063D1*
X34359D2*
X37102D1*
X2150Y11689D2*
X29711D1*
X30421D2*
X33262D1*
X34359D2*
X37102D1*
X2150Y11441D2*
X29711D1*
X30421D2*
X33016D1*
X34359D2*
X37102D1*
X2150Y11192D2*
X29711D1*
X30421D2*
X32766D1*
X34250D2*
X37102D1*
X2150Y10943D2*
X29711D1*
X30421D2*
X31454D1*
X34000D2*
X37102D1*
X2150Y10695D2*
X29711D1*
X30421D2*
X31204D1*
X33750D2*
X37102D1*
X2150Y10446D2*
X29594D1*
X30535D2*
X30989D1*
X33734D2*
X37102D1*
X2150Y10197D2*
X29590D1*
X30543D2*
X30961D1*
X31691D2*
X33024D1*
X33734D2*
X37102D1*
X2150Y9948D2*
X29754D1*
X30379D2*
X30961D1*
X31671D2*
X33024D1*
X33734D2*
X37102D1*
X2150Y9700D2*
X30961D1*
X31671D2*
X33024D1*
X33734D2*
X37102D1*
X2150Y9451D2*
X30961D1*
X31671D2*
X33024D1*
X33734D2*
X37102D1*
X2150Y9202D2*
X30961D1*
X31671D2*
X33024D1*
X33734D2*
X37102D1*
X2150Y8954D2*
X30961D1*
X31671D2*
X33024D1*
X33734D2*
X37102D1*
X2150Y8705D2*
X30961D1*
X31671D2*
X33024D1*
X33734D2*
X37102D1*
X2150Y8456D2*
X30961D1*
X31671D2*
X33024D1*
X33734D2*
X37102D1*
X2150Y8208D2*
X30961D1*
X31671D2*
X33024D1*
X33734D2*
X37102D1*
X2150Y7959D2*
X30961D1*
X31671D2*
X32895D1*
X33859D2*
X37102D1*
X2150Y7710D2*
X30961D1*
X31671D2*
X32918D1*
X33839D2*
X37102D1*
X2150Y7462D2*
X30961D1*
X31671D2*
X33141D1*
X33613D2*
X37102D1*
X2150Y7213D2*
X30961D1*
X31671D2*
X37102D1*
X2150Y6964D2*
X30836D1*
X31796D2*
X37102D1*
X2150Y6716D2*
X30856D1*
X31777D2*
X37102D1*
X2150Y6467D2*
X31071D1*
X31562D2*
X37102D1*
X2150Y6218D2*
X37102D1*
X2150Y5969D2*
X37102D1*
X2150Y5721D2*
X37102D1*
X2150Y5472D2*
X37102D1*
X2150Y5223D2*
X37102D1*
X2150Y4975D2*
X37102D1*
X2150Y4726D2*
X37102D1*
X2150Y4477D2*
X37102D1*
X2150Y4229D2*
X37102D1*
X2150Y3980D2*
X37102D1*
X2150Y3731D2*
X37102D1*
X2150Y3483D2*
X37102D1*
X2150Y3234D2*
X37102D1*
X2150Y2985D2*
X37102D1*
X2150Y2737D2*
X37102D1*
X2898Y2488D2*
X36536D1*
X2961Y2239D2*
X36485D1*
X23824Y1990D2*
X34289D1*
X24031Y1742D2*
X34039D1*
X24117Y1493D2*
X34008D1*
X24332Y1244D2*
X33746D1*
X28730Y21500D2*
X29647D1*
X29643Y20380D1*
X29647Y20437D1*
X29643Y19692D1*
X29647Y19437D1*
Y18942D1*
X28605D1*
X28609Y20062D1*
X28605Y20317D1*
X28609Y20812D1*
X28605Y20755D1*
Y21500D1*
X28730D1*
X30693Y22334D2*
X31688Y22330D1*
X31943Y22334D1*
X32187Y22338D1*
X32318Y22334D1*
X32689D1*
Y21292D1*
X31568Y21296D1*
X31313Y21292D1*
X30568D1*
Y22334D1*
X30693D1*
X12580Y16998D2*
X12581Y15877D1*
X11540D1*
X11544Y16998D1*
X11540Y17252D1*
Y17998D1*
X12581D1*
X12577Y16877D1*
X11018Y16998D2*
X11019Y15877D1*
X9977D1*
X9981Y16998D1*
X9977Y17252D1*
Y17998D1*
X11019D1*
X11015Y16877D1*
X8770Y16998D2*
X8771Y15877D1*
X7729D1*
X7733Y16998D1*
X7729Y17252D1*
Y17998D1*
X8771D1*
X8767Y16877D1*
X7209Y16998D2*
X7210Y15877D1*
X6169D1*
X6173Y16998D1*
X6169Y17252D1*
Y17998D1*
X7210D1*
X7206Y16877D1*
X18706D2*
Y15877D1*
X17665D1*
X17668Y16998D1*
X17665Y17252D1*
Y17998D1*
X18706D1*
X18702Y16877D1*
X17143Y16998D2*
X17144Y15877D1*
X16102D1*
X16106Y16998D1*
X16102Y17252D1*
Y17998D1*
X17144D1*
X17140Y16877D1*
X15643Y16998D2*
X15644Y15877D1*
X14602D1*
X14606Y16998D1*
X14602Y17252D1*
Y17998D1*
X15644D1*
X15640Y16877D1*
X14080Y16998D2*
X14081Y15877D1*
X13040D1*
X13044Y16998D1*
X13040Y17252D1*
Y17998D1*
X14081D1*
X14077Y16877D1*
X19292Y18000D2*
X20208D1*
X20204Y16879D1*
X20208Y16624D1*
Y15879D1*
X19167D1*
Y16999D1*
Y18000D1*
X19292D1*
X26292Y21812D2*
X27209D1*
Y20692D1*
X26167D1*
X26164Y21353D1*
X26167Y21567D1*
Y21812D1*
X26292D1*
X33049Y8200D2*
Y10520D1*
X32971Y10460D1*
X32852Y10423D1*
X31890Y10421D1*
X31647Y10178D1*
X31646Y7200D1*
X31690Y7152D1*
X31750Y7043D1*
X31781Y6876D1*
X31764Y6752D1*
X31715Y6638D1*
X31637Y6540D1*
X31537Y6467D1*
X31420Y6423D1*
X31296Y6411D1*
X31173Y6433D1*
X31061Y6487D1*
X30967Y6569D1*
X30898Y6672D1*
X30859Y6791D1*
X30853Y6915D1*
X30880Y7037D1*
X30938Y7147D1*
X30984Y7195D1*
X30986Y8751D1*
Y10314D1*
X31009Y10436D1*
X31083Y10547D1*
X31520Y10984D1*
X31623Y11054D1*
X31753Y11081D1*
X32679D1*
X33298Y11700D1*
X33299Y11857D1*
X32316Y11859D1*
X32191Y11884D1*
X32108Y11932D1*
X32031Y11963D1*
X31958Y12018D1*
X31739Y12236D1*
X30703Y12234D1*
X30393Y11925D1*
X30396Y10638D1*
X30439Y10590D1*
X30499Y10481D1*
X30531Y10314D1*
X30514Y10190D1*
X30465Y10075D1*
X30387Y9978D1*
X30287Y9905D1*
X30170Y9861D1*
X30046Y9849D1*
X29923Y9871D1*
X29811Y9925D1*
X29717Y10006D1*
X29648Y10110D1*
X29609Y10228D1*
X29602Y10353D1*
X29630Y10475D1*
X29688Y10585D1*
X29733Y10633D1*
X29736Y12064D1*
X29759Y12186D1*
X29832Y12297D1*
X30332Y12797D1*
X30435Y12867D1*
X30566Y12894D1*
X31878D1*
X32000Y12870D1*
X32112Y12797D1*
X32341Y12568D1*
X32414Y12539D1*
X32421Y12541D1*
X32415Y12666D1*
X32442Y12787D1*
X32501Y12897D1*
X32586Y12988D1*
X32693Y13053D1*
X32813Y13086D1*
X32937Y13087D1*
X33058Y13055D1*
X33165Y12992D1*
X33252Y12903D1*
X33292Y12831D1*
X34004D1*
X34126Y12808D1*
X34230Y12741D1*
X34303Y12640D1*
X34333Y12501D1*
Y11439D1*
X34310Y11317D1*
X34237Y11205D1*
X33709Y10678D1*
X33708Y8200D1*
X33752Y8152D1*
X33812Y8043D1*
X33843Y7876D1*
X33827Y7752D1*
X33778Y7638D1*
X33700Y7540D1*
X33600Y7467D1*
X33483Y7423D1*
X33359Y7411D1*
X33236Y7433D1*
X33124Y7487D1*
X33030Y7569D1*
X32960Y7672D1*
X32921Y7791D1*
X32915Y7915D1*
X32942Y8037D1*
X33001Y8147D1*
X33046Y8195D1*
X32425Y12530D2*
X32415Y12666D1*
X32442Y12787D1*
X32501Y12897D1*
X32586Y12988D1*
X32693Y13053D1*
X32813Y13086D1*
X32937Y13087D1*
X33058Y13055D1*
X33165Y12992D1*
X33252Y12903D1*
X33292Y12831D1*
X23332Y20365D2*
Y15397D1*
X24252Y15394D1*
X30063Y15398D1*
X30149Y15488D1*
X30255Y15553D1*
X30375Y15587D1*
X30500Y15588D1*
X30620Y15556D1*
X30728Y15492D1*
X30814Y15403D1*
X30874Y15294D1*
X30906Y15127D1*
X30889Y15003D1*
X30840Y14888D1*
X30762Y14791D1*
X30662Y14718D1*
X30545Y14674D1*
X30421Y14662D1*
X30298Y14684D1*
X30196Y14733D1*
X23002Y14734D1*
X22880Y14758D1*
X22776Y14824D1*
X22703Y14925D1*
X22673Y15064D1*
Y20365D1*
X22584Y20486D1*
X22545Y20605D1*
X22539Y20729D1*
X22566Y20851D1*
X22625Y20961D1*
X22710Y21051D1*
X22817Y21116D1*
X22937Y21150D1*
X23061Y21151D1*
X23182Y21119D1*
X23289Y21056D1*
X23376Y20966D1*
X23436Y20857D1*
X23467Y20690D1*
X23451Y20566D1*
X23402Y20452D1*
X23331Y20363D1*
X33656Y1187D2*
X33864Y1291D1*
X34018Y1444D1*
X34062Y1583D1*
X34063Y1687D1*
X34088Y1763D1*
X34290Y1964D1*
X34375Y2000D1*
X36223D1*
X36414Y2097D1*
X36512Y2244D1*
X36562Y2395D1*
Y2562D1*
X36569Y2603D1*
X36589Y2640D1*
X36620Y2668D1*
X36687Y2687D1*
X37125D1*
Y14625D1*
X36750D1*
X36645Y14686D1*
X36625Y14750D1*
Y20363D1*
X36569Y20583D1*
X36522Y20677D1*
X36421Y20777D1*
X36272Y20877D1*
X36125Y20875D1*
X36020Y20932D1*
X36014Y21057D1*
X36061Y21113D1*
X36062Y21277D1*
X35971Y21412D1*
X35819Y21512D1*
X35667Y21562D1*
X33875D1*
X33770Y21624D1*
X33750Y21687D1*
Y23410D1*
X33647Y23614D1*
X33546Y23715D1*
X33381Y23825D1*
X33230Y23875D1*
X24895D1*
X24742Y23824D1*
X24577Y23714D1*
X24420Y23556D1*
X24375Y23417D1*
Y21752D1*
X24364Y21698D1*
X24268Y21626D1*
X11625Y21625D1*
X5527D1*
X5257Y21518D1*
X5165Y21426D1*
X5062Y21220D1*
X5063Y21004D1*
X5051Y20948D1*
X4955Y20876D1*
X3779Y20875D1*
X3573Y20772D1*
X3420Y20618D1*
X3375Y20480D1*
Y18250D1*
X5063D1*
X5168Y18189D1*
X5188Y18125D1*
Y15814D1*
X5176Y15760D1*
X5080Y15689D1*
X3375Y15687D1*
Y14750D1*
X3314Y14645D1*
X3250Y14625D1*
X2125D1*
Y2687D1*
X2750D1*
X2855Y2626D1*
X2875Y2562D1*
Y2303D1*
X3020Y2157D1*
X3230Y2000D1*
X23753Y1998D1*
X23838Y1963D1*
X24049Y1682D1*
X24062Y1625D1*
Y1538D1*
X24161Y1390D1*
X24319Y1232D1*
X24458Y1188D1*
X33660Y1187D1*
D22*
X28378Y20940D3*
X29126D3*
X28378Y20252D3*
X29126D3*
X28378Y19502D3*
X29126D3*
D23*
X31128Y21065D3*
Y21813D3*
X32128Y21065D3*
Y21813D3*
D22*
X11312Y16438D3*
X12061D3*
X11312Y17438D3*
X12061D3*
X9750Y16438D3*
X10498D3*
X9750Y17438D3*
X10498D3*
X8998Y16438D3*
X8250D3*
X8998Y17438D3*
X8250D3*
X7437Y16438D3*
X6689D3*
X7437Y17438D3*
X6689D3*
X17437Y16437D3*
X18185D3*
X17437Y17438D3*
X18186D3*
X15875Y16438D3*
X16623D3*
X15875Y17438D3*
X16623D3*
X14375Y16438D3*
X15123D3*
X14375Y17438D3*
X15123D3*
X12812Y16438D3*
X13561D3*
X12812Y17438D3*
X13561D3*
X18939Y17439D3*
X19688D3*
X18939Y16439D3*
X19688D3*
X25940Y21252D3*
X26688D3*
M02*
