M48
INCH
T01C0.0191
%
T01
X+018187Y+016438
X+018187Y+017438
X+019690Y+017377
X+019627Y+016502
X+016623Y+016436
X+016625Y+017438
X+015125Y+017438
X+015125Y+016375
X+013562Y+016375
X+013561Y+017436
X+012061Y+017436
X+012062Y+016438
X+010498Y+016436
X+010498Y+017436
X+008250Y+017438
X+008250Y+016437
X+006687Y+016438
X+006687Y+017438
X+009066Y+004813
X+021540Y+003205
X+021540Y+001039
X+025044Y+003169
X+026257Y+006197
X+024867Y+009346
X+022387Y+008165
X+030066Y+010314
X+030375Y+009750
X+030875Y+012063
X+032878Y+011626
X+032878Y+012626
X+030441Y+015127
X+029128Y+019502
X+029128Y+020252
X+029128Y+020940
X+031128Y+021815
X+032128Y+021877
X+026627Y+021314
X+025253Y+019752
X+023002Y+020690
X+032151Y+008166
X+033379Y+007876
X+033379Y+006938
X+032151Y+005291
X+030773Y+006315
X+031316Y+006876
X+035562Y+006669
T00
M30
