G04 DipTrace 2.3.1.0*
%INwopr.gbl*%
%MOIN*%
%ADD12C,0.0014*%
%ADD13C,0.013*%
%ADD16R,0.2008X0.2008*%
%ADD17R,0.2559X0.2559*%
%ADD18R,0.0787X0.0394*%
%ADD19R,0.0394X0.0787*%
%ADD20R,0.0433X0.0394*%
%ADD21R,0.0394X0.0433*%
%ADD22R,0.0512X0.0591*%
%ADD25R,0.0197X0.0906*%
%ADD26R,0.0787X0.0984*%
%ADD27R,0.0787X0.0236*%
%ADD28R,0.0236X0.0787*%
%ADD31R,0.0984X0.0472*%
%ADD32R,0.0709X0.0197*%
%ADD33R,0.0197X0.0709*%
%ADD34R,0.0157X0.0709*%
%ADD35R,0.0591X0.0591*%
%ADD37R,0.0374X0.0846*%
%ADD38R,0.128X0.0846*%
%ADD39R,0.0787X0.2165*%
%ADD40C,0.04*%
%ADD89C,0.0046*%
%FSLAX44Y44*%
G04*
G70*
G90*
G75*
G01*
%LNBottom*%
%LPD*%
X23922Y3244D2*
D13*
Y4071D1*
X23490Y4504D1*
Y4701D1*
X24198Y5409D1*
Y8165D1*
X20655Y7850D2*
Y8470D1*
X20125Y9000D1*
X18312D1*
X17437Y8125D1*
Y5062D1*
X17189Y4814D1*
X15070D1*
X23292Y5882D2*
Y8165D1*
X20655Y5882D2*
X21363D1*
X21954Y6472D1*
Y8874D1*
X22151Y9071D1*
X23017D1*
X23292Y8795D1*
Y8165D1*
Y8441D1*
X24198Y9346D1*
X17587Y15312D2*
Y15399D1*
X18187Y16000D1*
Y16438D1*
X17587Y14812D2*
X17188D1*
X17000Y15000D1*
Y16875D1*
X17563Y17438D1*
X18187D1*
X17587Y14312D2*
X17250D1*
X16375Y15188D1*
Y16188D1*
X16623Y16436D1*
X17587Y13812D2*
X17313D1*
X15875Y15250D1*
Y17000D1*
X16312Y17438D1*
X16625D1*
X20500Y15312D2*
Y17879D1*
X17252Y21127D1*
Y25940D1*
X18979D1*
X19000Y25919D1*
X33274Y27313D2*
Y29191D1*
X16064D1*
Y20377D1*
X18189Y18252D1*
X18814D1*
X19690Y17377D1*
X33274Y26813D2*
X32378D1*
Y28878D1*
X16564D1*
Y21190D1*
X20190Y17564D1*
Y16502D1*
X19627D1*
X33274Y26313D2*
X31626D1*
X26627Y21314D1*
X33274Y25813D2*
X32938D1*
X29628Y22502D1*
Y20940D1*
X29128D1*
X33274Y25313D2*
X33001D1*
X30003Y22315D1*
Y20252D1*
X29128D1*
X33274Y24813D2*
X32876D1*
X30378Y22315D1*
Y19502D1*
X29128D1*
X33274Y24313D2*
X32751D1*
X31128Y22690D1*
Y21815D1*
X33274Y23813D2*
X33063D1*
X32128Y22877D1*
Y21877D1*
X10437Y14663D2*
Y15438D1*
X11437Y16438D1*
X12062D1*
X9937Y14663D2*
Y15313D1*
X12061Y17436D1*
X9437Y14663D2*
Y15375D1*
X10498Y16436D1*
X8937Y14663D2*
Y15875D1*
X10498Y17436D1*
X8437Y14663D2*
Y16250D1*
X8250Y16437D1*
X7937Y14663D2*
Y16188D1*
X7750Y16375D1*
Y17188D1*
X7937Y17375D1*
X8187D1*
X8250Y17438D1*
X7437Y14663D2*
Y15188D1*
X6687Y15938D1*
Y16438D1*
X6937Y14663D2*
Y15187D1*
X6187Y15937D1*
Y17250D1*
X6375Y17438D1*
X6687D1*
X17587Y13312D2*
X17063D1*
X15125Y15250D1*
Y16375D1*
X17587Y12812D2*
X16875D1*
X14375Y15313D1*
Y17063D1*
X14750Y17438D1*
X15125D1*
X17587Y12312D2*
X16750D1*
X13562Y15500D1*
Y16375D1*
X17587Y11812D2*
X16563D1*
X12812Y15563D1*
Y16688D1*
X13561Y17436D1*
X32781Y8874D2*
Y9724D1*
X32753Y9751D1*
X33191Y10189D1*
X33754D1*
Y15752D1*
X29941D1*
X29816Y15627D1*
Y14126D1*
X29878Y14064D1*
X29753D1*
X29566Y13876D1*
Y11939D1*
X29439Y11812D1*
X20500D1*
X33095Y8874D2*
Y9718D1*
X33316Y9939D1*
X34066D1*
Y15939D1*
X33941Y16064D1*
X29878D1*
X29503Y15689D1*
Y14189D1*
X29316Y14001D1*
Y12439D1*
X29191Y12314D1*
X20501D1*
X20500Y12312D1*
X33410Y8874D2*
Y9594D1*
X33379Y9626D1*
X34254D1*
X34379Y9751D1*
Y16127D1*
X34066Y16439D1*
X29816D1*
X29128Y15752D1*
Y14314D1*
X28941Y14126D1*
Y12876D1*
X29003Y12814D1*
X20501D1*
X20500Y12812D1*
X33725Y8874D2*
Y9279D1*
X33691Y9313D1*
X34316D1*
X34691Y9689D1*
Y16314D1*
X34254Y16752D1*
X29691D1*
X28753Y15814D1*
Y14314D1*
X28628Y14189D1*
Y13376D1*
X28691Y13314D1*
X20501D1*
X20500Y13312D1*
X34395Y8205D2*
Y9017D1*
X34941Y9564D1*
Y16689D1*
X34504Y17127D1*
X22940D1*
X22127Y16314D1*
Y13876D1*
X22190Y13814D1*
X20501D1*
X20500Y13812D1*
X34395Y7890D2*
X34955D1*
X35254Y8188D1*
Y17127D1*
X34879Y17502D1*
X22627D1*
X21627Y16502D1*
Y14439D1*
X21502Y14314D1*
X20502D1*
X20500Y14312D1*
X34395Y7575D2*
X35328D1*
X35504Y7751D1*
Y17439D1*
X35191Y17752D1*
X22440D1*
X21252Y16564D1*
Y14877D1*
X21190Y14814D1*
X20502D1*
X20500Y14812D1*
X34395Y7260D2*
X35754D1*
Y17814D1*
X35566D1*
X35379Y18002D1*
X27753D1*
X25003Y20752D1*
Y27065D1*
X24350D1*
X24315Y27100D1*
X34395Y5685D2*
X34944D1*
X35254Y5376D1*
X36004D1*
Y17877D1*
X35629Y18252D1*
X27940D1*
X25440Y20752D1*
Y27690D1*
X24315D1*
X34395Y5370D2*
X34822D1*
X35129Y5063D1*
X36254D1*
Y18127D1*
X35879Y18502D1*
X28065D1*
X25815Y20752D1*
Y28190D1*
X18939D1*
Y27630D1*
X19000Y27690D1*
X34395Y5055D2*
Y3484D1*
X34691Y3188D1*
X36066D1*
X36566Y3688D1*
Y18877D1*
X28190D1*
X26190Y20877D1*
Y28503D1*
X17252D1*
Y26503D1*
X18994D1*
X19000Y26509D1*
X33725Y4386D2*
Y3025D1*
X33875Y2875D1*
X36250D1*
X36875Y3500D1*
Y23125D1*
X36187Y23813D1*
X33410Y4386D2*
Y2777D1*
X33625Y2563D1*
X36500D1*
X37187Y3250D1*
Y24375D1*
X36250D1*
X36187Y24313D1*
X33095Y4386D2*
Y2467D1*
X33375Y2187D1*
X36812D1*
X37500Y2875D1*
Y24875D1*
X36250D1*
X36187Y24813D1*
X32781Y4386D2*
Y2157D1*
X33063Y1875D1*
X37125D1*
X37812Y2562D1*
Y25313D1*
X36187D1*
X32466Y4386D2*
Y1500D1*
X37562D1*
X38125Y2063D1*
Y25813D1*
X36187D1*
X31521Y4386D2*
Y3208D1*
X30125Y1813D1*
Y1187D1*
X30187Y1125D1*
X37812D1*
X38437Y1750D1*
Y26313D1*
X36187D1*
X31206Y4386D2*
Y3268D1*
X29750Y1813D1*
Y812D1*
X29812Y750D1*
X38125D1*
X38750Y1375D1*
Y26813D1*
X36187D1*
X30891Y4386D2*
Y3391D1*
X29500Y2000D1*
Y375D1*
X29563Y438D1*
X38375D1*
X39062Y1125D1*
Y27313D1*
X36187D1*
X30576Y4386D2*
Y3513D1*
X27437Y375D1*
X14625D1*
X11500Y3500D1*
Y8000D1*
X8437Y11063D1*
Y11750D1*
X29906Y5055D2*
X29680D1*
X29375Y4750D1*
Y3000D1*
X28062Y1687D1*
X13813D1*
X12000Y3500D1*
Y8125D1*
X8937Y11187D1*
Y11750D1*
X9437D2*
Y11188D1*
X12500Y8125D1*
Y3500D1*
X14000Y2000D1*
X28000D1*
X29125Y3125D1*
Y5125D1*
X29375Y5375D1*
X29902D1*
X29906Y5370D1*
Y5685D2*
X29248D1*
X28875Y5312D1*
Y3250D1*
X27875Y2250D1*
X14125D1*
X13000Y3375D1*
Y9250D1*
X12812Y9438D1*
X11687D1*
X9937Y11188D1*
Y11750D1*
X29906Y6000D2*
X29187D1*
X28562Y5375D1*
Y3375D1*
X27688Y2500D1*
X14375D1*
X13437Y3437D1*
Y9438D1*
X13125Y9750D1*
X12437D1*
X10437Y11750D1*
X29906Y7575D2*
X29300D1*
X28687Y8188D1*
Y10375D1*
X28750Y10438D1*
X13125D1*
X11125Y12438D1*
X8125D1*
X7937Y12250D1*
Y11750D1*
X29906Y7890D2*
X29485D1*
X29250Y8125D1*
Y10438D1*
X28875Y10813D1*
X13312D1*
X11312Y12813D1*
X7688D1*
X7437Y12562D1*
Y11750D1*
X29906Y8205D2*
X29628D1*
Y10564D1*
X29004Y11188D1*
X13500D1*
X11562Y13125D1*
X7375D1*
X7000Y12750D1*
Y11813D1*
X6937Y11750D1*
X34395Y6315D2*
X33252D1*
X32941Y6626D1*
Y7438D1*
X33379Y7876D1*
X32878Y12626D2*
D3*
Y14626D2*
X32753D1*
X31941Y13814D1*
Y11126D1*
X31503Y10689D1*
Y8891D1*
X31521Y8874D1*
X30887Y10717D2*
Y8878D1*
X30891Y8874D1*
X30887Y10717D2*
Y11074D1*
X31437Y11625D1*
Y13938D1*
X31187Y14188D1*
X31143Y10717D2*
Y8937D1*
X31206Y8874D1*
X31143Y10717D2*
Y10768D1*
X31687Y11313D1*
Y15062D1*
X31188D1*
X32878Y13626D2*
X32753D1*
X32191Y13064D1*
Y10876D1*
X31816Y10501D1*
Y8894D1*
X31836Y8874D1*
X26245Y6866D2*
Y9110D1*
X26519Y9384D1*
X26757Y9622D1*
X28017D1*
X28174Y9465D1*
Y8126D1*
X29040Y7260D1*
X29906D1*
X35562Y5938D2*
X34946D1*
Y6000D1*
X34395D1*
X32466Y8874D2*
Y9776D1*
X33253Y10564D1*
X31836Y4386D2*
Y3023D1*
X30875Y2063D1*
Y1687D1*
X30937Y1625D1*
X20655Y6866D2*
X21116D1*
X21500Y7250D1*
Y9500D1*
X22062Y10062D1*
X25841D1*
X26519Y9384D1*
X31836Y4386D2*
Y4977D1*
X31562Y5250D1*
Y6673D1*
X31316Y6920D1*
X30985Y7250D1*
X29916D1*
X29906Y7260D1*
X32466Y8874D2*
Y8347D1*
X32750Y8063D1*
Y7687D1*
X32110Y7048D1*
X32000Y6938D1*
X31266D1*
X30985Y7250D1*
X34395Y6000D2*
X33158D1*
X32110Y7048D1*
X30375Y10717D2*
Y10879D1*
X29941Y11314D1*
Y13689D1*
X30439Y14188D1*
Y15062D1*
X24315Y21194D2*
X23507D1*
X23002Y20690D1*
X30441Y15127D2*
Y15064D1*
X30375Y10717D2*
Y10623D1*
X30066Y10314D1*
X31316Y6876D2*
Y6920D1*
X21540Y1039D2*
X25044D1*
X21540Y3205D2*
X22623D1*
X22662Y3244D1*
Y4346D1*
X22820Y4504D1*
X22387Y8165D2*
D3*
X24867Y9346D2*
D3*
X29906Y6315D2*
X30773D1*
X32151Y4386D2*
Y5291D1*
X34395Y6630D2*
Y6938D1*
X33379D1*
X32151Y8874D2*
Y8166D1*
X26245Y6197D2*
X26257D1*
X21521Y1059D2*
X21540Y1039D1*
X9066Y4814D2*
Y4813D1*
X32151Y8874D2*
Y9599D1*
X32187Y9562D1*
Y10167D1*
X32584Y10564D1*
X30631Y10717D2*
Y10006D1*
X30375Y9750D1*
Y13000D2*
X30631D1*
X30887D1*
X31143D1*
Y12330D1*
X30875Y12063D1*
X35562Y6607D2*
Y6669D1*
X32151Y4386D2*
Y2776D1*
X31625Y2250D1*
Y1643D1*
X31607Y1625D1*
X25044Y3205D2*
Y3169D1*
X21540Y3205D2*
D3*
X32878Y11626D2*
D3*
X24315Y20604D2*
X24401D1*
X25253Y19752D1*
X27437Y4313D2*
Y5106D1*
X28962Y6630D1*
X29906D1*
X27437Y8053D2*
X28545Y6945D1*
X29906D1*
D40*
X18187Y16438D3*
Y17438D3*
X16623Y16436D3*
X16625Y17438D3*
X19690Y17377D3*
X19627Y16502D3*
X26627Y21314D3*
X29128Y20940D3*
Y20252D3*
Y19502D3*
X31128Y21815D3*
X32128Y21877D3*
X12062Y16438D3*
X12061Y17436D3*
X10498Y16436D3*
Y17436D3*
X8250Y16437D3*
Y17438D3*
X6687Y16438D3*
Y17438D3*
X15125Y16375D3*
Y17438D3*
X13562Y16375D3*
X13561Y17436D3*
X33379Y7876D3*
X32878Y12626D3*
D3*
X23002Y20690D3*
X30441Y15127D3*
X30066Y10314D3*
X31316Y6876D3*
X22387Y8165D3*
X24867Y9346D3*
X22387Y8165D3*
X30773Y6315D3*
X24867Y9346D3*
X32151Y5291D3*
X30773Y6315D3*
X33379Y6938D3*
X32151Y8166D3*
X33379Y6938D3*
X26257Y6197D3*
X9066Y4813D3*
X30375Y9750D3*
X30875Y12063D3*
X30375Y9750D3*
X35562Y6669D3*
X25044Y3169D3*
X21540Y3205D3*
Y1039D3*
Y3205D3*
X32878Y11626D3*
X25253Y19752D3*
D16*
X3063Y4814D3*
D17*
X9066D3*
D16*
X15070D3*
D18*
X24315Y27690D3*
Y27100D3*
Y26509D3*
Y25919D3*
Y25328D3*
Y24738D3*
Y24147D3*
Y23557D3*
Y22966D3*
Y22375D3*
Y21785D3*
Y21194D3*
Y20604D3*
D19*
X23725Y19718D3*
X23134D3*
X22543D3*
X21953D3*
X21362D3*
X20772D3*
X20181D3*
X19591D3*
D18*
X19000Y20604D3*
Y21194D3*
Y21785D3*
Y22375D3*
Y22966D3*
Y23557D3*
Y24147D3*
Y24738D3*
Y25328D3*
Y25919D3*
Y26509D3*
Y27100D3*
Y27690D3*
D20*
X33253Y10564D3*
X32584D3*
D21*
X35562Y5938D3*
Y6607D3*
D20*
X30937Y1625D3*
X31607D3*
D21*
X26245Y6866D3*
Y6197D3*
D20*
X24198Y9346D3*
X24867D3*
X23490Y4504D3*
X22820D3*
D25*
X23922Y3244D3*
X23607D3*
X23292D3*
X22977D3*
X22662D3*
D26*
X25044Y3205D3*
X21540D3*
X25044Y1039D3*
X21540D3*
D22*
X31187Y14188D3*
X30439D3*
X31188Y15062D3*
X30439D3*
D27*
X20500Y15312D3*
Y14812D3*
Y14312D3*
Y13812D3*
Y13312D3*
Y12812D3*
Y12312D3*
Y11812D3*
X17587D3*
Y12312D3*
Y12812D3*
Y13312D3*
Y13812D3*
Y14312D3*
Y14812D3*
Y15312D3*
X36187Y27313D3*
Y26813D3*
Y26313D3*
Y25813D3*
Y25313D3*
Y24813D3*
Y24313D3*
Y23813D3*
X33274D3*
Y24313D3*
Y24813D3*
Y25313D3*
Y25813D3*
Y26313D3*
Y26813D3*
Y27313D3*
D28*
X10437Y11750D3*
X9937D3*
X9437D3*
X8937D3*
X8437D3*
X7937D3*
X7437D3*
X6937D3*
Y14663D3*
X7437D3*
X7937D3*
X8437D3*
X8937D3*
X9437D3*
X9937D3*
X10437D3*
D31*
X20655Y7850D3*
Y6866D3*
Y5882D3*
X18489D3*
Y6866D3*
Y7850D3*
D32*
X34395Y8205D3*
Y7890D3*
Y7575D3*
Y7260D3*
Y6945D3*
Y6630D3*
Y6315D3*
Y6000D3*
Y5685D3*
Y5370D3*
Y5055D3*
D33*
X33725Y4386D3*
X33410D3*
X33095D3*
X32781D3*
X32466D3*
X32151D3*
X31836D3*
X31521D3*
X31206D3*
X30891D3*
X30576D3*
D32*
X29906Y5055D3*
Y5370D3*
Y5685D3*
Y6000D3*
Y6315D3*
Y6630D3*
Y6945D3*
Y7260D3*
Y7575D3*
Y7890D3*
Y8205D3*
D33*
X30576Y8874D3*
X30891D3*
X31206D3*
X31521D3*
X31836D3*
X32151D3*
X32466D3*
X32781D3*
X33095D3*
X33410D3*
X33725D3*
D34*
X30375Y13000D3*
X30631D3*
X30887D3*
X31143D3*
Y10717D3*
X30887D3*
X30631D3*
X30375D3*
D35*
X32878Y11626D3*
Y12626D3*
Y13626D3*
Y14626D3*
D37*
X22387Y8165D3*
X23292D3*
X24198D3*
D38*
X23292Y5882D3*
D39*
X27437Y4313D3*
Y8053D3*
X3575Y26864D2*
D12*
X3617D1*
X3575Y26849D2*
X3617D1*
X3603Y26835D2*
X3702D1*
X3603Y26821D2*
X3702D1*
X3603Y26807D2*
X3759D1*
X3603Y26793D2*
X3759D1*
X3603Y26779D2*
X3816D1*
X3603Y26764D2*
X3816D1*
X3164Y26750D2*
X3178D1*
X3603D2*
X3844D1*
X3153Y26736D2*
X3178D1*
X3604D2*
X3844D1*
X3141Y26722D2*
X3178D1*
X3607D2*
X3901D1*
X3129Y26708D2*
X3178D1*
X3614D2*
X3901D1*
X3119Y26694D2*
X3178D1*
X3622D2*
X3929D1*
X3113Y26679D2*
X3178D1*
X3628D2*
X3940D1*
X3109Y26665D2*
X3206D1*
X3634D2*
X3953D1*
X3108Y26651D2*
X3207D1*
X3642D2*
X3969D1*
X3079Y26637D2*
X3208D1*
X3650D2*
X3986D1*
X3074Y26623D2*
X3210D1*
X3655D2*
X4001D1*
X3067Y26609D2*
X3218D1*
X3658D2*
X4008D1*
X3060Y26594D2*
X3225D1*
X3659D2*
X4012D1*
X3055Y26580D2*
X3230D1*
X3660D2*
X4013D1*
X3053Y26566D2*
X3233D1*
X3688D2*
X4043D1*
X3051Y26552D2*
X3235D1*
X3688D2*
X4052D1*
X3051Y26538D2*
X3239D1*
X3688D2*
X4061D1*
X3051Y26523D2*
X3246D1*
X3688D2*
X4066D1*
X3022Y26509D2*
X3254D1*
X3688D2*
X4069D1*
X3022Y26495D2*
X3258D1*
X3688D2*
X4071D1*
X3022Y26481D2*
X3261D1*
X3688D2*
X4075D1*
X3022Y26467D2*
X3262D1*
X3688D2*
X4082D1*
X3022Y26453D2*
X3263D1*
X3660D2*
X4090D1*
X3022Y26438D2*
X3263D1*
X3660D2*
X4095D1*
X3022Y26424D2*
X3263D1*
X3518D2*
X4097D1*
X3021Y26410D2*
X3263D1*
X3518D2*
X4099D1*
X3019Y26396D2*
X3291D1*
X3419D2*
X4099D1*
X3011Y26382D2*
X3291D1*
X3419D2*
X4099D1*
X3003Y26368D2*
X4099D1*
X2998Y26353D2*
X4099D1*
X2996Y26339D2*
X4099D1*
X2995Y26325D2*
X4098D1*
X2994Y26311D2*
X4096D1*
X2994Y26297D2*
X4088D1*
X2994Y26283D2*
X4081D1*
X2994Y26268D2*
X4076D1*
X2994Y26254D2*
X4073D1*
X2993Y26240D2*
X4071D1*
X2990Y26226D2*
X4067D1*
X2983Y26212D2*
X4060D1*
X2975Y26198D2*
X4052D1*
X2970Y26183D2*
X4047D1*
X2967Y26169D2*
X4044D1*
X2966Y26155D2*
X4014D1*
X2966Y26141D2*
X4005D1*
X2966Y26127D2*
X3996D1*
X2966Y26112D2*
X3991D1*
X2937Y26098D2*
X3988D1*
X2937Y26084D2*
X3987D1*
X2937Y26070D2*
X3958D1*
X2937Y26056D2*
X3948D1*
X2937Y26042D2*
X3939D1*
X2937Y26027D2*
X3934D1*
X2937Y26013D2*
X3901D1*
X2937Y25999D2*
X3891D1*
X2937Y25985D2*
X3883D1*
X2937Y25971D2*
X3876D1*
X3079Y25957D2*
X3870D1*
X3079Y25942D2*
X3862D1*
X3107Y25928D2*
X3854D1*
X3108Y25914D2*
X3848D1*
X3111Y25900D2*
X3816D1*
X3119Y25886D2*
X3815D1*
X3131Y25872D2*
X3812D1*
X3142Y25857D2*
X3805D1*
X3152Y25843D2*
X3797D1*
X3158Y25829D2*
X3792D1*
X3162Y25815D2*
X3790D1*
X3163Y25801D2*
X3788D1*
X3192Y25786D2*
X3759D1*
X3202Y25772D2*
X3759D1*
X3210Y25758D2*
X3758D1*
X3216Y25744D2*
X3756D1*
X3219Y25730D2*
X3748D1*
X3249Y25716D2*
X3740D1*
X3249Y25701D2*
X3735D1*
X3249Y25687D2*
X3733D1*
X3250Y25673D2*
X3732D1*
X3252Y25659D2*
X3731D1*
X3260Y25645D2*
X3731D1*
X3268Y25631D2*
X3731D1*
X3273Y25616D2*
X3730D1*
X3275Y25602D2*
X3727D1*
X3276Y25588D2*
X3720D1*
X2710Y25574D2*
X2895D1*
X3277D2*
X3712D1*
X4114D2*
X4298D1*
X2710Y25560D2*
X2895D1*
X3277D2*
X3707D1*
X4114D2*
X4298D1*
X2597Y25546D2*
X3036D1*
X3277D2*
X3704D1*
X3943D2*
X4411D1*
X2597Y25531D2*
X3036D1*
X3277D2*
X3703D1*
X3943D2*
X4411D1*
X2512Y25517D2*
X3121D1*
X3277D2*
X3703D1*
X3858D2*
X4468D1*
X2512Y25503D2*
X3121D1*
X3277D2*
X3703D1*
X3858D2*
X4468D1*
X2455Y25489D2*
X3206D1*
X3306D2*
X3703D1*
X3802D2*
X4525D1*
X2455Y25475D2*
X3206D1*
X3306D2*
X3702D1*
X3802D2*
X4525D1*
X2427Y25460D2*
X4581D1*
X2427Y25446D2*
X4591D1*
X2370Y25432D2*
X4599D1*
X2370Y25418D2*
X4605D1*
X2342Y25404D2*
X4666D1*
X2332Y25390D2*
X4676D1*
X2324Y25375D2*
X4684D1*
X2318Y25361D2*
X4690D1*
X2257Y25347D2*
X4723D1*
X2257Y25333D2*
X4733D1*
X2228Y25319D2*
X4741D1*
X2219Y25305D2*
X4747D1*
X2209Y25290D2*
X4780D1*
X2200Y25276D2*
X4794D1*
X1491Y25262D2*
X1959D1*
X2188D2*
X4810D1*
X5049D2*
X5517D1*
X1378Y25248D2*
X2044D1*
X2171D2*
X4828D1*
X4879D2*
X5602D1*
X1378Y25234D2*
X2105D1*
X2146D2*
X4846D1*
X4866D2*
X5602D1*
X1321Y25220D2*
X5673D1*
X1321Y25205D2*
X5673D1*
X1279Y25191D2*
X5729D1*
X1279Y25177D2*
X5729D1*
X1222Y25163D2*
X2668D1*
X2880D2*
X4099D1*
X4312D2*
X5758D1*
X1212Y25149D2*
X2668D1*
X2880D2*
X4099D1*
X4312D2*
X5767D1*
X1204Y25135D2*
X2611D1*
X2965D2*
X4014D1*
X4397D2*
X5776D1*
X1198Y25120D2*
X2611D1*
X2965D2*
X4005D1*
X4397D2*
X5782D1*
X1165Y25106D2*
X2554D1*
X3022D2*
X3996D1*
X4454D2*
X5814D1*
X1156Y25092D2*
X2554D1*
X3022D2*
X3990D1*
X4454D2*
X5825D1*
X1147Y25078D2*
X2526D1*
X3051D2*
X3929D1*
X4482D2*
X5837D1*
X1142Y25064D2*
X2515D1*
X3051D2*
X3929D1*
X4492D2*
X5849D1*
X1139Y25049D2*
X2503D1*
X3107D2*
X3901D1*
X4500D2*
X5859D1*
X1138Y25035D2*
X2491D1*
X3118D2*
X3891D1*
X4506D2*
X5866D1*
X1109Y25021D2*
X2481D1*
X3130D2*
X3883D1*
X4508D2*
X5899D1*
X1099Y25007D2*
X2475D1*
X3142D2*
X3877D1*
X4510D2*
X5900D1*
X1091Y24993D2*
X2472D1*
X3152D2*
X3816D1*
X4539D2*
X5903D1*
X1085Y24979D2*
X2470D1*
X3159D2*
X3806D1*
X4548D2*
X5911D1*
X1083Y24964D2*
X2441D1*
X3192D2*
X3798D1*
X4557D2*
X5918D1*
X1081Y24950D2*
X2440D1*
X3202D2*
X3792D1*
X4562D2*
X5923D1*
X1081Y24936D2*
X2438D1*
X3210D2*
X3790D1*
X4565D2*
X5926D1*
X1081Y24922D2*
X2430D1*
X3216D2*
X3788D1*
X4567D2*
X5927D1*
X1052Y24908D2*
X2422D1*
X3249D2*
X3759D1*
X4571D2*
X5927D1*
X1052Y24894D2*
X2417D1*
X3259D2*
X3749D1*
X4578D2*
X5928D1*
X1052Y24879D2*
X1817D1*
X1973D2*
X2415D1*
X3267D2*
X3741D1*
X4586D2*
X5035D1*
X5191D2*
X5956D1*
X1052Y24865D2*
X1817D1*
X1973D2*
X2414D1*
X3272D2*
X3736D1*
X4591D2*
X5035D1*
X5191D2*
X5956D1*
X1052Y24851D2*
X1676D1*
X1945D2*
X2413D1*
X3275D2*
X3733D1*
X4593D2*
X5035D1*
X5260D2*
X5956D1*
X1052Y24837D2*
X1662D1*
X1945D2*
X2413D1*
X3276D2*
X3732D1*
X4595D2*
X5035D1*
X5309D2*
X5956D1*
X1052Y24823D2*
X1646D1*
X1945D2*
X2384D1*
X3277D2*
X3731D1*
X4595D2*
X5035D1*
X5345D2*
X5956D1*
X1052Y24809D2*
X1633D1*
X1945D2*
X2384D1*
X3277D2*
X3731D1*
X4595D2*
X5063D1*
X5371D2*
X5956D1*
X1052Y24794D2*
X1625D1*
X1945D2*
X2384D1*
X3277D2*
X3731D1*
X4595D2*
X5063D1*
X5381D2*
X5956D1*
X1052Y24780D2*
X1591D1*
X1945D2*
X2384D1*
X3277D2*
X3731D1*
X4595D2*
X5063D1*
X5417D2*
X5956D1*
X1052Y24766D2*
X1581D1*
X1945D2*
X2384D1*
X3277D2*
X3731D1*
X4595D2*
X5063D1*
X5419D2*
X5956D1*
X1052Y24752D2*
X1572D1*
X1945D2*
X2384D1*
X3277D2*
X3731D1*
X4595D2*
X5063D1*
X5421D2*
X5956D1*
X1052Y24738D2*
X1566D1*
X1945D2*
X2384D1*
X3277D2*
X3731D1*
X4595D2*
X5063D1*
X5429D2*
X5956D1*
X1052Y24723D2*
X1560D1*
X1945D2*
X2384D1*
X3277D2*
X3731D1*
X4595D2*
X5063D1*
X5436D2*
X5956D1*
X1052Y24709D2*
X1552D1*
X1945D2*
X2384D1*
X3277D2*
X3731D1*
X4595D2*
X5063D1*
X5441D2*
X5956D1*
X1052Y24695D2*
X1544D1*
X1945D2*
X2384D1*
X3277D2*
X3731D1*
X4595D2*
X5063D1*
X5444D2*
X5956D1*
X1052Y24681D2*
X1539D1*
X1945D2*
X2384D1*
X3277D2*
X3731D1*
X4595D2*
X5063D1*
X5446D2*
X5956D1*
X1052Y24667D2*
X1536D1*
X1945D2*
X2413D1*
X3277D2*
X3731D1*
X4595D2*
X5063D1*
X5450D2*
X5956D1*
X1052Y24653D2*
X1535D1*
X1945D2*
X2413D1*
X3277D2*
X3731D1*
X4594D2*
X5063D1*
X5457D2*
X5956D1*
X1052Y24638D2*
X1534D1*
X1945D2*
X2413D1*
X3277D2*
X3731D1*
X4592D2*
X5063D1*
X5464D2*
X5956D1*
X1052Y24624D2*
X1534D1*
X1945D2*
X2414D1*
X3277D2*
X3731D1*
X4584D2*
X5063D1*
X5470D2*
X5956D1*
X1052Y24610D2*
X1534D1*
X1945D2*
X2416D1*
X3277D2*
X3731D1*
X4577D2*
X5035D1*
X5469D2*
X5956D1*
X1052Y24596D2*
X1535D1*
X1945D2*
X2424D1*
X3277D2*
X3731D1*
X4572D2*
X5035D1*
X5462D2*
X5956D1*
X1052Y24582D2*
X1537D1*
X1945D2*
X2431D1*
X3277D2*
X3731D1*
X4569D2*
X5035D1*
X5455D2*
X5928D1*
X1052Y24568D2*
X1545D1*
X1945D2*
X2436D1*
X3277D2*
X3731D1*
X4567D2*
X5034D1*
X5450D2*
X5928D1*
X1052Y24553D2*
X1553D1*
X1973D2*
X2439D1*
X3277D2*
X3731D1*
X4563D2*
X5031D1*
X5448D2*
X5928D1*
X1052Y24539D2*
X1558D1*
X1973D2*
X2440D1*
X3277D2*
X3731D1*
X4556D2*
X5024D1*
X5447D2*
X5927D1*
X1080Y24525D2*
X1560D1*
X1973D2*
X2441D1*
X3277D2*
X3731D1*
X4548D2*
X5016D1*
X5446D2*
X5924D1*
X1080Y24511D2*
X1562D1*
X1974D2*
X2441D1*
X3277D2*
X3731D1*
X4543D2*
X5011D1*
X5445D2*
X5916D1*
X1081Y24497D2*
X1562D1*
X1977D2*
X2469D1*
X3277D2*
X3731D1*
X4541D2*
X5008D1*
X5441D2*
X5909D1*
X1082Y24483D2*
X1563D1*
X1985D2*
X2469D1*
X3277D2*
X3731D1*
X4539D2*
X5006D1*
X5434D2*
X5904D1*
X1084Y24468D2*
X1567D1*
X1992D2*
X2470D1*
X3277D2*
X3731D1*
X4539D2*
X5002D1*
X5427D2*
X5901D1*
X1092Y24454D2*
X1574D1*
X1997D2*
X2471D1*
X3277D2*
X3731D1*
X4539D2*
X4995D1*
X5422D2*
X5900D1*
X1099Y24440D2*
X1581D1*
X2000D2*
X2473D1*
X3277D2*
X3731D1*
X4510D2*
X4988D1*
X5419D2*
X5900D1*
X1104Y24426D2*
X1586D1*
X2001D2*
X2482D1*
X3277D2*
X3731D1*
X4509D2*
X4983D1*
X5418D2*
X5899D1*
X1107Y24412D2*
X1589D1*
X2030D2*
X2493D1*
X3277D2*
X3731D1*
X4507D2*
X4980D1*
X5389D2*
X5871D1*
X1108Y24398D2*
X1590D1*
X2030D2*
X2505D1*
X3277D2*
X3731D1*
X4499D2*
X4979D1*
X5388D2*
X5871D1*
X1137Y24383D2*
X1619D1*
X2031D2*
X2515D1*
X3277D2*
X3731D1*
X4492D2*
X4978D1*
X5386D2*
X5870D1*
X1142Y24369D2*
X1623D1*
X2033D2*
X2521D1*
X3277D2*
X3731D1*
X4486D2*
X4978D1*
X5378D2*
X5868D1*
X1149Y24355D2*
X1630D1*
X2041D2*
X2524D1*
X3277D2*
X3731D1*
X4454D2*
X4950D1*
X5370D2*
X5860D1*
X1156Y24341D2*
X1638D1*
X2049D2*
X2554D1*
X3277D2*
X3731D1*
X4449D2*
X4945D1*
X5365D2*
X5852D1*
X1161Y24327D2*
X1643D1*
X2055D2*
X2556D1*
X3277D2*
X3731D1*
X4442D2*
X4938D1*
X5363D2*
X5846D1*
X1163Y24312D2*
X1676D1*
X2061D2*
X2558D1*
X3277D2*
X3731D1*
X4435D2*
X4931D1*
X5332D2*
X5840D1*
X1165Y24298D2*
X1677D1*
X2069D2*
X2566D1*
X3277D2*
X3731D1*
X4430D2*
X4926D1*
X5323D2*
X5832D1*
X1194Y24284D2*
X1679D1*
X2077D2*
X2573D1*
X3277D2*
X3731D1*
X4427D2*
X4923D1*
X5314D2*
X5824D1*
X1195Y24270D2*
X1687D1*
X2082D2*
X2578D1*
X3277D2*
X3731D1*
X4426D2*
X4922D1*
X5308D2*
X5819D1*
X1197Y24256D2*
X1694D1*
X2085D2*
X2581D1*
X3277D2*
X3731D1*
X4397D2*
X4893D1*
X5301D2*
X5816D1*
X1205Y24242D2*
X1699D1*
X2086D2*
X2582D1*
X3277D2*
X3731D1*
X4387D2*
X4892D1*
X5293D2*
X5815D1*
X1213Y24227D2*
X1702D1*
X2115D2*
X2611D1*
X3277D2*
X3731D1*
X4379D2*
X4890D1*
X5286D2*
X5786D1*
X1219Y24213D2*
X1703D1*
X2116D2*
X2621D1*
X3277D2*
X3731D1*
X4372D2*
X4882D1*
X5280D2*
X5776D1*
X1225Y24199D2*
X1732D1*
X2119D2*
X2629D1*
X3277D2*
X3731D1*
X4366D2*
X4874D1*
X5278D2*
X5768D1*
X1233Y24185D2*
X1742D1*
X2126D2*
X2635D1*
X3277D2*
X3731D1*
X4358D2*
X4869D1*
X5276D2*
X5762D1*
X1241Y24171D2*
X1751D1*
X2134D2*
X2637D1*
X3277D2*
X3731D1*
X4350D2*
X4867D1*
X5247D2*
X5760D1*
X1246Y24157D2*
X1757D1*
X2139D2*
X2639D1*
X3277D2*
X3731D1*
X4344D2*
X4865D1*
X5238D2*
X5758D1*
X1248Y24142D2*
X1763D1*
X2141D2*
X2668D1*
X3277D2*
X3731D1*
X4312D2*
X4836D1*
X5229D2*
X5729D1*
X1250Y24128D2*
X1771D1*
X2143D2*
X2679D1*
X3277D2*
X3731D1*
X4311D2*
X4835D1*
X5224D2*
X5728D1*
X1279Y24114D2*
X1779D1*
X2172D2*
X2691D1*
X3277D2*
X3731D1*
X4308D2*
X4833D1*
X5221D2*
X5726D1*
X1279Y24100D2*
X1785D1*
X2173D2*
X2703D1*
X3277D2*
X3731D1*
X4301D2*
X4825D1*
X5220D2*
X5718D1*
X1281Y24086D2*
X1817D1*
X2175D2*
X2713D1*
X3277D2*
X3731D1*
X4293D2*
X4818D1*
X5191D2*
X5711D1*
X1286Y24072D2*
X1819D1*
X2184D2*
X2719D1*
X3277D2*
X3731D1*
X4288D2*
X4812D1*
X5181D2*
X5706D1*
X1293Y24057D2*
X1821D1*
X2195D2*
X2722D1*
X3277D2*
X3731D1*
X4255D2*
X4805D1*
X5173D2*
X5703D1*
X1302Y24043D2*
X1829D1*
X2207D2*
X2724D1*
X3277D2*
X3731D1*
X4254D2*
X4797D1*
X5167D2*
X5702D1*
X1311Y24029D2*
X1836D1*
X2217D2*
X2753D1*
X3277D2*
X3731D1*
X4252D2*
X4789D1*
X5164D2*
X5673D1*
X1317Y24015D2*
X1842D1*
X2223D2*
X2763D1*
X3277D2*
X3731D1*
X4244D2*
X4784D1*
X5163D2*
X5668D1*
X1324Y24001D2*
X1874D1*
X2226D2*
X2771D1*
X3277D2*
X3731D1*
X4236D2*
X4751D1*
X5134D2*
X5663D1*
X1332Y23986D2*
X1884D1*
X2228D2*
X2777D1*
X3277D2*
X3731D1*
X4231D2*
X4750D1*
X5123D2*
X5661D1*
X1340Y23972D2*
X1892D1*
X2257D2*
X2810D1*
X3277D2*
X3731D1*
X4199D2*
X4748D1*
X5111D2*
X5659D1*
X1345Y23958D2*
X1899D1*
X2258D2*
X2811D1*
X3277D2*
X3731D1*
X4188D2*
X4740D1*
X5099D2*
X5659D1*
X1378Y23944D2*
X1906D1*
X2261D2*
X2813D1*
X3277D2*
X3731D1*
X4176D2*
X4733D1*
X5089D2*
X5630D1*
X1382Y23930D2*
X1918D1*
X2273D2*
X2825D1*
X3277D2*
X3731D1*
X4164D2*
X4728D1*
X5082D2*
X5620D1*
X1389Y23916D2*
X1934D1*
X2287D2*
X2841D1*
X3277D2*
X3731D1*
X4153D2*
X4725D1*
X5049D2*
X5612D1*
X1397Y23901D2*
X1950D1*
X2299D2*
X2857D1*
X3277D2*
X3731D1*
X4147D2*
X4695D1*
X5045D2*
X5607D1*
X1402Y23887D2*
X1964D1*
X2308D2*
X2872D1*
X3277D2*
X3731D1*
X4144D2*
X4685D1*
X5038D2*
X5604D1*
X1435Y23873D2*
X1975D1*
X2315D2*
X2887D1*
X3277D2*
X3731D1*
X4114D2*
X4676D1*
X5030D2*
X5573D1*
X1444Y23859D2*
X1982D1*
X2324D2*
X2900D1*
X3277D2*
X3731D1*
X4104D2*
X4670D1*
X5025D2*
X5563D1*
X1453Y23845D2*
X1985D1*
X2332D2*
X2911D1*
X3277D2*
X3731D1*
X4095D2*
X4664D1*
X4992D2*
X5551D1*
X1459Y23831D2*
X1987D1*
X2338D2*
X2917D1*
X3277D2*
X3731D1*
X4089D2*
X4656D1*
X4983D2*
X5538D1*
X1466Y23816D2*
X2016D1*
X2370D2*
X2921D1*
X3277D2*
X3731D1*
X4057D2*
X4648D1*
X4974D2*
X5528D1*
X1474Y23802D2*
X2026D1*
X2371D2*
X2922D1*
X3277D2*
X3731D1*
X4047D2*
X4642D1*
X4969D2*
X5522D1*
X1482Y23788D2*
X2034D1*
X2374D2*
X2951D1*
X3277D2*
X3731D1*
X4039D2*
X4610D1*
X4966D2*
X5519D1*
X1487Y23774D2*
X2040D1*
X2382D2*
X2961D1*
X3277D2*
X3731D1*
X4033D2*
X4608D1*
X4965D2*
X5517D1*
X1520Y23760D2*
X2073D1*
X2394D2*
X2970D1*
X3277D2*
X3731D1*
X4000D2*
X4606D1*
X4936D2*
X5488D1*
X1529Y23746D2*
X2082D1*
X2405D2*
X2975D1*
X3277D2*
X3731D1*
X3999D2*
X4598D1*
X4925D2*
X5479D1*
X1538Y23731D2*
X2091D1*
X2415D2*
X3008D1*
X3277D2*
X3731D1*
X3997D2*
X4591D1*
X4913D2*
X5470D1*
X1543Y23717D2*
X2097D1*
X2421D2*
X3019D1*
X3277D2*
X3731D1*
X3988D2*
X4585D1*
X4901D2*
X5464D1*
X1546Y23703D2*
X2129D1*
X2425D2*
X3031D1*
X3277D2*
X3731D1*
X3977D2*
X4553D1*
X4890D2*
X5432D1*
X1547Y23689D2*
X2130D1*
X2426D2*
X3043D1*
X3277D2*
X3731D1*
X3965D2*
X4552D1*
X4884D2*
X5421D1*
X1576Y23675D2*
X2133D1*
X2455D2*
X3053D1*
X3277D2*
X3731D1*
X3955D2*
X4549D1*
X4851D2*
X5409D1*
X1586Y23660D2*
X2142D1*
X2465D2*
X3060D1*
X3277D2*
X3731D1*
X3948D2*
X4542D1*
X4841D2*
X5397D1*
X1595Y23646D2*
X2153D1*
X2473D2*
X3093D1*
X3277D2*
X3731D1*
X3915D2*
X4534D1*
X4832D2*
X5387D1*
X1601Y23632D2*
X2164D1*
X2479D2*
X3103D1*
X3277D2*
X3731D1*
X3905D2*
X4529D1*
X4827D2*
X5380D1*
X1633Y23618D2*
X2174D1*
X2482D2*
X3111D1*
X3277D2*
X3731D1*
X3897D2*
X4496D1*
X4824D2*
X5377D1*
X1643Y23604D2*
X2181D1*
X2483D2*
X3117D1*
X3277D2*
X3731D1*
X3892D2*
X4496D1*
X4823D2*
X5376D1*
X1653Y23590D2*
X2184D1*
X2512D2*
X3119D1*
X3277D2*
X3731D1*
X3889D2*
X4496D1*
X4794D2*
X5347D1*
X1662Y23575D2*
X2186D1*
X2512D2*
X3121D1*
X3277D2*
X3731D1*
X3887D2*
X4496D1*
X4794D2*
X5347D1*
X967Y23476D2*
X1123D1*
X2739D2*
X2895D1*
X5021D2*
X5176D1*
X967Y23462D2*
X1123D1*
X2720D2*
X2918D1*
X5021D2*
X5176D1*
X258Y23448D2*
X669D1*
X917D2*
X1172D1*
X1718D2*
X1789D1*
X2172D2*
X2469D1*
X2698D2*
X2942D1*
X3277D2*
X3561D1*
X3717D2*
X4128D1*
X4284D2*
X4354D1*
X4652D2*
X4723D1*
X4971D2*
X5225D1*
X5743D2*
X5814D1*
X6225D2*
X6268D1*
X6651D2*
X6693D1*
X273Y23434D2*
X669D1*
X881D2*
X953D1*
X1137D2*
X1210D1*
X1705D2*
X1789D1*
X2154D2*
X2469D1*
X2678D2*
X2753D1*
X2913D2*
X2963D1*
X3247D2*
X3561D1*
X3717D2*
X4128D1*
X4297D2*
X4372D1*
X4652D2*
X4723D1*
X4934D2*
X5006D1*
X5191D2*
X5264D1*
X5743D2*
X5827D1*
X6225D2*
X6268D1*
X6651D2*
X6693D1*
X287Y23420D2*
X669D1*
X856D2*
X953D1*
X1137D2*
X1225D1*
X1696D2*
X1789D1*
X2139D2*
X2469D1*
X2663D2*
X2753D1*
X2920D2*
X2972D1*
X3223D2*
X3561D1*
X3717D2*
X4128D1*
X4306D2*
X4387D1*
X4652D2*
X4723D1*
X4910D2*
X5006D1*
X5191D2*
X5279D1*
X5742D2*
X5837D1*
X6225D2*
X6268D1*
X6651D2*
X6693D1*
X627Y23405D2*
X669D1*
X839D2*
X896D1*
X1194D2*
X1279D1*
X1688D2*
X1817D1*
X2128D2*
X2181D1*
X2427D2*
X2469D1*
X2657D2*
X2696D1*
X2928D2*
X3008D1*
X3205D2*
X3259D1*
X3518D2*
X3561D1*
X4057D2*
X4128D1*
X4340D2*
X4399D1*
X4652D2*
X4723D1*
X4891D2*
X4950D1*
X5247D2*
X5318D1*
X5740D2*
X5844D1*
X6225D2*
X6268D1*
X6651D2*
X6693D1*
X627Y23391D2*
X669D1*
X825D2*
X896D1*
X1194D2*
X1289D1*
X1680D2*
X1819D1*
X2120D2*
X2173D1*
X2427D2*
X2469D1*
X2654D2*
X2696D1*
X2933D2*
X3018D1*
X3198D2*
X3252D1*
X3518D2*
X3561D1*
X4057D2*
X4128D1*
X4351D2*
X4406D1*
X4652D2*
X4723D1*
X4885D2*
X4940D1*
X5247D2*
X5328D1*
X5732D2*
X5853D1*
X6225D2*
X6268D1*
X6651D2*
X6693D1*
X627Y23377D2*
X669D1*
X840D2*
X868D1*
X1251D2*
X1297D1*
X1672D2*
X1732D1*
X1775D2*
X1821D1*
X2087D2*
X2162D1*
X2427D2*
X2469D1*
X2965D2*
X3026D1*
X3164D2*
X3244D1*
X3518D2*
X3561D1*
X4085D2*
X4128D1*
X4363D2*
X4439D1*
X4652D2*
X4723D1*
X4881D2*
X4930D1*
X5276D2*
X5336D1*
X5725D2*
X5758D1*
X5828D2*
X5861D1*
X6225D2*
X6268D1*
X6651D2*
X6693D1*
X627Y23363D2*
X669D1*
X854D2*
X868D1*
X1251D2*
X1302D1*
X1666D2*
X1732D1*
X1776D2*
X1829D1*
X2087D2*
X2151D1*
X2427D2*
X2469D1*
X2967D2*
X3031D1*
X3164D2*
X3238D1*
X3518D2*
X3561D1*
X4085D2*
X4128D1*
X4375D2*
X4450D1*
X4652D2*
X4723D1*
X4879D2*
X4921D1*
X5286D2*
X5342D1*
X5720D2*
X5758D1*
X5828D2*
X5866D1*
X6225D2*
X6268D1*
X6651D2*
X6693D1*
X627Y23349D2*
X669D1*
X1279D2*
X1305D1*
X1663D2*
X1704D1*
X1778D2*
X1836D1*
X2087D2*
X2141D1*
X2427D2*
X2469D1*
X2969D2*
X3034D1*
X3164D2*
X3232D1*
X3518D2*
X3561D1*
X4085D2*
X4128D1*
X4385D2*
X4462D1*
X4652D2*
X4723D1*
X5299D2*
X5375D1*
X5717D2*
X5758D1*
X5828D2*
X5869D1*
X6225D2*
X6268D1*
X6651D2*
X6693D1*
X627Y23335D2*
X669D1*
X1279D2*
X1306D1*
X1661D2*
X1703D1*
X1786D2*
X1841D1*
X2087D2*
X2135D1*
X2427D2*
X2469D1*
X2977D2*
X3036D1*
X3164D2*
X3224D1*
X3518D2*
X3561D1*
X4085D2*
X4128D1*
X4392D2*
X4475D1*
X4652D2*
X4723D1*
X5311D2*
X5385D1*
X5716D2*
X5758D1*
X5828D2*
X5870D1*
X6225D2*
X6268D1*
X6651D2*
X6693D1*
X627Y23320D2*
X669D1*
X1281D2*
X1336D1*
X1657D2*
X1701D1*
X1794D2*
X1844D1*
X2087D2*
X2132D1*
X2427D2*
X2469D1*
X2984D2*
X3036D1*
X3164D2*
X3216D1*
X3518D2*
X3561D1*
X4085D2*
X4128D1*
X4425D2*
X4485D1*
X4652D2*
X4723D1*
X5321D2*
X5393D1*
X5687D2*
X5758D1*
X5828D2*
X5871D1*
X6225D2*
X6268D1*
X6651D2*
X6693D1*
X627Y23306D2*
X669D1*
X1285D2*
X1337D1*
X1650D2*
X1693D1*
X1799D2*
X1845D1*
X2087D2*
X2130D1*
X2427D2*
X2469D1*
X2990D2*
X3036D1*
X3164D2*
X3211D1*
X3518D2*
X3561D1*
X4085D2*
X4128D1*
X4435D2*
X4491D1*
X4652D2*
X4723D1*
X5327D2*
X5398D1*
X5686D2*
X5758D1*
X5828D2*
X5871D1*
X6225D2*
X6268D1*
X6651D2*
X6693D1*
X627Y23292D2*
X669D1*
X1288D2*
X1339D1*
X1643D2*
X1685D1*
X1801D2*
X1845D1*
X2087D2*
X2130D1*
X2427D2*
X2469D1*
X2989D2*
X3036D1*
X3164D2*
X3211D1*
X3518D2*
X3561D1*
X4085D2*
X4128D1*
X4444D2*
X4525D1*
X4652D2*
X4723D1*
X5330D2*
X5401D1*
X5684D2*
X5729D1*
X5857D2*
X5899D1*
X6225D2*
X6268D1*
X6651D2*
X6693D1*
X627Y23278D2*
X669D1*
X1292D2*
X1347D1*
X1638D2*
X1680D1*
X1803D2*
X1846D1*
X2087D2*
X2130D1*
X2427D2*
X2469D1*
X2982D2*
X3035D1*
X3164D2*
X3218D1*
X3518D2*
X3561D1*
X4085D2*
X4128D1*
X4449D2*
X4534D1*
X4652D2*
X4723D1*
X5332D2*
X5404D1*
X5681D2*
X5728D1*
X5858D2*
X5900D1*
X6225D2*
X6268D1*
X6651D2*
X6693D1*
X627Y23264D2*
X669D1*
X1297D2*
X1354D1*
X1635D2*
X1678D1*
X1832D2*
X1874D1*
X2087D2*
X2133D1*
X2427D2*
X2469D1*
X2975D2*
X3033D1*
X3164D2*
X3225D1*
X3518D2*
X3561D1*
X4057D2*
X4128D1*
X4510D2*
X4543D1*
X4652D2*
X4723D1*
X5361D2*
X5408D1*
X5677D2*
X5726D1*
X5860D2*
X5903D1*
X6225D2*
X6268D1*
X6651D2*
X6693D1*
X627Y23249D2*
X669D1*
X1304D2*
X1359D1*
X1634D2*
X1677D1*
X1832D2*
X1875D1*
X2087D2*
X2142D1*
X2427D2*
X2469D1*
X2970D2*
X3025D1*
X3164D2*
X3230D1*
X3518D2*
X3561D1*
X4057D2*
X4128D1*
X4510D2*
X4549D1*
X4652D2*
X4723D1*
X5361D2*
X5415D1*
X5675D2*
X5718D1*
X5868D2*
X5911D1*
X6225D2*
X6268D1*
X6651D2*
X6693D1*
X627Y23235D2*
X669D1*
X1312D2*
X1362D1*
X1605D2*
X1676D1*
X1832D2*
X1878D1*
X2087D2*
X2153D1*
X2427D2*
X2469D1*
X2937D2*
X3018D1*
X3192D2*
X3233D1*
X3518D2*
X3561D1*
X4085D2*
X4128D1*
X4539D2*
X4581D1*
X4652D2*
X4723D1*
X5361D2*
X5422D1*
X5673D2*
X5711D1*
X5876D2*
X5918D1*
X6225D2*
X6268D1*
X6651D2*
X6693D1*
X627Y23221D2*
X669D1*
X1317D2*
X1363D1*
X1604D2*
X1676D1*
X1833D2*
X1885D1*
X2087D2*
X2164D1*
X2427D2*
X2469D1*
X2937D2*
X3012D1*
X3192D2*
X3234D1*
X3518D2*
X3561D1*
X4085D2*
X4128D1*
X4548D2*
X4592D1*
X4651D2*
X4723D1*
X5361D2*
X5427D1*
X5672D2*
X5706D1*
X5881D2*
X5923D1*
X6225D2*
X6268D1*
X6651D2*
X6693D1*
X627Y23207D2*
X669D1*
X1319D2*
X1364D1*
X1601D2*
X1647D1*
X1835D2*
X1893D1*
X2115D2*
X2174D1*
X2427D2*
X2469D1*
X2880D2*
X2980D1*
X3192D2*
X3291D1*
X3518D2*
X3561D1*
X4057D2*
X4128D1*
X4557D2*
X4605D1*
X4648D2*
X4723D1*
X5361D2*
X5430D1*
X5668D2*
X5703D1*
X5883D2*
X5926D1*
X6225D2*
X6268D1*
X6651D2*
X6693D1*
X627Y23193D2*
X669D1*
X1321D2*
X1364D1*
X1594D2*
X1646D1*
X1843D2*
X1898D1*
X2125D2*
X2181D1*
X2427D2*
X2469D1*
X2880D2*
X2970D1*
X3192D2*
X3291D1*
X3518D2*
X3561D1*
X4057D2*
X4128D1*
X4563D2*
X4620D1*
X4637D2*
X4723D1*
X5361D2*
X5431D1*
X5661D2*
X5702D1*
X5884D2*
X5927D1*
X6225D2*
X6268D1*
X6651D2*
X6693D1*
X287Y23179D2*
X669D1*
X1321D2*
X1364D1*
X1586D2*
X1644D1*
X1850D2*
X1900D1*
X2133D2*
X2469D1*
X2795D2*
X2961D1*
X3249D2*
X3561D1*
X3745D2*
X4128D1*
X4562D2*
X4723D1*
X5361D2*
X5431D1*
X5654D2*
X5673D1*
X5885D2*
X5956D1*
X6225D2*
X6693D1*
X287Y23164D2*
X669D1*
X1321D2*
X1364D1*
X1581D2*
X1636D1*
X1856D2*
X1902D1*
X2139D2*
X2469D1*
X2795D2*
X2956D1*
X3259D2*
X3561D1*
X3745D2*
X4128D1*
X4555D2*
X4723D1*
X5361D2*
X5432D1*
X5648D2*
X5673D1*
X5885D2*
X5957D1*
X6225D2*
X6693D1*
X287Y23150D2*
X669D1*
X1321D2*
X1364D1*
X1578D2*
X1629D1*
X1863D2*
X1902D1*
X2200D2*
X2469D1*
X2739D2*
X2895D1*
X3267D2*
X3561D1*
X3745D2*
X4128D1*
X4548D2*
X4605D1*
X4652D2*
X4723D1*
X5361D2*
X5432D1*
X5641D2*
X5673D1*
X5914D2*
X5959D1*
X6225D2*
X6693D1*
X287Y23136D2*
X669D1*
X1321D2*
X1364D1*
X1577D2*
X1624D1*
X1871D2*
X1902D1*
X2200D2*
X2469D1*
X2739D2*
X2895D1*
X3273D2*
X3561D1*
X3745D2*
X4128D1*
X4543D2*
X4598D1*
X4652D2*
X4723D1*
X5361D2*
X5432D1*
X5633D2*
X5672D1*
X5915D2*
X5967D1*
X6225D2*
X6693D1*
X627Y23122D2*
X669D1*
X1321D2*
X1364D1*
X1577D2*
X1621D1*
X1878D2*
X1931D1*
X2427D2*
X2469D1*
X2682D2*
X2810D1*
X3334D2*
X3376D1*
X3518D2*
X3561D1*
X4057D2*
X4128D1*
X4510D2*
X4591D1*
X4680D2*
X4723D1*
X5361D2*
X5431D1*
X5626D2*
X5670D1*
X5917D2*
X5975D1*
X6225D2*
X6268D1*
X6651D2*
X6693D1*
X627Y23108D2*
X669D1*
X1320D2*
X1364D1*
X1577D2*
X1620D1*
X1884D2*
X1932D1*
X2427D2*
X2469D1*
X2672D2*
X2810D1*
X3324D2*
X3375D1*
X3518D2*
X3561D1*
X4057D2*
X4128D1*
X4501D2*
X4586D1*
X4680D2*
X4723D1*
X5361D2*
X5431D1*
X5621D2*
X5667D1*
X5925D2*
X5980D1*
X6225D2*
X6268D1*
X6651D2*
X6693D1*
X627Y23094D2*
X669D1*
X1318D2*
X1364D1*
X1548D2*
X1591D1*
X1886D2*
X1934D1*
X2427D2*
X2469D1*
X2664D2*
X2753D1*
X3316D2*
X3373D1*
X3518D2*
X3561D1*
X4057D2*
X4128D1*
X4492D2*
X4583D1*
X4652D2*
X4723D1*
X5361D2*
X5428D1*
X5618D2*
X5663D1*
X5932D2*
X5982D1*
X6225D2*
X6268D1*
X6651D2*
X6693D1*
X627Y23079D2*
X669D1*
X1310D2*
X1364D1*
X1547D2*
X1591D1*
X1887D2*
X1942D1*
X2427D2*
X2469D1*
X2659D2*
X2753D1*
X3310D2*
X3365D1*
X3518D2*
X3561D1*
X4057D2*
X4128D1*
X4486D2*
X4582D1*
X4652D2*
X4723D1*
X5361D2*
X5420D1*
X5617D2*
X5661D1*
X5937D2*
X5984D1*
X6225D2*
X6268D1*
X6651D2*
X6693D1*
X627Y23065D2*
X669D1*
X1303D2*
X1364D1*
X1545D2*
X1591D1*
X1888D2*
X1950D1*
X2427D2*
X2469D1*
X2656D2*
X2725D1*
X3308D2*
X3358D1*
X3518D2*
X3561D1*
X4057D2*
X4128D1*
X4454D2*
X4553D1*
X4652D2*
X4723D1*
X5361D2*
X5413D1*
X5588D2*
X5659D1*
X5940D2*
X5984D1*
X6225D2*
X6268D1*
X6651D2*
X6693D1*
X627Y23051D2*
X669D1*
X1298D2*
X1363D1*
X1537D2*
X1591D1*
X1888D2*
X1956D1*
X2427D2*
X2469D1*
X2654D2*
X2715D1*
X3306D2*
X3353D1*
X3518D2*
X3561D1*
X4057D2*
X4128D1*
X4444D2*
X4543D1*
X4652D2*
X4723D1*
X5361D2*
X5408D1*
X5588D2*
X5659D1*
X5941D2*
X5984D1*
X6225D2*
X6268D1*
X6651D2*
X6693D1*
X627Y23037D2*
X669D1*
X1295D2*
X1360D1*
X1529D2*
X1962D1*
X2427D2*
X2469D1*
X2654D2*
X2706D1*
X3277D2*
X3350D1*
X3518D2*
X3561D1*
X4057D2*
X4128D1*
X4435D2*
X4535D1*
X4652D2*
X4723D1*
X5361D2*
X5405D1*
X5587D2*
X6013D1*
X6225D2*
X6268D1*
X6651D2*
X6693D1*
X627Y23023D2*
X669D1*
X1293D2*
X1353D1*
X1524D2*
X1970D1*
X2427D2*
X2469D1*
X2654D2*
X2701D1*
X3268D2*
X3349D1*
X3518D2*
X3561D1*
X4057D2*
X4128D1*
X4430D2*
X4529D1*
X4652D2*
X4723D1*
X5361D2*
X5404D1*
X5586D2*
X6014D1*
X6225D2*
X6268D1*
X6651D2*
X6693D1*
X627Y23009D2*
X669D1*
X1290D2*
X1345D1*
X1522D2*
X1978D1*
X2427D2*
X2469D1*
X2625D2*
X2698D1*
X3259D2*
X3320D1*
X3518D2*
X3561D1*
X4057D2*
X4128D1*
X4397D2*
X4496D1*
X4652D2*
X4723D1*
X5332D2*
X5402D1*
X5584D2*
X6016D1*
X6225D2*
X6268D1*
X6651D2*
X6693D1*
X627Y22994D2*
X669D1*
X1284D2*
X1340D1*
X1521D2*
X1983D1*
X2427D2*
X2469D1*
X2625D2*
X2697D1*
X3254D2*
X3310D1*
X3518D2*
X3561D1*
X4057D2*
X4128D1*
X4387D2*
X4482D1*
X4652D2*
X4723D1*
X5328D2*
X5399D1*
X5576D2*
X6024D1*
X6225D2*
X6268D1*
X6651D2*
X6693D1*
X627Y22980D2*
X669D1*
X1271D2*
X1337D1*
X1491D2*
X1561D1*
X1945D2*
X1985D1*
X2427D2*
X2469D1*
X2625D2*
X2696D1*
X3251D2*
X3302D1*
X3518D2*
X3561D1*
X4057D2*
X4128D1*
X4378D2*
X4467D1*
X4652D2*
X4723D1*
X5320D2*
X5392D1*
X5569D2*
X5636D1*
X5965D2*
X6033D1*
X6225D2*
X6268D1*
X6651D2*
X6693D1*
X627Y22966D2*
X669D1*
X1258D2*
X1307D1*
X1491D2*
X1559D1*
X1945D2*
X1987D1*
X2427D2*
X2469D1*
X2654D2*
X2696D1*
X3221D2*
X3296D1*
X3518D2*
X3561D1*
X4057D2*
X4128D1*
X4369D2*
X4454D1*
X4652D2*
X4723D1*
X5309D2*
X5384D1*
X5564D2*
X5616D1*
X5984D2*
X6041D1*
X6225D2*
X6268D1*
X6651D2*
X6693D1*
X627Y22952D2*
X669D1*
X1244D2*
X1306D1*
X1490D2*
X1551D1*
X1945D2*
X1987D1*
X2427D2*
X2469D1*
X2654D2*
X2697D1*
X3211D2*
X3293D1*
X3518D2*
X3561D1*
X4057D2*
X4128D1*
X4359D2*
X4446D1*
X4652D2*
X4723D1*
X5297D2*
X5379D1*
X5561D2*
X5609D1*
X5992D2*
X6051D1*
X6225D2*
X6268D1*
X6651D2*
X6693D1*
X627Y22938D2*
X669D1*
X825D2*
X868D1*
X1229D2*
X1304D1*
X1488D2*
X1544D1*
X1945D2*
X2016D1*
X2427D2*
X2469D1*
X2654D2*
X2700D1*
X2994D2*
X3008D1*
X3202D2*
X3263D1*
X3518D2*
X3561D1*
X4057D2*
X4128D1*
X4351D2*
X4411D1*
X4652D2*
X4723D1*
X4851D2*
X4921D1*
X5287D2*
X5347D1*
X5531D2*
X5605D1*
X6000D2*
X6059D1*
X6225D2*
X6268D1*
X6651D2*
X6693D1*
X627Y22923D2*
X669D1*
X826D2*
X868D1*
X1216D2*
X1296D1*
X1480D2*
X1539D1*
X1945D2*
X2017D1*
X2427D2*
X2469D1*
X2655D2*
X2707D1*
X2984D2*
X3018D1*
X3197D2*
X3262D1*
X3518D2*
X3561D1*
X4057D2*
X4128D1*
X4345D2*
X4401D1*
X4652D2*
X4723D1*
X4851D2*
X4931D1*
X5281D2*
X5337D1*
X5530D2*
X5603D1*
X6009D2*
X6064D1*
X6225D2*
X6268D1*
X6651D2*
X6693D1*
X627Y22909D2*
X669D1*
X829D2*
X896D1*
X1206D2*
X1288D1*
X1473D2*
X1536D1*
X1973D2*
X2019D1*
X2427D2*
X2469D1*
X2657D2*
X2715D1*
X2976D2*
X3028D1*
X3194D2*
X3260D1*
X3518D2*
X3561D1*
X4057D2*
X4128D1*
X4312D2*
X4393D1*
X4652D2*
X4723D1*
X4879D2*
X4940D1*
X5219D2*
X5328D1*
X5527D2*
X5573D1*
X6017D2*
X6067D1*
X6225D2*
X6268D1*
X6651D2*
X6693D1*
X627Y22895D2*
X669D1*
X837D2*
X896D1*
X1199D2*
X1283D1*
X1467D2*
X1535D1*
X1974D2*
X2027D1*
X2427D2*
X2469D1*
X2665D2*
X2720D1*
X2970D2*
X3036D1*
X3193D2*
X3251D1*
X3518D2*
X3561D1*
X4057D2*
X4128D1*
X4302D2*
X4387D1*
X4652D2*
X4723D1*
X4889D2*
X4945D1*
X5219D2*
X5323D1*
X5520D2*
X5573D1*
X6022D2*
X6069D1*
X6225D2*
X6268D1*
X6651D2*
X6693D1*
X258Y22881D2*
X669D1*
X844D2*
X981D1*
X1137D2*
X1236D1*
X1460D2*
X1506D1*
X1977D2*
X2035D1*
X2427D2*
X2469D1*
X2672D2*
X2781D1*
X2909D2*
X3023D1*
X3164D2*
X3240D1*
X3518D2*
X3561D1*
X3717D2*
X4128D1*
X4294D2*
X4354D1*
X4652D2*
X4723D1*
X4897D2*
X5006D1*
X5162D2*
X5290D1*
X5512D2*
X5573D1*
X6025D2*
X6098D1*
X6225D2*
X6268D1*
X6651D2*
X6693D1*
X258Y22867D2*
X669D1*
X850D2*
X981D1*
X1137D2*
X1236D1*
X1452D2*
X1506D1*
X1985D2*
X2040D1*
X2427D2*
X2469D1*
X2678D2*
X2781D1*
X2909D2*
X3014D1*
X3164D2*
X3228D1*
X3518D2*
X3561D1*
X3717D2*
X4128D1*
X4288D2*
X4345D1*
X4652D2*
X4723D1*
X4903D2*
X5006D1*
X5162D2*
X5290D1*
X5507D2*
X5573D1*
X6026D2*
X6098D1*
X6225D2*
X6268D1*
X6651D2*
X6693D1*
X258Y22853D2*
X669D1*
X910D2*
X1180D1*
X1443D2*
X1506D1*
X1993D2*
X2042D1*
X2427D2*
X2469D1*
X2739D2*
X2980D1*
X3164D2*
X3216D1*
X3518D2*
X3561D1*
X3717D2*
X4128D1*
X4255D2*
X4335D1*
X4652D2*
X4723D1*
X4964D2*
X5233D1*
X5504D2*
X5573D1*
X6027D2*
X6098D1*
X6225D2*
X6268D1*
X6651D2*
X6693D1*
X258Y22838D2*
X669D1*
X910D2*
X1180D1*
X1435D2*
X1506D1*
X2002D2*
X2044D1*
X2427D2*
X2469D1*
X2739D2*
X2980D1*
X3164D2*
X3206D1*
X3518D2*
X3561D1*
X3717D2*
X4128D1*
X4255D2*
X4326D1*
X4652D2*
X4723D1*
X4964D2*
X5233D1*
X5502D2*
X5573D1*
X6027D2*
X6098D1*
X6225D2*
X6268D1*
X6651D2*
X6693D1*
X995Y22824D2*
X1123D1*
X2795D2*
X2895D1*
X5021D2*
X5148D1*
X995Y22810D2*
X1123D1*
X2795D2*
X2895D1*
X5021D2*
X5148D1*
X287Y22739D2*
X783D1*
X910D2*
X1477D1*
X1548D2*
X2158D1*
X2455D2*
X2753D1*
X3391D2*
X3532D1*
X3915D2*
X4269D1*
X4709D2*
X4865D1*
X5276D2*
X5432D1*
X5772D2*
X5928D1*
X6169D2*
X6466D1*
X287Y22725D2*
X783D1*
X901D2*
X1504D1*
X1522D2*
X2158D1*
X2455D2*
X2753D1*
X3391D2*
X3532D1*
X3915D2*
X4269D1*
X4699D2*
X4866D1*
X5276D2*
X5432D1*
X5772D2*
X5928D1*
X6169D2*
X6466D1*
X258Y22711D2*
X783D1*
X892D2*
X2158D1*
X2399D2*
X2838D1*
X3362D2*
X3532D1*
X3830D2*
X4269D1*
X4691D2*
X4868D1*
X5276D2*
X5460D1*
X5772D2*
X5928D1*
X6112D2*
X6551D1*
X258Y22697D2*
X783D1*
X887D2*
X2158D1*
X2399D2*
X2838D1*
X3362D2*
X3532D1*
X3830D2*
X4269D1*
X4685D2*
X4876D1*
X5276D2*
X5460D1*
X5772D2*
X5928D1*
X6112D2*
X6561D1*
X287Y22683D2*
X783D1*
X884D2*
X2158D1*
X2342D2*
X2866D1*
X3362D2*
X3532D1*
X3773D2*
X4269D1*
X4652D2*
X4883D1*
X5276D2*
X5460D1*
X5772D2*
X5928D1*
X6084D2*
X6570D1*
X287Y22668D2*
X783D1*
X883D2*
X2158D1*
X2332D2*
X2866D1*
X3362D2*
X3532D1*
X3764D2*
X4269D1*
X4652D2*
X4888D1*
X5276D2*
X5460D1*
X5772D2*
X5928D1*
X6074D2*
X6575D1*
X287Y22654D2*
X783D1*
X882D2*
X2158D1*
X2324D2*
X2923D1*
X3362D2*
X3532D1*
X3755D2*
X4269D1*
X4652D2*
X4891D1*
X5276D2*
X5460D1*
X5772D2*
X5928D1*
X6064D2*
X6636D1*
X287Y22640D2*
X783D1*
X883D2*
X2158D1*
X2318D2*
X2923D1*
X3362D2*
X3532D1*
X3749D2*
X4269D1*
X4651D2*
X4892D1*
X5276D2*
X5460D1*
X5772D2*
X5928D1*
X6055D2*
X6646D1*
X287Y22626D2*
X783D1*
X885D2*
X2158D1*
X2285D2*
X2951D1*
X3362D2*
X3532D1*
X3717D2*
X4269D1*
X4649D2*
X4921D1*
X5276D2*
X5460D1*
X5772D2*
X5928D1*
X6068D2*
X6654D1*
X287Y22612D2*
X783D1*
X893D2*
X2158D1*
X2275D2*
X2952D1*
X3362D2*
X3532D1*
X3716D2*
X4269D1*
X4641D2*
X4921D1*
X5276D2*
X5460D1*
X5772D2*
X5928D1*
X6077D2*
X6660D1*
X287Y22598D2*
X783D1*
X902D2*
X1477D1*
X1548D2*
X2158D1*
X2267D2*
X2583D1*
X2654D2*
X2955D1*
X3362D2*
X3532D1*
X3713D2*
X3958D1*
X4090D2*
X4269D1*
X4633D2*
X4921D1*
X5276D2*
X5460D1*
X5772D2*
X5928D1*
X6112D2*
X6268D1*
X6367D2*
X6663D1*
X287Y22583D2*
X783D1*
X910D2*
X1477D1*
X1548D2*
X2158D1*
X2262D2*
X2583D1*
X2654D2*
X2962D1*
X3362D2*
X3532D1*
X3705D2*
X3958D1*
X4097D2*
X4269D1*
X4628D2*
X4922D1*
X5276D2*
X5460D1*
X5772D2*
X5928D1*
X6123D2*
X6268D1*
X6367D2*
X6664D1*
X627Y22569D2*
X783D1*
X1109D2*
X1279D1*
X1747D2*
X1931D1*
X2259D2*
X2469D1*
X2739D2*
X2970D1*
X3362D2*
X3532D1*
X3698D2*
X3901D1*
X4104D2*
X4269D1*
X4626D2*
X4925D1*
X5276D2*
X5460D1*
X5772D2*
X5928D1*
X6136D2*
X6211D1*
X6452D2*
X6693D1*
X627Y22555D2*
X783D1*
X1109D2*
X1279D1*
X1747D2*
X1931D1*
X2258D2*
X2455D1*
X2753D2*
X2975D1*
X3362D2*
X3532D1*
X3693D2*
X3891D1*
X4109D2*
X4269D1*
X4624D2*
X4933D1*
X5276D2*
X5460D1*
X5772D2*
X5928D1*
X6151D2*
X6198D1*
X6466D2*
X6697D1*
X627Y22541D2*
X783D1*
X1109D2*
X1279D1*
X1747D2*
X1931D1*
X2228D2*
X2440D1*
X2769D2*
X2978D1*
X3362D2*
X3532D1*
X3690D2*
X3883D1*
X4112D2*
X4269D1*
X4595D2*
X4940D1*
X5276D2*
X5460D1*
X5772D2*
X5928D1*
X6169D2*
X6183D1*
X6482D2*
X6704D1*
X627Y22527D2*
X783D1*
X1109D2*
X1279D1*
X1747D2*
X1931D1*
X2224D2*
X2427D1*
X2786D2*
X3008D1*
X3362D2*
X3532D1*
X3689D2*
X3877D1*
X4113D2*
X4269D1*
X4595D2*
X4751D1*
X4794D2*
X4945D1*
X5276D2*
X5460D1*
X5772D2*
X5928D1*
X6494D2*
X6712D1*
X627Y22512D2*
X783D1*
X1109D2*
X1279D1*
X1747D2*
X1931D1*
X2217D2*
X2418D1*
X2800D2*
X3008D1*
X3362D2*
X3532D1*
X3689D2*
X3875D1*
X4113D2*
X4269D1*
X4594D2*
X4750D1*
X4794D2*
X4948D1*
X5276D2*
X5460D1*
X5771D2*
X5928D1*
X6503D2*
X6717D1*
X627Y22498D2*
X783D1*
X1109D2*
X1279D1*
X1747D2*
X1931D1*
X2210D2*
X2415D1*
X2811D2*
X3008D1*
X3362D2*
X3532D1*
X3689D2*
X3873D1*
X4113D2*
X4269D1*
X4592D2*
X4748D1*
X4794D2*
X4978D1*
X5276D2*
X5460D1*
X5768D2*
X5928D1*
X6537D2*
X6719D1*
X627Y22484D2*
X783D1*
X1109D2*
X1279D1*
X1747D2*
X1931D1*
X2205D2*
X2414D1*
X2819D2*
X3009D1*
X3362D2*
X3532D1*
X3689D2*
X3874D1*
X4113D2*
X4269D1*
X4584D2*
X4740D1*
X4794D2*
X4979D1*
X5276D2*
X5460D1*
X5761D2*
X5928D1*
X6537D2*
X6721D1*
X627Y22470D2*
X783D1*
X1109D2*
X1279D1*
X1747D2*
X1931D1*
X2202D2*
X2384D1*
X2822D2*
X3011D1*
X3362D2*
X3532D1*
X3692D2*
X3876D1*
X4113D2*
X4269D1*
X4577D2*
X4733D1*
X4822D2*
X4982D1*
X5276D2*
X5460D1*
X5753D2*
X5928D1*
X6537D2*
X6750D1*
X627Y22456D2*
X783D1*
X1109D2*
X1279D1*
X1747D2*
X1931D1*
X2201D2*
X2384D1*
X2823D2*
X3019D1*
X3362D2*
X3532D1*
X3699D2*
X3884D1*
X4113D2*
X4269D1*
X4571D2*
X4728D1*
X4823D2*
X4989D1*
X5276D2*
X5460D1*
X5748D2*
X5928D1*
X6538D2*
X6750D1*
X287Y22442D2*
X783D1*
X1109D2*
X1279D1*
X1747D2*
X1931D1*
X2200D2*
X2384D1*
X2823D2*
X3027D1*
X3362D2*
X3532D1*
X3707D2*
X3891D1*
X4114D2*
X4269D1*
X4564D2*
X4725D1*
X4826D2*
X4997D1*
X5276D2*
X5928D1*
X6541D2*
X6750D1*
X287Y22427D2*
X783D1*
X1109D2*
X1279D1*
X1747D2*
X1931D1*
X2200D2*
X2384D1*
X2824D2*
X3032D1*
X3362D2*
X3532D1*
X3712D2*
X3897D1*
X4114D2*
X4269D1*
X4556D2*
X4724D1*
X4833D2*
X5002D1*
X5276D2*
X5928D1*
X6548D2*
X6750D1*
X287Y22413D2*
X783D1*
X1109D2*
X1279D1*
X1747D2*
X1931D1*
X2200D2*
X2384D1*
X2852D2*
X3034D1*
X3362D2*
X3532D1*
X3715D2*
X4269D1*
X4549D2*
X4723D1*
X4841D2*
X5005D1*
X5276D2*
X5928D1*
X6556D2*
X6750D1*
X287Y22399D2*
X783D1*
X1109D2*
X1279D1*
X1747D2*
X1931D1*
X2200D2*
X2384D1*
X2852D2*
X3036D1*
X3362D2*
X3532D1*
X3716D2*
X4269D1*
X4543D2*
X4723D1*
X4846D2*
X5007D1*
X5276D2*
X5928D1*
X6561D2*
X6750D1*
X287Y22385D2*
X783D1*
X1109D2*
X1279D1*
X1747D2*
X1931D1*
X2200D2*
X2384D1*
X2852D2*
X3036D1*
X3362D2*
X3532D1*
X3745D2*
X4269D1*
X4541D2*
X4695D1*
X4849D2*
X5011D1*
X5276D2*
X5928D1*
X6563D2*
X6750D1*
X287Y22371D2*
X783D1*
X1109D2*
X1279D1*
X1747D2*
X1931D1*
X2200D2*
X2384D1*
X2852D2*
X3036D1*
X3362D2*
X3532D1*
X3755D2*
X4269D1*
X4539D2*
X4695D1*
X4850D2*
X5018D1*
X5276D2*
X5928D1*
X6565D2*
X6750D1*
X287Y22357D2*
X783D1*
X1109D2*
X1279D1*
X1747D2*
X1931D1*
X2200D2*
X2384D1*
X2852D2*
X3036D1*
X3362D2*
X3532D1*
X3763D2*
X4269D1*
X4510D2*
X4695D1*
X4850D2*
X5025D1*
X5276D2*
X5928D1*
X6565D2*
X6750D1*
X287Y22342D2*
X783D1*
X1109D2*
X1279D1*
X1747D2*
X1931D1*
X2200D2*
X2384D1*
X2852D2*
X3036D1*
X3362D2*
X3532D1*
X3769D2*
X4269D1*
X4510D2*
X4695D1*
X4850D2*
X5030D1*
X5276D2*
X5928D1*
X6564D2*
X6750D1*
X287Y22328D2*
X783D1*
X1109D2*
X1279D1*
X1747D2*
X1931D1*
X2200D2*
X2384D1*
X2852D2*
X3036D1*
X3362D2*
X3532D1*
X3830D2*
X4269D1*
X4510D2*
X4695D1*
X4879D2*
X5033D1*
X5276D2*
X5928D1*
X6562D2*
X6750D1*
X287Y22314D2*
X783D1*
X1109D2*
X1279D1*
X1747D2*
X1931D1*
X2200D2*
X2384D1*
X2852D2*
X3035D1*
X3362D2*
X3532D1*
X3840D2*
X4269D1*
X4509D2*
X4695D1*
X4879D2*
X5034D1*
X5276D2*
X5928D1*
X6554D2*
X6750D1*
X627Y22300D2*
X783D1*
X1109D2*
X1279D1*
X1747D2*
X1931D1*
X2200D2*
X2384D1*
X2824D2*
X3033D1*
X3362D2*
X3532D1*
X3850D2*
X4269D1*
X4507D2*
X4695D1*
X4879D2*
X5063D1*
X5276D2*
X5460D1*
X5748D2*
X5928D1*
X6547D2*
X6750D1*
X627Y22286D2*
X783D1*
X1109D2*
X1279D1*
X1747D2*
X1931D1*
X2200D2*
X2384D1*
X2824D2*
X3025D1*
X3362D2*
X3532D1*
X3858D2*
X4269D1*
X4499D2*
X4695D1*
X4879D2*
X5064D1*
X5276D2*
X5460D1*
X5755D2*
X5928D1*
X6542D2*
X6750D1*
X627Y22272D2*
X783D1*
X1109D2*
X1279D1*
X1747D2*
X1931D1*
X2200D2*
X2384D1*
X2824D2*
X3018D1*
X3362D2*
X3532D1*
X3841D2*
X4010D1*
X4114D2*
X4269D1*
X4492D2*
X5067D1*
X5276D2*
X5460D1*
X5762D2*
X5928D1*
X6539D2*
X6750D1*
X627Y22257D2*
X783D1*
X1109D2*
X1279D1*
X1747D2*
X1931D1*
X2201D2*
X2384D1*
X2823D2*
X3013D1*
X3362D2*
X3532D1*
X3826D2*
X4003D1*
X4114D2*
X4269D1*
X4487D2*
X5074D1*
X5276D2*
X5460D1*
X5767D2*
X5928D1*
X6538D2*
X6750D1*
X627Y22243D2*
X783D1*
X1109D2*
X1279D1*
X1747D2*
X1931D1*
X2204D2*
X2413D1*
X2820D2*
X3010D1*
X3362D2*
X3532D1*
X3813D2*
X3996D1*
X4114D2*
X4269D1*
X4484D2*
X5082D1*
X5276D2*
X5460D1*
X5770D2*
X5928D1*
X6537D2*
X6721D1*
X627Y22229D2*
X783D1*
X1109D2*
X1279D1*
X1747D2*
X1931D1*
X2211D2*
X2414D1*
X2811D2*
X3009D1*
X3362D2*
X3532D1*
X3807D2*
X3991D1*
X4114D2*
X4269D1*
X4483D2*
X5087D1*
X5276D2*
X5460D1*
X5771D2*
X5928D1*
X6537D2*
X6720D1*
X627Y22215D2*
X783D1*
X1109D2*
X1279D1*
X1747D2*
X1931D1*
X2219D2*
X2416D1*
X2800D2*
X3008D1*
X3391D2*
X3532D1*
X3804D2*
X3988D1*
X4114D2*
X4269D1*
X4454D2*
X5089D1*
X5276D2*
X5460D1*
X5771D2*
X5928D1*
X6509D2*
X6718D1*
X627Y22201D2*
X783D1*
X1109D2*
X1279D1*
X1747D2*
X1931D1*
X2224D2*
X2424D1*
X2789D2*
X3008D1*
X3391D2*
X3532D1*
X3803D2*
X3987D1*
X4114D2*
X4269D1*
X4454D2*
X5091D1*
X5276D2*
X5460D1*
X5772D2*
X5928D1*
X6498D2*
X6710D1*
X627Y22186D2*
X783D1*
X1109D2*
X1279D1*
X1747D2*
X1931D1*
X2226D2*
X2431D1*
X2779D2*
X2980D1*
X3362D2*
X3532D1*
X3773D2*
X3958D1*
X4114D2*
X4269D1*
X4454D2*
X5091D1*
X5276D2*
X5460D1*
X5772D2*
X5928D1*
X6140D2*
X6183D1*
X6486D2*
X6703D1*
X627Y22172D2*
X783D1*
X1109D2*
X1279D1*
X1747D2*
X1931D1*
X2228D2*
X2437D1*
X2772D2*
X2979D1*
X3362D2*
X3532D1*
X3772D2*
X3957D1*
X4114D2*
X4269D1*
X4453D2*
X5091D1*
X5276D2*
X5460D1*
X5772D2*
X5928D1*
X6131D2*
X6183D1*
X6474D2*
X6698D1*
X627Y22158D2*
X783D1*
X1109D2*
X1279D1*
X1747D2*
X1931D1*
X2257D2*
X2498D1*
X2739D2*
X2976D1*
X3391D2*
X3532D1*
X3770D2*
X3954D1*
X4114D2*
X4269D1*
X4450D2*
X5120D1*
X5276D2*
X5460D1*
X5772D2*
X5928D1*
X6122D2*
X6211D1*
X6464D2*
X6695D1*
X627Y22144D2*
X783D1*
X1109D2*
X1279D1*
X1747D2*
X1931D1*
X2258D2*
X2498D1*
X2739D2*
X2968D1*
X3391D2*
X3532D1*
X3762D2*
X3946D1*
X4114D2*
X4269D1*
X4442D2*
X5121D1*
X5276D2*
X5460D1*
X5772D2*
X5928D1*
X6116D2*
X6211D1*
X6457D2*
X6694D1*
X258Y22130D2*
X783D1*
X1109D2*
X1279D1*
X1747D2*
X1931D1*
X2260D2*
X2557D1*
X2680D2*
X2961D1*
X3079D2*
X3532D1*
X3755D2*
X3939D1*
X4114D2*
X4269D1*
X4435D2*
X4638D1*
X4936D2*
X5123D1*
X5276D2*
X5460D1*
X5772D2*
X5928D1*
X6084D2*
X6270D1*
X6393D2*
X6665D1*
X258Y22116D2*
X783D1*
X1109D2*
X1279D1*
X1747D2*
X1931D1*
X2269D2*
X2599D1*
X2638D2*
X2955D1*
X3079D2*
X3532D1*
X3749D2*
X3934D1*
X4114D2*
X4269D1*
X4430D2*
X4638D1*
X4936D2*
X5131D1*
X5276D2*
X5460D1*
X5772D2*
X5928D1*
X6074D2*
X6312D1*
X6351D2*
X6663D1*
X258Y22101D2*
X783D1*
X1109D2*
X1279D1*
X1747D2*
X1931D1*
X2281D2*
X2923D1*
X3079D2*
X3532D1*
X3717D2*
X3931D1*
X4114D2*
X4269D1*
X4427D2*
X4610D1*
X4964D2*
X5138D1*
X5276D2*
X5460D1*
X5772D2*
X5928D1*
X6065D2*
X6660D1*
X258Y22087D2*
X783D1*
X1109D2*
X1279D1*
X1747D2*
X1931D1*
X2297D2*
X2909D1*
X3079D2*
X3532D1*
X3712D2*
X3930D1*
X4114D2*
X4269D1*
X4426D2*
X4605D1*
X4964D2*
X5144D1*
X5276D2*
X5460D1*
X5772D2*
X5928D1*
X6063D2*
X6644D1*
X258Y22073D2*
X783D1*
X1109D2*
X1279D1*
X1747D2*
X1931D1*
X2313D2*
X2893D1*
X3079D2*
X3532D1*
X3705D2*
X3901D1*
X4114D2*
X4269D1*
X4397D2*
X4598D1*
X4965D2*
X5146D1*
X5276D2*
X5460D1*
X5772D2*
X5928D1*
X6068D2*
X6622D1*
X258Y22059D2*
X783D1*
X1109D2*
X1279D1*
X1747D2*
X1931D1*
X2327D2*
X2881D1*
X3079D2*
X3532D1*
X3698D2*
X3897D1*
X4114D2*
X4269D1*
X4393D2*
X4591D1*
X4967D2*
X5147D1*
X5276D2*
X5460D1*
X5772D2*
X5928D1*
X6075D2*
X6599D1*
X258Y22045D2*
X783D1*
X1109D2*
X1279D1*
X1747D2*
X1931D1*
X2336D2*
X2872D1*
X3079D2*
X3532D1*
X3692D2*
X3889D1*
X4114D2*
X4269D1*
X4386D2*
X4586D1*
X4975D2*
X5148D1*
X5276D2*
X5460D1*
X5772D2*
X5928D1*
X6080D2*
X6579D1*
X258Y22031D2*
X783D1*
X1109D2*
X1279D1*
X1747D2*
X1931D1*
X2399D2*
X2838D1*
X3079D2*
X3532D1*
X3660D2*
X3882D1*
X4114D2*
X4269D1*
X4378D2*
X4583D1*
X4983D2*
X5176D1*
X5276D2*
X5460D1*
X5772D2*
X5928D1*
X6112D2*
X6563D1*
X258Y22016D2*
X783D1*
X1109D2*
X1279D1*
X1747D2*
X1931D1*
X2399D2*
X2838D1*
X3079D2*
X3532D1*
X3660D2*
X3877D1*
X4114D2*
X4269D1*
X4373D2*
X4582D1*
X4988D2*
X5176D1*
X5276D2*
X5460D1*
X5772D2*
X5928D1*
X6112D2*
X6557D1*
X258Y22002D2*
X783D1*
X1137D2*
X1279D1*
X1747D2*
X1931D1*
X2455D2*
X2781D1*
X3079D2*
X3532D1*
X3660D2*
X3874D1*
X4114D2*
X4269D1*
X4370D2*
X4553D1*
X4990D2*
X5176D1*
X5276D2*
X5460D1*
X5772D2*
X5928D1*
X6169D2*
X6495D1*
X258Y21988D2*
X783D1*
X1137D2*
X1279D1*
X1747D2*
X1931D1*
X2455D2*
X2781D1*
X3079D2*
X3532D1*
X3660D2*
X3873D1*
X4114D2*
X4269D1*
X4369D2*
X4553D1*
X4992D2*
X5176D1*
X5276D2*
X5460D1*
X5772D2*
X5928D1*
X6169D2*
X6495D1*
X2569Y21974D2*
X2639D1*
X6282D2*
X6381D1*
X2569Y21960D2*
X2639D1*
X6282D2*
X6381D1*
X3079Y21832D2*
X3093D1*
X3745D2*
X3759D1*
X4397D2*
X4411D1*
X3078Y21818D2*
X3103D1*
X3745D2*
X3759D1*
X4396D2*
X4411D1*
X3075Y21804D2*
X3111D1*
X3717D2*
X3759D1*
X4394D2*
X4439D1*
X3068Y21790D2*
X3117D1*
X3707D2*
X3759D1*
X4385D2*
X4441D1*
X3060Y21775D2*
X3119D1*
X3699D2*
X3788D1*
X4374D2*
X4443D1*
X3055Y21761D2*
X3121D1*
X3693D2*
X3789D1*
X4362D2*
X4451D1*
X3053Y21747D2*
X3150D1*
X3690D2*
X3791D1*
X4352D2*
X4458D1*
X3051Y21733D2*
X3151D1*
X3689D2*
X3799D1*
X4346D2*
X4464D1*
X3022Y21719D2*
X3153D1*
X3689D2*
X3806D1*
X4343D2*
X4471D1*
X3021Y21705D2*
X3161D1*
X3688D2*
X3811D1*
X4341D2*
X4479D1*
X400Y21690D2*
X443D1*
X599D2*
X669D1*
X3019D2*
X3168D1*
X3660D2*
X3814D1*
X4312D2*
X4486D1*
X6084D2*
X6183D1*
X400Y21676D2*
X443D1*
X599D2*
X669D1*
X3011D2*
X3173D1*
X3650D2*
X3815D1*
X4311D2*
X4491D1*
X6084D2*
X6183D1*
X343Y21662D2*
X443D1*
X599D2*
X698D1*
X3003D2*
X3176D1*
X3642D2*
X3844D1*
X4308D2*
X4494D1*
X6084D2*
X6183D1*
X333Y21648D2*
X443D1*
X599D2*
X707D1*
X2997D2*
X3177D1*
X3636D2*
X3845D1*
X4301D2*
X4495D1*
X6084D2*
X6183D1*
X319Y21634D2*
X443D1*
X599D2*
X716D1*
X2990D2*
X3206D1*
X3633D2*
X3848D1*
X4293D2*
X4525D1*
X6084D2*
X6183D1*
X304Y21620D2*
X443D1*
X599D2*
X722D1*
X2978D2*
X3211D1*
X3628D2*
X3856D1*
X4288D2*
X4529D1*
X6084D2*
X6183D1*
X287Y21605D2*
X443D1*
X599D2*
X783D1*
X2964D2*
X3218D1*
X3620D2*
X3864D1*
X4285D2*
X4536D1*
X6084D2*
X6183D1*
X273Y21591D2*
X443D1*
X599D2*
X787D1*
X2951D2*
X3225D1*
X3613D2*
X3873D1*
X4255D2*
X4543D1*
X6084D2*
X6183D1*
X264Y21577D2*
X443D1*
X599D2*
X794D1*
X2942D2*
X3231D1*
X3608D2*
X3882D1*
X4254D2*
X4548D1*
X6084D2*
X6183D1*
X257Y21563D2*
X443D1*
X599D2*
X802D1*
X2939D2*
X3065D1*
X3112D2*
X3237D1*
X3605D2*
X3726D1*
X3773D2*
X3891D1*
X4252D2*
X4383D1*
X4430D2*
X4551D1*
X6084D2*
X6183D1*
X6339D2*
X6438D1*
X248Y21549D2*
X443D1*
X599D2*
X807D1*
X2937D2*
X3064D1*
X3119D2*
X3245D1*
X3604D2*
X3719D1*
X3773D2*
X3896D1*
X4244D2*
X4383D1*
X4437D2*
X4552D1*
X6084D2*
X6183D1*
X6339D2*
X6438D1*
X240Y21535D2*
X443D1*
X599D2*
X809D1*
X2933D2*
X3061D1*
X3126D2*
X3253D1*
X3575D2*
X3712D1*
X3773D2*
X3899D1*
X4237D2*
X4383D1*
X4444D2*
X4581D1*
X6084D2*
X6183D1*
X6339D2*
X6438D1*
X235Y21520D2*
X443D1*
X599D2*
X810D1*
X2926D2*
X3053D1*
X3132D2*
X3258D1*
X3574D2*
X3707D1*
X3773D2*
X3900D1*
X4232D2*
X4383D1*
X4449D2*
X4582D1*
X6084D2*
X6183D1*
X6339D2*
X6438D1*
X232Y21506D2*
X443D1*
X599D2*
X839D1*
X2918D2*
X3046D1*
X3138D2*
X3261D1*
X3571D2*
X3704D1*
X3802D2*
X3929D1*
X4229D2*
X4354D1*
X4452D2*
X4585D1*
X6084D2*
X6183D1*
X6339D2*
X6438D1*
X231Y21492D2*
X443D1*
X599D2*
X839D1*
X2913D2*
X3040D1*
X3146D2*
X3262D1*
X3564D2*
X3703D1*
X3803D2*
X3930D1*
X4228D2*
X4353D1*
X4453D2*
X4592D1*
X6084D2*
X6183D1*
X6339D2*
X6438D1*
X230Y21478D2*
X443D1*
X599D2*
X839D1*
X2911D2*
X3034D1*
X3154D2*
X3291D1*
X3556D2*
X3674D1*
X3805D2*
X3933D1*
X4199D2*
X4351D1*
X4482D2*
X4600D1*
X6084D2*
X6183D1*
X6339D2*
X6438D1*
X6594D2*
X6693D1*
X230Y21464D2*
X443D1*
X599D2*
X839D1*
X2910D2*
X3026D1*
X3159D2*
X3293D1*
X3551D2*
X3673D1*
X3813D2*
X3940D1*
X4197D2*
X4343D1*
X4483D2*
X4605D1*
X6084D2*
X6183D1*
X6339D2*
X6438D1*
X6594D2*
X6693D1*
X882Y21449D2*
X2639D1*
X2880D2*
X3018D1*
X3162D2*
X3295D1*
X3518D2*
X3671D1*
X3820D2*
X3948D1*
X4195D2*
X4336D1*
X4485D2*
X6183D1*
X6339D2*
X6438D1*
X6565D2*
X6693D1*
X882Y21435D2*
X2639D1*
X2871D2*
X3013D1*
X3163D2*
X3303D1*
X3517D2*
X3663D1*
X3827D2*
X3953D1*
X4187D2*
X4331D1*
X4493D2*
X6183D1*
X6339D2*
X6438D1*
X6565D2*
X6693D1*
X854Y21421D2*
X2639D1*
X2862D2*
X3010D1*
X3192D2*
X3310D1*
X3515D2*
X3655D1*
X3833D2*
X3956D1*
X4180D2*
X4328D1*
X4501D2*
X6183D1*
X6339D2*
X6438D1*
X6565D2*
X6693D1*
X854Y21407D2*
X2639D1*
X2857D2*
X3009D1*
X3193D2*
X3315D1*
X3507D2*
X3650D1*
X3841D2*
X3957D1*
X4174D2*
X4327D1*
X4506D2*
X6183D1*
X6339D2*
X6438D1*
X6565D2*
X6693D1*
X882Y21393D2*
X2668D1*
X2854D2*
X2980D1*
X3196D2*
X3318D1*
X3499D2*
X3648D1*
X3849D2*
X3986D1*
X4167D2*
X4298D1*
X4508D2*
X6183D1*
X6339D2*
X6438D1*
X6565D2*
X6693D1*
X882Y21379D2*
X2669D1*
X2853D2*
X2979D1*
X3203D2*
X3319D1*
X3494D2*
X3647D1*
X3854D2*
X3987D1*
X4159D2*
X4297D1*
X4510D2*
X6183D1*
X6339D2*
X6438D1*
X6565D2*
X6693D1*
X882Y21364D2*
X2671D1*
X2824D2*
X2976D1*
X3211D2*
X3348D1*
X3490D2*
X3617D1*
X3856D2*
X3989D1*
X4152D2*
X4294D1*
X4510D2*
X6183D1*
X6339D2*
X6438D1*
X6565D2*
X6693D1*
X882Y21350D2*
X2679D1*
X2824D2*
X2968D1*
X3216D2*
X3349D1*
X3485D2*
X3616D1*
X3858D2*
X3997D1*
X4147D2*
X4285D1*
X4510D2*
X6183D1*
X6339D2*
X6438D1*
X6565D2*
X6693D1*
X2569Y21336D2*
X2687D1*
X2824D2*
X2961D1*
X3219D2*
X3352D1*
X3481D2*
X3614D1*
X3887D2*
X4005D1*
X4144D2*
X4274D1*
X6084D2*
X6183D1*
X6339D2*
X6438D1*
X6565D2*
X6693D1*
X2570Y21322D2*
X2693D1*
X2823D2*
X2956D1*
X3220D2*
X3359D1*
X3477D2*
X3606D1*
X3888D2*
X4010D1*
X4143D2*
X4263D1*
X6084D2*
X6183D1*
X6339D2*
X6438D1*
X6565D2*
X6693D1*
X230Y21308D2*
X443D1*
X599D2*
X839D1*
X2572D2*
X2699D1*
X2820D2*
X2953D1*
X3249D2*
X3367D1*
X3472D2*
X3599D1*
X3890D2*
X4012D1*
X4114D2*
X4253D1*
X6084D2*
X6183D1*
X6339D2*
X6438D1*
X230Y21294D2*
X443D1*
X599D2*
X839D1*
X2580D2*
X2707D1*
X2813D2*
X2952D1*
X3250D2*
X3372D1*
X3465D2*
X3594D1*
X3898D2*
X4014D1*
X4114D2*
X4246D1*
X6084D2*
X6183D1*
X6339D2*
X6438D1*
X230Y21279D2*
X443D1*
X599D2*
X811D1*
X2587D2*
X2715D1*
X2805D2*
X2923D1*
X3252D2*
X3374D1*
X3457D2*
X3591D1*
X3905D2*
X4043D1*
X4113D2*
X4243D1*
X6084D2*
X6183D1*
X6339D2*
X6438D1*
X231Y21265D2*
X443D1*
X599D2*
X810D1*
X2593D2*
X2722D1*
X2798D2*
X2922D1*
X3260D2*
X3376D1*
X3451D2*
X3590D1*
X3910D2*
X4044D1*
X4113D2*
X4242D1*
X6084D2*
X6183D1*
X6339D2*
X6438D1*
X233Y21251D2*
X443D1*
X599D2*
X808D1*
X2600D2*
X2731D1*
X2789D2*
X2920D1*
X3268D2*
X3405D1*
X3444D2*
X3561D1*
X3913D2*
X4050D1*
X4106D2*
X4213D1*
X6084D2*
X6183D1*
X6339D2*
X6438D1*
X241Y21237D2*
X443D1*
X599D2*
X800D1*
X2608D2*
X2754D1*
X2766D2*
X2912D1*
X3273D2*
X3418D1*
X3433D2*
X3560D1*
X3914D2*
X4072D1*
X4084D2*
X4213D1*
X6084D2*
X6183D1*
X6339D2*
X6438D1*
X249Y21223D2*
X443D1*
X599D2*
X792D1*
X2615D2*
X2904D1*
X3275D2*
X3557D1*
X3943D2*
X4213D1*
X6084D2*
X6183D1*
X254Y21209D2*
X443D1*
X599D2*
X786D1*
X2621D2*
X2898D1*
X3277D2*
X3549D1*
X3945D2*
X4212D1*
X6084D2*
X6183D1*
X287Y21194D2*
X443D1*
X599D2*
X779D1*
X2623D2*
X2892D1*
X3306D2*
X3541D1*
X3947D2*
X4209D1*
X6084D2*
X6183D1*
X301Y21180D2*
X443D1*
X599D2*
X767D1*
X2625D2*
X2884D1*
X3310D2*
X3532D1*
X3955D2*
X4202D1*
X6084D2*
X6183D1*
X316Y21166D2*
X443D1*
X599D2*
X753D1*
X2654D2*
X2876D1*
X3317D2*
X3523D1*
X3963D2*
X4194D1*
X6084D2*
X6183D1*
X329Y21152D2*
X443D1*
X599D2*
X740D1*
X2658D2*
X2871D1*
X3324D2*
X3514D1*
X3972D2*
X4189D1*
X6084D2*
X6183D1*
X337Y21138D2*
X443D1*
X599D2*
X732D1*
X2665D2*
X2868D1*
X3330D2*
X3509D1*
X3981D2*
X4186D1*
X6084D2*
X6183D1*
X400Y21123D2*
X443D1*
X599D2*
X669D1*
X2672D2*
X2838D1*
X3337D2*
X3506D1*
X3990D2*
X4156D1*
X6084D2*
X6183D1*
X400Y21109D2*
X443D1*
X599D2*
X669D1*
X2677D2*
X2837D1*
X3345D2*
X3505D1*
X3995D2*
X4146D1*
X6084D2*
X6183D1*
X2680Y21095D2*
X2834D1*
X3352D2*
X3476D1*
X3998D2*
X4138D1*
X6084D2*
X6183D1*
X2681Y21081D2*
X2827D1*
X3358D2*
X3475D1*
X3999D2*
X4133D1*
X6084D2*
X6183D1*
X2710Y21067D2*
X2819D1*
X3360D2*
X3473D1*
X4028D2*
X4130D1*
X2711Y21053D2*
X2814D1*
X3362D2*
X3469D1*
X4030D2*
X4128D1*
X2714Y21038D2*
X2812D1*
X3391D2*
X3462D1*
X4032D2*
X4099D1*
X2722Y21024D2*
X2810D1*
X3392D2*
X3452D1*
X4040D2*
X4099D1*
X2729Y21010D2*
X2781D1*
X3394D2*
X3444D1*
X4047D2*
X4099D1*
X2734Y20996D2*
X2781D1*
X3402D2*
X3438D1*
X4052D2*
X4099D1*
X2737Y20982D2*
X2781D1*
X3411D2*
X3435D1*
X4055D2*
X4099D1*
X2739Y20968D2*
X2781D1*
X3419D2*
X3433D1*
X4057D2*
X4099D1*
X3575Y26864D2*
Y26849D1*
Y26835D1*
X3603D1*
Y26821D1*
Y26807D1*
Y26793D1*
Y26779D1*
Y26764D1*
Y26750D1*
X3604Y26736D1*
X3607Y26722D1*
X3614Y26708D1*
X3622Y26694D1*
X3628Y26679D1*
X3634Y26665D1*
X3642Y26651D1*
X3650Y26637D1*
X3655Y26623D1*
X3658Y26609D1*
X3659Y26594D1*
X3660Y26580D1*
Y26566D1*
X3688D1*
Y26552D1*
Y26538D1*
Y26523D1*
Y26509D1*
Y26495D1*
Y26481D1*
Y26467D1*
Y26453D1*
X3660D1*
Y26438D1*
Y26424D1*
X3518D1*
Y26410D1*
Y26396D1*
X3419D1*
Y26382D1*
X3306Y26368D1*
X3617Y26864D2*
Y26849D1*
Y26835D1*
X3702D1*
Y26821D1*
Y26807D1*
X3759D1*
Y26793D1*
Y26779D1*
X3816D1*
Y26764D1*
Y26750D1*
X3844D1*
Y26736D1*
Y26722D1*
X3901D1*
Y26708D1*
Y26694D1*
X3929D1*
X3940Y26679D1*
X3953Y26665D1*
X3969Y26651D1*
X3986Y26637D1*
X4001Y26623D1*
X4008Y26609D1*
X4012Y26594D1*
X4013Y26580D1*
X4014Y26566D1*
X4043D1*
X4052Y26552D1*
X4061Y26538D1*
X4066Y26523D1*
X4069Y26509D1*
X4071Y26495D1*
X4075Y26481D1*
X4082Y26467D1*
X4090Y26453D1*
X4095Y26438D1*
X4097Y26424D1*
X4099Y26410D1*
Y26396D1*
Y26382D1*
Y26368D1*
Y26353D1*
Y26339D1*
X4098Y26325D1*
X4096Y26311D1*
X4088Y26297D1*
X4081Y26283D1*
X4076Y26268D1*
X4073Y26254D1*
X4071Y26240D1*
X4067Y26226D1*
X4060Y26212D1*
X4052Y26198D1*
X4047Y26183D1*
X4044Y26169D1*
X4043Y26155D1*
X4014D1*
X4005Y26141D1*
X3996Y26127D1*
X3991Y26112D1*
X3988Y26098D1*
X3987Y26084D1*
X3986Y26070D1*
X3958D1*
X3948Y26056D1*
X3939Y26042D1*
X3934Y26027D1*
X3929Y26013D1*
X3901D1*
X3891Y25999D1*
X3883Y25985D1*
X3876Y25971D1*
X3870Y25957D1*
X3862Y25942D1*
X3854Y25928D1*
X3848Y25914D1*
X3844Y25900D1*
X3816D1*
X3815Y25886D1*
X3812Y25872D1*
X3805Y25857D1*
X3797Y25843D1*
X3792Y25829D1*
X3790Y25815D1*
X3788Y25801D1*
Y25786D1*
X3759D1*
Y25772D1*
X3758Y25758D1*
X3756Y25744D1*
X3748Y25730D1*
X3740Y25716D1*
X3735Y25701D1*
X3733Y25687D1*
X3732Y25673D1*
X3731Y25659D1*
Y25645D1*
Y25631D1*
X3730Y25616D1*
X3727Y25602D1*
X3720Y25588D1*
X3712Y25574D1*
X3707Y25560D1*
X3704Y25546D1*
X3703Y25531D1*
Y25517D1*
Y25503D1*
Y25489D1*
X3702Y25475D1*
X3788Y25460D1*
X3164Y26750D2*
X3153Y26736D1*
X3141Y26722D1*
X3129Y26708D1*
X3119Y26694D1*
X3113Y26679D1*
X3109Y26665D1*
X3108Y26651D1*
X3107Y26637D1*
X3079D1*
X3074Y26623D1*
X3067Y26609D1*
X3060Y26594D1*
X3055Y26580D1*
X3053Y26566D1*
X3051Y26552D1*
Y26538D1*
Y26523D1*
Y26509D1*
X3022D1*
Y26495D1*
Y26481D1*
Y26467D1*
Y26453D1*
Y26438D1*
Y26424D1*
X3021Y26410D1*
X3019Y26396D1*
X3011Y26382D1*
X3003Y26368D1*
X2998Y26353D1*
X2996Y26339D1*
X2995Y26325D1*
X2994Y26311D1*
Y26297D1*
Y26283D1*
Y26268D1*
Y26254D1*
X2993Y26240D1*
X2990Y26226D1*
X2983Y26212D1*
X2975Y26198D1*
X2970Y26183D1*
X2967Y26169D1*
X2966Y26155D1*
Y26141D1*
Y26127D1*
Y26112D1*
X2965Y26098D1*
X2937D1*
Y26084D1*
Y26070D1*
Y26056D1*
Y26042D1*
Y26027D1*
Y26013D1*
Y25999D1*
Y25985D1*
Y25971D1*
Y25957D1*
X3079D1*
Y25942D1*
Y25928D1*
X3107D1*
X3108Y25914D1*
X3111Y25900D1*
X3119Y25886D1*
X3131Y25872D1*
X3142Y25857D1*
X3152Y25843D1*
X3158Y25829D1*
X3162Y25815D1*
X3163Y25801D1*
X3164Y25786D1*
X3192D1*
X3202Y25772D1*
X3210Y25758D1*
X3216Y25744D1*
X3219Y25730D1*
X3221Y25716D1*
X3249D1*
Y25701D1*
Y25687D1*
X3250Y25673D1*
X3252Y25659D1*
X3260Y25645D1*
X3268Y25631D1*
X3273Y25616D1*
X3275Y25602D1*
X3276Y25588D1*
X3277Y25574D1*
Y25560D1*
Y25546D1*
Y25531D1*
Y25517D1*
Y25503D1*
Y25489D1*
X3306D1*
Y25475D1*
X3221Y25460D1*
X3178Y26750D2*
Y26736D1*
Y26722D1*
Y26708D1*
Y26694D1*
Y26679D1*
Y26665D1*
X3206D1*
X3207Y26651D1*
X3208Y26637D1*
X3210Y26623D1*
X3218Y26609D1*
X3225Y26594D1*
X3230Y26580D1*
X3233Y26566D1*
X3235Y26552D1*
X3239Y26538D1*
X3246Y26523D1*
X3254Y26509D1*
X3258Y26495D1*
X3261Y26481D1*
X3262Y26467D1*
X3263Y26453D1*
Y26438D1*
Y26424D1*
Y26410D1*
Y26396D1*
X3291D1*
Y26382D1*
X3405Y26368D1*
X2710Y25574D2*
Y25560D1*
Y25546D1*
X2597D1*
Y25531D1*
Y25517D1*
X2512D1*
Y25503D1*
Y25489D1*
X2455D1*
Y25475D1*
Y25460D1*
X2427D1*
Y25446D1*
Y25432D1*
X2370D1*
Y25418D1*
Y25404D1*
X2342D1*
X2332Y25390D1*
X2324Y25375D1*
X2318Y25361D1*
X2314Y25347D1*
X2257D1*
Y25333D1*
Y25319D1*
X2228D1*
X2219Y25305D1*
X2209Y25290D1*
X2200Y25276D1*
X2188Y25262D1*
X2171Y25248D1*
X2146Y25234D1*
X2115Y25220D1*
X2895Y25574D2*
Y25560D1*
Y25546D1*
X3036D1*
Y25531D1*
Y25517D1*
X3121D1*
Y25503D1*
Y25489D1*
X3206D1*
Y25475D1*
X3291Y25460D1*
X4114Y25574D2*
Y25560D1*
Y25546D1*
X4298Y25574D2*
Y25560D1*
Y25546D1*
X4411D1*
Y25531D1*
Y25517D1*
X4468D1*
Y25503D1*
Y25489D1*
X4525D1*
Y25475D1*
Y25460D1*
X4581D1*
X4591Y25446D1*
X4599Y25432D1*
X4605Y25418D1*
X4610Y25404D1*
X4666D1*
X4676Y25390D1*
X4684Y25375D1*
X4690Y25361D1*
X4695Y25347D1*
X4723D1*
X4733Y25333D1*
X4741Y25319D1*
X4747Y25305D1*
X4751Y25290D1*
X4780D1*
X4794Y25276D1*
X4810Y25262D1*
X4828Y25248D1*
X4846Y25234D1*
X4865Y25220D1*
X3943Y25546D2*
Y25531D1*
Y25517D1*
X3858D1*
Y25503D1*
Y25489D1*
X3802D1*
Y25475D1*
X3717Y25460D1*
X1491Y25262D2*
X1378Y25248D1*
Y25234D1*
Y25220D1*
X1321D1*
Y25205D1*
Y25191D1*
X1279D1*
Y25177D1*
Y25163D1*
X1222D1*
X1212Y25149D1*
X1204Y25135D1*
X1198Y25120D1*
X1194Y25106D1*
X1165D1*
X1156Y25092D1*
X1147Y25078D1*
X1142Y25064D1*
X1139Y25049D1*
X1138Y25035D1*
X1137Y25021D1*
X1109D1*
X1099Y25007D1*
X1091Y24993D1*
X1085Y24979D1*
X1083Y24964D1*
X1081Y24950D1*
Y24936D1*
Y24922D1*
X1080Y24908D1*
X1052D1*
Y24894D1*
Y24879D1*
Y24865D1*
Y24851D1*
Y24837D1*
Y24823D1*
Y24809D1*
Y24794D1*
Y24780D1*
Y24766D1*
Y24752D1*
Y24738D1*
Y24723D1*
Y24709D1*
Y24695D1*
Y24681D1*
Y24667D1*
Y24653D1*
Y24638D1*
Y24624D1*
Y24610D1*
Y24596D1*
Y24582D1*
Y24568D1*
Y24553D1*
Y24539D1*
Y24525D1*
X1080D1*
Y24511D1*
X1081Y24497D1*
X1082Y24483D1*
X1084Y24468D1*
X1092Y24454D1*
X1099Y24440D1*
X1104Y24426D1*
X1107Y24412D1*
X1108Y24398D1*
X1109Y24383D1*
X1137D1*
X1142Y24369D1*
X1149Y24355D1*
X1156Y24341D1*
X1161Y24327D1*
X1163Y24312D1*
X1165Y24298D1*
Y24284D1*
X1194D1*
X1195Y24270D1*
X1197Y24256D1*
X1205Y24242D1*
X1213Y24227D1*
X1219Y24213D1*
X1225Y24199D1*
X1233Y24185D1*
X1241Y24171D1*
X1246Y24157D1*
X1248Y24142D1*
X1250Y24128D1*
X1251Y24114D1*
X1279D1*
Y24100D1*
X1281Y24086D1*
X1286Y24072D1*
X1293Y24057D1*
X1302Y24043D1*
X1311Y24029D1*
X1317Y24015D1*
X1324Y24001D1*
X1332Y23986D1*
X1340Y23972D1*
X1345Y23958D1*
X1350Y23944D1*
X1378D1*
X1382Y23930D1*
X1389Y23916D1*
X1397Y23901D1*
X1402Y23887D1*
X1406Y23873D1*
X1435D1*
X1444Y23859D1*
X1453Y23845D1*
X1459Y23831D1*
X1466Y23816D1*
X1474Y23802D1*
X1482Y23788D1*
X1487Y23774D1*
X1491Y23760D1*
X1520D1*
X1529Y23746D1*
X1538Y23731D1*
X1543Y23717D1*
X1546Y23703D1*
X1547Y23689D1*
X1548Y23675D1*
X1576D1*
X1586Y23660D1*
X1595Y23646D1*
X1601Y23632D1*
X1605Y23618D1*
X1633D1*
X1643Y23604D1*
X1653Y23590D1*
X1662Y23575D1*
X1959Y25262D2*
X2044Y25248D1*
X2105Y25234D1*
X2158Y25220D1*
X5049Y25262D2*
Y25248D1*
X5517Y25262D2*
X5602Y25248D1*
Y25234D1*
Y25220D1*
X5673D1*
Y25205D1*
Y25191D1*
X5729D1*
Y25177D1*
Y25163D1*
X5758D1*
X5767Y25149D1*
X5776Y25135D1*
X5782Y25120D1*
X5786Y25106D1*
X5814D1*
X5825Y25092D1*
X5837Y25078D1*
X5849Y25064D1*
X5859Y25049D1*
X5866Y25035D1*
X5871Y25021D1*
X5899D1*
X5900Y25007D1*
X5903Y24993D1*
X5911Y24979D1*
X5918Y24964D1*
X5923Y24950D1*
X5926Y24936D1*
X5927Y24922D1*
Y24908D1*
X5928Y24894D1*
Y24879D1*
X5956D1*
Y24865D1*
Y24851D1*
Y24837D1*
Y24823D1*
Y24809D1*
Y24794D1*
Y24780D1*
Y24766D1*
Y24752D1*
Y24738D1*
Y24723D1*
Y24709D1*
Y24695D1*
Y24681D1*
Y24667D1*
Y24653D1*
Y24638D1*
Y24624D1*
Y24610D1*
Y24596D1*
Y24582D1*
X5928D1*
Y24568D1*
Y24553D1*
X5927Y24539D1*
X5924Y24525D1*
X5916Y24511D1*
X5909Y24497D1*
X5904Y24483D1*
X5901Y24468D1*
X5900Y24454D1*
Y24440D1*
X5899Y24426D1*
Y24412D1*
X5871D1*
Y24398D1*
X5870Y24383D1*
X5868Y24369D1*
X5860Y24355D1*
X5852Y24341D1*
X5846Y24327D1*
X5840Y24312D1*
X5832Y24298D1*
X5824Y24284D1*
X5819Y24270D1*
X5816Y24256D1*
X5815Y24242D1*
X5814Y24227D1*
X5786D1*
X5776Y24213D1*
X5768Y24199D1*
X5762Y24185D1*
X5760Y24171D1*
X5758Y24157D1*
Y24142D1*
X5729D1*
X5728Y24128D1*
X5726Y24114D1*
X5718Y24100D1*
X5711Y24086D1*
X5706Y24072D1*
X5703Y24057D1*
X5702Y24043D1*
X5701Y24029D1*
X5673D1*
X5668Y24015D1*
X5663Y24001D1*
X5661Y23986D1*
X5659Y23972D1*
Y23958D1*
X5658Y23944D1*
X5630D1*
X5620Y23930D1*
X5612Y23916D1*
X5607Y23901D1*
X5604Y23887D1*
X5602Y23873D1*
X5573D1*
X5563Y23859D1*
X5551Y23845D1*
X5538Y23831D1*
X5528Y23816D1*
X5522Y23802D1*
X5519Y23788D1*
X5517Y23774D1*
Y23760D1*
X5488D1*
X5479Y23746D1*
X5470Y23731D1*
X5464Y23717D1*
X5460Y23703D1*
X5432D1*
X5421Y23689D1*
X5409Y23675D1*
X5397Y23660D1*
X5387Y23646D1*
X5380Y23632D1*
X5377Y23618D1*
X5376Y23604D1*
X5375Y23590D1*
X5347D1*
Y23575D1*
X4879Y25248D2*
X4866Y25234D1*
X4851Y25220D1*
X2668Y25177D2*
Y25163D1*
Y25149D1*
Y25135D1*
X2611D1*
Y25120D1*
Y25106D1*
X2554D1*
Y25092D1*
Y25078D1*
X2526D1*
X2515Y25064D1*
X2503Y25049D1*
X2491Y25035D1*
X2481Y25021D1*
X2475Y25007D1*
X2472Y24993D1*
X2470Y24979D1*
X2469Y24964D1*
X2441D1*
X2440Y24950D1*
X2438Y24936D1*
X2430Y24922D1*
X2422Y24908D1*
X2417Y24894D1*
X2415Y24879D1*
X2414Y24865D1*
X2413Y24851D1*
Y24837D1*
Y24823D1*
X2384D1*
Y24809D1*
Y24794D1*
Y24780D1*
Y24766D1*
Y24752D1*
Y24738D1*
Y24723D1*
Y24709D1*
Y24695D1*
Y24681D1*
Y24667D1*
X2413D1*
Y24653D1*
Y24638D1*
X2414Y24624D1*
X2416Y24610D1*
X2424Y24596D1*
X2431Y24582D1*
X2436Y24568D1*
X2439Y24553D1*
X2440Y24539D1*
X2441Y24525D1*
Y24511D1*
Y24497D1*
X2469D1*
Y24483D1*
X2470Y24468D1*
X2471Y24454D1*
X2473Y24440D1*
X2482Y24426D1*
X2493Y24412D1*
X2505Y24398D1*
X2515Y24383D1*
X2521Y24369D1*
X2524Y24355D1*
X2526Y24341D1*
X2554D1*
X2556Y24327D1*
X2558Y24312D1*
X2566Y24298D1*
X2573Y24284D1*
X2578Y24270D1*
X2581Y24256D1*
X2582Y24242D1*
X2583Y24227D1*
X2611D1*
X2621Y24213D1*
X2629Y24199D1*
X2635Y24185D1*
X2637Y24171D1*
X2639Y24157D1*
Y24142D1*
X2668D1*
X2679Y24128D1*
X2691Y24114D1*
X2703Y24100D1*
X2713Y24086D1*
X2719Y24072D1*
X2722Y24057D1*
X2724Y24043D1*
X2725Y24029D1*
X2753D1*
X2763Y24015D1*
X2771Y24001D1*
X2777Y23986D1*
X2781Y23972D1*
X2810D1*
X2811Y23958D1*
X2813Y23944D1*
X2825Y23930D1*
X2841Y23916D1*
X2857Y23901D1*
X2872Y23887D1*
X2887Y23873D1*
X2900Y23859D1*
X2911Y23845D1*
X2917Y23831D1*
X2921Y23816D1*
X2922Y23802D1*
X2923Y23788D1*
X2951D1*
X2961Y23774D1*
X2970Y23760D1*
X2975Y23746D1*
X2980Y23731D1*
X3008D1*
X3019Y23717D1*
X3031Y23703D1*
X3043Y23689D1*
X3053Y23675D1*
X3060Y23660D1*
X3065Y23646D1*
X3093D1*
X3103Y23632D1*
X3111Y23618D1*
X3117Y23604D1*
X3119Y23590D1*
X3121Y23575D1*
X2880Y25177D2*
Y25163D1*
Y25149D1*
Y25135D1*
X2965D1*
Y25120D1*
Y25106D1*
X3022D1*
Y25092D1*
Y25078D1*
X3051D1*
Y25064D1*
Y25049D1*
X3107D1*
X3118Y25035D1*
X3130Y25021D1*
X3142Y25007D1*
X3152Y24993D1*
X3159Y24979D1*
X3164Y24964D1*
X3192D1*
X3202Y24950D1*
X3210Y24936D1*
X3216Y24922D1*
X3221Y24908D1*
X3249D1*
X3259Y24894D1*
X3267Y24879D1*
X3272Y24865D1*
X3275Y24851D1*
X3276Y24837D1*
X3277Y24823D1*
Y24809D1*
Y24794D1*
Y24780D1*
Y24766D1*
Y24752D1*
Y24738D1*
Y24723D1*
Y24709D1*
Y24695D1*
Y24681D1*
Y24667D1*
Y24653D1*
Y24638D1*
Y24624D1*
Y24610D1*
Y24596D1*
Y24582D1*
Y24568D1*
Y24553D1*
Y24539D1*
Y24525D1*
Y24511D1*
Y24497D1*
Y24483D1*
Y24468D1*
Y24454D1*
Y24440D1*
Y24426D1*
Y24412D1*
Y24398D1*
Y24383D1*
Y24369D1*
Y24355D1*
Y24341D1*
Y24327D1*
Y24312D1*
Y24298D1*
Y24284D1*
Y24270D1*
Y24256D1*
Y24242D1*
Y24227D1*
Y24213D1*
Y24199D1*
Y24185D1*
Y24171D1*
Y24157D1*
Y24142D1*
Y24128D1*
Y24114D1*
Y24100D1*
Y24086D1*
Y24072D1*
Y24057D1*
Y24043D1*
Y24029D1*
Y24015D1*
Y24001D1*
Y23986D1*
Y23972D1*
Y23958D1*
Y23944D1*
Y23930D1*
Y23916D1*
Y23901D1*
Y23887D1*
Y23873D1*
Y23859D1*
Y23845D1*
Y23831D1*
Y23816D1*
Y23802D1*
Y23788D1*
Y23774D1*
Y23760D1*
Y23746D1*
Y23731D1*
Y23717D1*
Y23703D1*
Y23689D1*
Y23675D1*
Y23660D1*
Y23646D1*
Y23632D1*
Y23618D1*
Y23604D1*
Y23590D1*
Y23575D1*
X4099Y25177D2*
Y25163D1*
Y25149D1*
Y25135D1*
X4014D1*
X4005Y25120D1*
X3996Y25106D1*
X3990Y25092D1*
X3986Y25078D1*
X3929D1*
Y25064D1*
Y25049D1*
X3901D1*
X3891Y25035D1*
X3883Y25021D1*
X3877Y25007D1*
X3873Y24993D1*
X3816D1*
X3806Y24979D1*
X3798Y24964D1*
X3792Y24950D1*
X3790Y24936D1*
X3788Y24922D1*
Y24908D1*
X3759D1*
X3749Y24894D1*
X3741Y24879D1*
X3736Y24865D1*
X3733Y24851D1*
X3732Y24837D1*
X3731Y24823D1*
Y24809D1*
Y24794D1*
Y24780D1*
Y24766D1*
Y24752D1*
Y24738D1*
Y24723D1*
Y24709D1*
Y24695D1*
Y24681D1*
Y24667D1*
Y24653D1*
Y24638D1*
Y24624D1*
Y24610D1*
Y24596D1*
Y24582D1*
Y24568D1*
Y24553D1*
Y24539D1*
Y24525D1*
Y24511D1*
Y24497D1*
Y24483D1*
Y24468D1*
Y24454D1*
Y24440D1*
Y24426D1*
Y24412D1*
Y24398D1*
Y24383D1*
Y24369D1*
Y24355D1*
Y24341D1*
Y24327D1*
Y24312D1*
Y24298D1*
Y24284D1*
Y24270D1*
Y24256D1*
Y24242D1*
Y24227D1*
Y24213D1*
Y24199D1*
Y24185D1*
Y24171D1*
Y24157D1*
Y24142D1*
Y24128D1*
Y24114D1*
Y24100D1*
Y24086D1*
Y24072D1*
Y24057D1*
Y24043D1*
Y24029D1*
Y24015D1*
Y24001D1*
Y23986D1*
Y23972D1*
Y23958D1*
Y23944D1*
Y23930D1*
Y23916D1*
Y23901D1*
Y23887D1*
Y23873D1*
Y23859D1*
Y23845D1*
Y23831D1*
Y23816D1*
Y23802D1*
Y23788D1*
Y23774D1*
Y23760D1*
Y23746D1*
Y23731D1*
Y23717D1*
Y23703D1*
Y23689D1*
Y23675D1*
Y23660D1*
Y23646D1*
Y23632D1*
Y23618D1*
Y23604D1*
Y23590D1*
Y23575D1*
X4312Y25177D2*
Y25163D1*
Y25149D1*
Y25135D1*
X4397D1*
Y25120D1*
Y25106D1*
X4454D1*
Y25092D1*
Y25078D1*
X4482D1*
X4492Y25064D1*
X4500Y25049D1*
X4506Y25035D1*
X4508Y25021D1*
X4510Y25007D1*
Y24993D1*
X4539D1*
X4548Y24979D1*
X4557Y24964D1*
X4562Y24950D1*
X4565Y24936D1*
X4567Y24922D1*
X4571Y24908D1*
X4578Y24894D1*
X4586Y24879D1*
X4591Y24865D1*
X4593Y24851D1*
X4595Y24837D1*
Y24823D1*
Y24809D1*
Y24794D1*
Y24780D1*
Y24766D1*
Y24752D1*
Y24738D1*
Y24723D1*
Y24709D1*
Y24695D1*
Y24681D1*
Y24667D1*
X4594Y24653D1*
X4592Y24638D1*
X4584Y24624D1*
X4577Y24610D1*
X4572Y24596D1*
X4569Y24582D1*
X4567Y24568D1*
X4563Y24553D1*
X4556Y24539D1*
X4548Y24525D1*
X4543Y24511D1*
X4541Y24497D1*
X4539Y24483D1*
Y24468D1*
Y24454D1*
Y24440D1*
X4510D1*
X4509Y24426D1*
X4507Y24412D1*
X4499Y24398D1*
X4492Y24383D1*
X4486Y24369D1*
X4482Y24355D1*
X4454D1*
X4449Y24341D1*
X4442Y24327D1*
X4435Y24312D1*
X4430Y24298D1*
X4427Y24284D1*
X4426Y24270D1*
X4425Y24256D1*
X4397D1*
X4387Y24242D1*
X4379Y24227D1*
X4372Y24213D1*
X4366Y24199D1*
X4358Y24185D1*
X4350Y24171D1*
X4344Y24157D1*
X4340Y24142D1*
X4312D1*
X4311Y24128D1*
X4308Y24114D1*
X4301Y24100D1*
X4293Y24086D1*
X4288Y24072D1*
X4284Y24057D1*
X4255D1*
X4254Y24043D1*
X4252Y24029D1*
X4244Y24015D1*
X4236Y24001D1*
X4231Y23986D1*
X4227Y23972D1*
X4199D1*
X4188Y23958D1*
X4176Y23944D1*
X4164Y23930D1*
X4153Y23916D1*
X4147Y23901D1*
X4144Y23887D1*
X4142Y23873D1*
X4114D1*
X4104Y23859D1*
X4095Y23845D1*
X4089Y23831D1*
X4085Y23816D1*
X4057D1*
X4047Y23802D1*
X4039Y23788D1*
X4033Y23774D1*
X4028Y23760D1*
X4000D1*
X3999Y23746D1*
X3997Y23731D1*
X3988Y23717D1*
X3977Y23703D1*
X3965Y23689D1*
X3955Y23675D1*
X3948Y23660D1*
X3943Y23646D1*
X3915D1*
X3905Y23632D1*
X3897Y23618D1*
X3892Y23604D1*
X3889Y23590D1*
X3887Y23575D1*
X1817Y24894D2*
Y24879D1*
Y24865D1*
Y24851D1*
X1676D1*
X1662Y24837D1*
X1646Y24823D1*
X1633Y24809D1*
X1625Y24794D1*
X1619Y24780D1*
X1591D1*
X1581Y24766D1*
X1572Y24752D1*
X1566Y24738D1*
X1560Y24723D1*
X1552Y24709D1*
X1544Y24695D1*
X1539Y24681D1*
X1536Y24667D1*
X1535Y24653D1*
X1534Y24638D1*
Y24624D1*
Y24610D1*
X1535Y24596D1*
X1537Y24582D1*
X1545Y24568D1*
X1553Y24553D1*
X1558Y24539D1*
X1560Y24525D1*
X1562Y24511D1*
Y24497D1*
X1563Y24483D1*
X1567Y24468D1*
X1574Y24454D1*
X1581Y24440D1*
X1586Y24426D1*
X1589Y24412D1*
X1590Y24398D1*
X1591Y24383D1*
X1619D1*
X1623Y24369D1*
X1630Y24355D1*
X1638Y24341D1*
X1643Y24327D1*
X1647Y24312D1*
X1676D1*
X1677Y24298D1*
X1679Y24284D1*
X1687Y24270D1*
X1694Y24256D1*
X1699Y24242D1*
X1702Y24227D1*
X1703Y24213D1*
X1704Y24199D1*
X1732D1*
X1742Y24185D1*
X1751Y24171D1*
X1757Y24157D1*
X1763Y24142D1*
X1771Y24128D1*
X1779Y24114D1*
X1785Y24100D1*
X1789Y24086D1*
X1817D1*
X1819Y24072D1*
X1821Y24057D1*
X1829Y24043D1*
X1836Y24029D1*
X1842Y24015D1*
X1846Y24001D1*
X1874D1*
X1884Y23986D1*
X1892Y23972D1*
X1899Y23958D1*
X1906Y23944D1*
X1918Y23930D1*
X1934Y23916D1*
X1950Y23901D1*
X1964Y23887D1*
X1975Y23873D1*
X1982Y23859D1*
X1985Y23845D1*
X1987Y23831D1*
X1988Y23816D1*
X2016D1*
X2026Y23802D1*
X2034Y23788D1*
X2040Y23774D1*
X2044Y23760D1*
X2073D1*
X2082Y23746D1*
X2091Y23731D1*
X2097Y23717D1*
X2101Y23703D1*
X2129D1*
X2130Y23689D1*
X2133Y23675D1*
X2142Y23660D1*
X2153Y23646D1*
X2164Y23632D1*
X2174Y23618D1*
X2181Y23604D1*
X2184Y23590D1*
X2186Y23575D1*
X1973Y24894D2*
Y24879D1*
Y24865D1*
Y24851D1*
X1945D1*
Y24837D1*
Y24823D1*
Y24809D1*
Y24794D1*
Y24780D1*
Y24766D1*
Y24752D1*
Y24738D1*
Y24723D1*
Y24709D1*
Y24695D1*
Y24681D1*
Y24667D1*
Y24653D1*
Y24638D1*
Y24624D1*
Y24610D1*
Y24596D1*
Y24582D1*
Y24568D1*
Y24553D1*
X1973D1*
Y24539D1*
Y24525D1*
X1974Y24511D1*
X1977Y24497D1*
X1985Y24483D1*
X1992Y24468D1*
X1997Y24454D1*
X2000Y24440D1*
X2001Y24426D1*
X2002Y24412D1*
X2030D1*
Y24398D1*
X2031Y24383D1*
X2033Y24369D1*
X2041Y24355D1*
X2049Y24341D1*
X2055Y24327D1*
X2061Y24312D1*
X2069Y24298D1*
X2077Y24284D1*
X2082Y24270D1*
X2085Y24256D1*
X2086Y24242D1*
X2087Y24227D1*
X2115D1*
X2116Y24213D1*
X2119Y24199D1*
X2126Y24185D1*
X2134Y24171D1*
X2139Y24157D1*
X2141Y24142D1*
X2143Y24128D1*
Y24114D1*
X2172D1*
X2173Y24100D1*
X2175Y24086D1*
X2184Y24072D1*
X2195Y24057D1*
X2207Y24043D1*
X2217Y24029D1*
X2223Y24015D1*
X2226Y24001D1*
X2228Y23986D1*
Y23972D1*
X2257D1*
X2258Y23958D1*
X2261Y23944D1*
X2273Y23930D1*
X2287Y23916D1*
X2299Y23901D1*
X2308Y23887D1*
X2315Y23873D1*
X2324Y23859D1*
X2332Y23845D1*
X2338Y23831D1*
X2342Y23816D1*
X2370D1*
X2371Y23802D1*
X2374Y23788D1*
X2382Y23774D1*
X2394Y23760D1*
X2405Y23746D1*
X2415Y23731D1*
X2421Y23717D1*
X2425Y23703D1*
X2426Y23689D1*
X2427Y23675D1*
X2455D1*
X2465Y23660D1*
X2473Y23646D1*
X2479Y23632D1*
X2482Y23618D1*
X2483Y23604D1*
X2484Y23590D1*
X2512D1*
Y23575D1*
X5035Y24894D2*
Y24879D1*
Y24865D1*
Y24851D1*
Y24837D1*
Y24823D1*
Y24809D1*
X5063D1*
Y24794D1*
Y24780D1*
Y24766D1*
Y24752D1*
Y24738D1*
Y24723D1*
Y24709D1*
Y24695D1*
Y24681D1*
Y24667D1*
Y24653D1*
Y24638D1*
Y24624D1*
Y24610D1*
X5035D1*
Y24596D1*
Y24582D1*
X5034Y24568D1*
X5031Y24553D1*
X5024Y24539D1*
X5016Y24525D1*
X5011Y24511D1*
X5008Y24497D1*
X5006Y24483D1*
X5002Y24468D1*
X4995Y24454D1*
X4988Y24440D1*
X4983Y24426D1*
X4980Y24412D1*
X4979Y24398D1*
X4978Y24383D1*
Y24369D1*
Y24355D1*
X4950D1*
X4945Y24341D1*
X4938Y24327D1*
X4931Y24312D1*
X4926Y24298D1*
X4923Y24284D1*
X4922Y24270D1*
X4921Y24256D1*
X4893D1*
X4892Y24242D1*
X4890Y24227D1*
X4882Y24213D1*
X4874Y24199D1*
X4869Y24185D1*
X4867Y24171D1*
X4865Y24157D1*
Y24142D1*
X4836D1*
X4835Y24128D1*
X4833Y24114D1*
X4825Y24100D1*
X4818Y24086D1*
X4812Y24072D1*
X4805Y24057D1*
X4797Y24043D1*
X4789Y24029D1*
X4784Y24015D1*
X4780Y24001D1*
X4751D1*
X4750Y23986D1*
X4748Y23972D1*
X4740Y23958D1*
X4733Y23944D1*
X4728Y23930D1*
X4725Y23916D1*
X4723Y23901D1*
X4695D1*
X4685Y23887D1*
X4676Y23873D1*
X4670Y23859D1*
X4664Y23845D1*
X4656Y23831D1*
X4648Y23816D1*
X4642Y23802D1*
X4638Y23788D1*
X4610D1*
X4608Y23774D1*
X4606Y23760D1*
X4598Y23746D1*
X4591Y23731D1*
X4585Y23717D1*
X4581Y23703D1*
X4553D1*
X4552Y23689D1*
X4549Y23675D1*
X4542Y23660D1*
X4534Y23646D1*
X4529Y23632D1*
X4525Y23618D1*
X4496D1*
Y23604D1*
Y23590D1*
Y23575D1*
X5191Y24894D2*
Y24879D1*
Y24865D1*
Y24851D1*
X5260D1*
X5309Y24837D1*
X5345Y24823D1*
X5371Y24809D1*
X5381Y24794D1*
X5389Y24780D1*
X5417D1*
X5419Y24766D1*
X5421Y24752D1*
X5429Y24738D1*
X5436Y24723D1*
X5441Y24709D1*
X5444Y24695D1*
X5446Y24681D1*
X5450Y24667D1*
X5457Y24653D1*
X5464Y24638D1*
X5470Y24624D1*
X5469Y24610D1*
X5462Y24596D1*
X5455Y24582D1*
X5450Y24568D1*
X5448Y24553D1*
X5447Y24539D1*
X5446Y24525D1*
X5445Y24511D1*
X5441Y24497D1*
X5434Y24483D1*
X5427Y24468D1*
X5422Y24454D1*
X5419Y24440D1*
X5418Y24426D1*
X5417Y24412D1*
X5389D1*
X5388Y24398D1*
X5386Y24383D1*
X5378Y24369D1*
X5370Y24355D1*
X5365Y24341D1*
X5363Y24327D1*
X5361Y24312D1*
X5332D1*
X5323Y24298D1*
X5314Y24284D1*
X5308Y24270D1*
X5301Y24256D1*
X5293Y24242D1*
X5286Y24227D1*
X5280Y24213D1*
X5278Y24199D1*
X5276Y24185D1*
Y24171D1*
X5247D1*
X5238Y24157D1*
X5229Y24142D1*
X5224Y24128D1*
X5221Y24114D1*
X5220Y24100D1*
X5219Y24086D1*
X5191D1*
X5181Y24072D1*
X5173Y24057D1*
X5167Y24043D1*
X5164Y24029D1*
X5163Y24015D1*
X5162Y24001D1*
X5134D1*
X5123Y23986D1*
X5111Y23972D1*
X5099Y23958D1*
X5089Y23944D1*
X5082Y23930D1*
X5077Y23916D1*
X5049D1*
X5045Y23901D1*
X5038Y23887D1*
X5030Y23873D1*
X5025Y23859D1*
X5021Y23845D1*
X4992D1*
X4983Y23831D1*
X4974Y23816D1*
X4969Y23802D1*
X4966Y23788D1*
X4965Y23774D1*
X4964Y23760D1*
X4936D1*
X4925Y23746D1*
X4913Y23731D1*
X4901Y23717D1*
X4890Y23703D1*
X4884Y23689D1*
X4879Y23675D1*
X4851D1*
X4841Y23660D1*
X4832Y23646D1*
X4827Y23632D1*
X4824Y23618D1*
X4823Y23604D1*
X4822Y23590D1*
X4794D1*
Y23575D1*
X967Y23476D2*
Y23462D1*
X917Y23448D1*
X881Y23434D1*
X856Y23420D1*
X839Y23405D1*
X825Y23391D1*
X840Y23377D1*
X854Y23363D1*
X1123Y23476D2*
Y23462D1*
X1172Y23448D1*
X1210Y23434D1*
X1225Y23420D1*
X1236Y23405D1*
X1279D1*
X1289Y23391D1*
X1297Y23377D1*
X1302Y23363D1*
X1305Y23349D1*
X1306Y23335D1*
X1307Y23320D1*
X1336D1*
X1337Y23306D1*
X1339Y23292D1*
X1347Y23278D1*
X1354Y23264D1*
X1359Y23249D1*
X1362Y23235D1*
X1363Y23221D1*
X1364Y23207D1*
Y23193D1*
Y23179D1*
Y23164D1*
Y23150D1*
Y23136D1*
Y23122D1*
Y23108D1*
Y23094D1*
Y23079D1*
Y23065D1*
X1363Y23051D1*
X1360Y23037D1*
X1353Y23023D1*
X1345Y23009D1*
X1340Y22994D1*
X1337Y22980D1*
X1336Y22966D1*
X1307D1*
X1306Y22952D1*
X1304Y22938D1*
X1296Y22923D1*
X1288Y22909D1*
X1283Y22895D1*
X1279Y22881D1*
X1236D1*
Y22867D1*
Y22853D1*
X1180D1*
Y22838D1*
Y22824D1*
X1123D1*
Y22810D1*
X2739Y23476D2*
X2720Y23462D1*
X2698Y23448D1*
X2678Y23434D1*
X2663Y23420D1*
X2657Y23405D1*
X2654Y23391D1*
X2895Y23476D2*
X2918Y23462D1*
X2942Y23448D1*
X2963Y23434D1*
X2972Y23420D1*
X2980Y23405D1*
X3008D1*
X3018Y23391D1*
X3026Y23377D1*
X3031Y23363D1*
X3034Y23349D1*
X3036Y23335D1*
Y23320D1*
Y23306D1*
Y23292D1*
X3035Y23278D1*
X3033Y23264D1*
X3025Y23249D1*
X3018Y23235D1*
X3012Y23221D1*
X3008Y23207D1*
X2980D1*
X2970Y23193D1*
X2961Y23179D1*
X2956Y23164D1*
X2951Y23150D1*
X2895D1*
Y23136D1*
Y23122D1*
X2810D1*
Y23108D1*
Y23094D1*
X2753D1*
Y23079D1*
Y23065D1*
X2725D1*
X2715Y23051D1*
X2706Y23037D1*
X2701Y23023D1*
X2698Y23009D1*
X2697Y22994D1*
X2696Y22980D1*
Y22966D1*
X2697Y22952D1*
X2700Y22938D1*
X2707Y22923D1*
X2715Y22909D1*
X2720Y22895D1*
X2725Y22881D1*
X2781D1*
Y22867D1*
X2895Y22853D1*
X5021Y23476D2*
Y23462D1*
X4971Y23448D1*
X4934Y23434D1*
X4910Y23420D1*
X4891Y23405D1*
X4885Y23391D1*
X4881Y23377D1*
X4879Y23363D1*
X5176Y23476D2*
Y23462D1*
X5225Y23448D1*
X5264Y23434D1*
X5279Y23420D1*
X5290Y23405D1*
X5318D1*
X5328Y23391D1*
X5336Y23377D1*
X5342Y23363D1*
X5347Y23349D1*
X5375D1*
X5385Y23335D1*
X5393Y23320D1*
X5398Y23306D1*
X5401Y23292D1*
X5404Y23278D1*
X5408Y23264D1*
X5415Y23249D1*
X5422Y23235D1*
X5427Y23221D1*
X5430Y23207D1*
X5431Y23193D1*
Y23179D1*
X5432Y23164D1*
Y23150D1*
Y23136D1*
X5431Y23122D1*
Y23108D1*
X5428Y23094D1*
X5420Y23079D1*
X5413Y23065D1*
X5408Y23051D1*
X5405Y23037D1*
X5404Y23023D1*
X5402Y23009D1*
X5399Y22994D1*
X5392Y22980D1*
X5384Y22966D1*
X5379Y22952D1*
X5375Y22938D1*
X5347D1*
X5337Y22923D1*
X5328Y22909D1*
X5323Y22895D1*
X5318Y22881D1*
X5290D1*
Y22867D1*
Y22853D1*
X5233D1*
Y22838D1*
Y22824D1*
X5148D1*
Y22810D1*
X258Y23448D2*
X273Y23434D1*
X287Y23420D1*
X669Y23448D2*
Y23434D1*
Y23420D1*
Y23405D1*
Y23391D1*
Y23377D1*
Y23363D1*
Y23349D1*
Y23335D1*
Y23320D1*
Y23306D1*
Y23292D1*
Y23278D1*
Y23264D1*
Y23249D1*
Y23235D1*
Y23221D1*
Y23207D1*
Y23193D1*
Y23179D1*
Y23164D1*
Y23150D1*
Y23136D1*
Y23122D1*
Y23108D1*
Y23094D1*
Y23079D1*
Y23065D1*
Y23051D1*
Y23037D1*
Y23023D1*
Y23009D1*
Y22994D1*
Y22980D1*
Y22966D1*
Y22952D1*
Y22938D1*
Y22923D1*
Y22909D1*
Y22895D1*
Y22881D1*
Y22867D1*
Y22853D1*
Y22838D1*
X1718Y23448D2*
X1705Y23434D1*
X1696Y23420D1*
X1688Y23405D1*
X1680Y23391D1*
X1672Y23377D1*
X1666Y23363D1*
X1663Y23349D1*
X1661Y23335D1*
X1657Y23320D1*
X1650Y23306D1*
X1643Y23292D1*
X1638Y23278D1*
X1635Y23264D1*
X1634Y23249D1*
X1633Y23235D1*
X1605D1*
X1604Y23221D1*
X1601Y23207D1*
X1594Y23193D1*
X1586Y23179D1*
X1581Y23164D1*
X1578Y23150D1*
X1577Y23136D1*
Y23122D1*
Y23108D1*
X1576Y23094D1*
X1548D1*
X1547Y23079D1*
X1545Y23065D1*
X1537Y23051D1*
X1529Y23037D1*
X1524Y23023D1*
X1522Y23009D1*
X1521Y22994D1*
X1520Y22980D1*
X1491D1*
Y22966D1*
X1490Y22952D1*
X1488Y22938D1*
X1480Y22923D1*
X1473Y22909D1*
X1467Y22895D1*
X1460Y22881D1*
X1452Y22867D1*
X1443Y22853D1*
X1435Y22838D1*
X1789Y23448D2*
Y23434D1*
Y23420D1*
Y23405D1*
X1817D1*
X1819Y23391D1*
X1821Y23377D1*
X1829Y23363D1*
X1836Y23349D1*
X1841Y23335D1*
X1844Y23320D1*
X1845Y23306D1*
Y23292D1*
X1846Y23278D1*
Y23264D1*
X1874D1*
X1875Y23249D1*
X1878Y23235D1*
X1885Y23221D1*
X1893Y23207D1*
X1898Y23193D1*
X1900Y23179D1*
X1902Y23164D1*
Y23150D1*
Y23136D1*
Y23122D1*
X1931D1*
X1932Y23108D1*
X1934Y23094D1*
X1942Y23079D1*
X1950Y23065D1*
X1956Y23051D1*
X1962Y23037D1*
X1970Y23023D1*
X1978Y23009D1*
X1983Y22994D1*
X1985Y22980D1*
X1987Y22966D1*
Y22952D1*
X1988Y22938D1*
X2016D1*
X2017Y22923D1*
X2019Y22909D1*
X2027Y22895D1*
X2035Y22881D1*
X2040Y22867D1*
X2042Y22853D1*
X2044Y22838D1*
X2172Y23448D2*
X2154Y23434D1*
X2139Y23420D1*
X2128Y23405D1*
X2120Y23391D1*
X2115Y23377D1*
X2087D1*
Y23363D1*
Y23349D1*
Y23335D1*
Y23320D1*
Y23306D1*
Y23292D1*
Y23278D1*
Y23264D1*
Y23249D1*
Y23235D1*
Y23221D1*
Y23207D1*
X2115D1*
X2125Y23193D1*
X2133Y23179D1*
X2139Y23164D1*
X2143Y23150D1*
X2200D1*
Y23136D1*
X2469Y23448D2*
Y23434D1*
Y23420D1*
Y23405D1*
Y23391D1*
Y23377D1*
Y23363D1*
Y23349D1*
Y23335D1*
Y23320D1*
Y23306D1*
Y23292D1*
Y23278D1*
Y23264D1*
Y23249D1*
Y23235D1*
Y23221D1*
Y23207D1*
Y23193D1*
Y23179D1*
Y23164D1*
Y23150D1*
Y23136D1*
Y23122D1*
Y23108D1*
Y23094D1*
Y23079D1*
Y23065D1*
Y23051D1*
Y23037D1*
Y23023D1*
Y23009D1*
Y22994D1*
Y22980D1*
Y22966D1*
Y22952D1*
Y22938D1*
Y22923D1*
Y22909D1*
Y22895D1*
Y22881D1*
Y22867D1*
Y22853D1*
Y22838D1*
X3277Y23448D2*
X3247Y23434D1*
X3223Y23420D1*
X3205Y23405D1*
X3198Y23391D1*
X3192Y23377D1*
X3164D1*
Y23363D1*
Y23349D1*
Y23335D1*
Y23320D1*
Y23306D1*
Y23292D1*
Y23278D1*
Y23264D1*
Y23249D1*
Y23235D1*
X3192D1*
Y23221D1*
Y23207D1*
Y23193D1*
Y23179D1*
X3249D1*
X3259Y23164D1*
X3267Y23150D1*
X3273Y23136D1*
X3277Y23122D1*
X3334D1*
X3324Y23108D1*
X3316Y23094D1*
X3310Y23079D1*
X3308Y23065D1*
X3306Y23051D1*
Y23037D1*
X3277D1*
X3268Y23023D1*
X3259Y23009D1*
X3254Y22994D1*
X3251Y22980D1*
X3249Y22966D1*
X3221D1*
X3211Y22952D1*
X3202Y22938D1*
X3197Y22923D1*
X3194Y22909D1*
X3193Y22895D1*
X3192Y22881D1*
X3164D1*
Y22867D1*
Y22853D1*
Y22838D1*
X3561Y23448D2*
Y23434D1*
Y23420D1*
Y23405D1*
Y23391D1*
Y23377D1*
Y23363D1*
Y23349D1*
Y23335D1*
Y23320D1*
Y23306D1*
Y23292D1*
Y23278D1*
Y23264D1*
Y23249D1*
Y23235D1*
Y23221D1*
Y23207D1*
Y23193D1*
Y23179D1*
Y23164D1*
Y23150D1*
Y23136D1*
Y23122D1*
Y23108D1*
Y23094D1*
Y23079D1*
Y23065D1*
Y23051D1*
Y23037D1*
Y23023D1*
Y23009D1*
Y22994D1*
Y22980D1*
Y22966D1*
Y22952D1*
Y22938D1*
Y22923D1*
Y22909D1*
Y22895D1*
Y22881D1*
Y22867D1*
Y22853D1*
Y22838D1*
X3717Y23448D2*
Y23434D1*
Y23420D1*
X4128Y23448D2*
Y23434D1*
Y23420D1*
Y23405D1*
Y23391D1*
Y23377D1*
Y23363D1*
Y23349D1*
Y23335D1*
Y23320D1*
Y23306D1*
Y23292D1*
Y23278D1*
Y23264D1*
Y23249D1*
Y23235D1*
Y23221D1*
Y23207D1*
Y23193D1*
Y23179D1*
Y23164D1*
Y23150D1*
Y23136D1*
Y23122D1*
Y23108D1*
Y23094D1*
Y23079D1*
Y23065D1*
Y23051D1*
Y23037D1*
Y23023D1*
Y23009D1*
Y22994D1*
Y22980D1*
Y22966D1*
Y22952D1*
Y22938D1*
Y22923D1*
Y22909D1*
Y22895D1*
Y22881D1*
Y22867D1*
Y22853D1*
Y22838D1*
X4284Y23448D2*
X4297Y23434D1*
X4306Y23420D1*
X4312Y23405D1*
X4340D1*
X4351Y23391D1*
X4363Y23377D1*
X4375Y23363D1*
X4385Y23349D1*
X4392Y23335D1*
X4397Y23320D1*
X4425D1*
X4435Y23306D1*
X4444Y23292D1*
X4449Y23278D1*
X4454Y23264D1*
X4510D1*
Y23249D1*
Y23235D1*
X4539D1*
X4548Y23221D1*
X4557Y23207D1*
X4563Y23193D1*
X4562Y23179D1*
X4555Y23164D1*
X4548Y23150D1*
X4543Y23136D1*
X4539Y23122D1*
X4510D1*
X4501Y23108D1*
X4492Y23094D1*
X4486Y23079D1*
X4482Y23065D1*
X4454D1*
X4444Y23051D1*
X4435Y23037D1*
X4430Y23023D1*
X4425Y23009D1*
X4397D1*
X4387Y22994D1*
X4378Y22980D1*
X4369Y22966D1*
X4359Y22952D1*
X4351Y22938D1*
X4345Y22923D1*
X4340Y22909D1*
X4312D1*
X4302Y22895D1*
X4294Y22881D1*
X4288Y22867D1*
X4284Y22853D1*
X4255D1*
Y22838D1*
X4354Y23448D2*
X4372Y23434D1*
X4387Y23420D1*
X4399Y23405D1*
X4406Y23391D1*
X4411Y23377D1*
X4439D1*
X4450Y23363D1*
X4462Y23349D1*
X4475Y23335D1*
X4485Y23320D1*
X4491Y23306D1*
X4496Y23292D1*
X4525D1*
X4534Y23278D1*
X4543Y23264D1*
X4549Y23249D1*
X4553Y23235D1*
X4581D1*
X4592Y23221D1*
X4605Y23207D1*
X4620Y23193D1*
X4638Y23179D1*
X4652Y23448D2*
Y23434D1*
Y23420D1*
Y23405D1*
Y23391D1*
Y23377D1*
Y23363D1*
Y23349D1*
Y23335D1*
Y23320D1*
Y23306D1*
Y23292D1*
Y23278D1*
Y23264D1*
Y23249D1*
Y23235D1*
X4651Y23221D1*
X4648Y23207D1*
X4637Y23193D1*
X4624Y23179D1*
X4723Y23448D2*
Y23434D1*
Y23420D1*
Y23405D1*
Y23391D1*
Y23377D1*
Y23363D1*
Y23349D1*
Y23335D1*
Y23320D1*
Y23306D1*
Y23292D1*
Y23278D1*
Y23264D1*
Y23249D1*
Y23235D1*
Y23221D1*
Y23207D1*
Y23193D1*
Y23179D1*
Y23164D1*
Y23150D1*
Y23136D1*
Y23122D1*
Y23108D1*
Y23094D1*
Y23079D1*
Y23065D1*
Y23051D1*
Y23037D1*
Y23023D1*
Y23009D1*
Y22994D1*
Y22980D1*
Y22966D1*
Y22952D1*
Y22938D1*
Y22923D1*
Y22909D1*
Y22895D1*
Y22881D1*
Y22867D1*
Y22853D1*
Y22838D1*
X5743Y23448D2*
Y23434D1*
X5742Y23420D1*
X5740Y23405D1*
X5732Y23391D1*
X5725Y23377D1*
X5720Y23363D1*
X5717Y23349D1*
X5716Y23335D1*
X5715Y23320D1*
X5687D1*
X5686Y23306D1*
X5684Y23292D1*
X5681Y23278D1*
X5677Y23264D1*
X5675Y23249D1*
X5673Y23235D1*
X5672Y23221D1*
X5668Y23207D1*
X5661Y23193D1*
X5654Y23179D1*
X5648Y23164D1*
X5641Y23150D1*
X5633Y23136D1*
X5626Y23122D1*
X5621Y23108D1*
X5618Y23094D1*
X5617Y23079D1*
X5616Y23065D1*
X5588D1*
Y23051D1*
X5587Y23037D1*
X5586Y23023D1*
X5584Y23009D1*
X5576Y22994D1*
X5569Y22980D1*
X5564Y22966D1*
X5561Y22952D1*
X5559Y22938D1*
X5531D1*
X5530Y22923D1*
X5527Y22909D1*
X5520Y22895D1*
X5512Y22881D1*
X5507Y22867D1*
X5504Y22853D1*
X5502Y22838D1*
X5814Y23448D2*
X5827Y23434D1*
X5837Y23420D1*
X5844Y23405D1*
X5853Y23391D1*
X5861Y23377D1*
X5866Y23363D1*
X5869Y23349D1*
X5870Y23335D1*
X5871Y23320D1*
Y23306D1*
Y23292D1*
X5899D1*
X5900Y23278D1*
X5903Y23264D1*
X5911Y23249D1*
X5918Y23235D1*
X5923Y23221D1*
X5926Y23207D1*
X5927Y23193D1*
X5928Y23179D1*
X5956D1*
X5957Y23164D1*
X5959Y23150D1*
X5967Y23136D1*
X5975Y23122D1*
X5980Y23108D1*
X5982Y23094D1*
X5984Y23079D1*
Y23065D1*
Y23051D1*
Y23037D1*
X6013D1*
X6014Y23023D1*
X6016Y23009D1*
X6024Y22994D1*
X6033Y22980D1*
X6041Y22966D1*
X6051Y22952D1*
X6059Y22938D1*
X6064Y22923D1*
X6067Y22909D1*
X6069Y22895D1*
Y22881D1*
X6098D1*
Y22867D1*
Y22853D1*
Y22838D1*
X6225Y23448D2*
Y23434D1*
Y23420D1*
Y23405D1*
Y23391D1*
Y23377D1*
Y23363D1*
Y23349D1*
Y23335D1*
Y23320D1*
Y23306D1*
Y23292D1*
Y23278D1*
Y23264D1*
Y23249D1*
Y23235D1*
Y23221D1*
Y23207D1*
Y23193D1*
Y23179D1*
Y23164D1*
Y23150D1*
Y23136D1*
Y23122D1*
Y23108D1*
Y23094D1*
Y23079D1*
Y23065D1*
Y23051D1*
Y23037D1*
Y23023D1*
Y23009D1*
Y22994D1*
Y22980D1*
Y22966D1*
Y22952D1*
Y22938D1*
Y22923D1*
Y22909D1*
Y22895D1*
Y22881D1*
Y22867D1*
Y22853D1*
Y22838D1*
X6268Y23448D2*
Y23434D1*
Y23420D1*
Y23405D1*
Y23391D1*
Y23377D1*
Y23363D1*
Y23349D1*
Y23335D1*
Y23320D1*
Y23306D1*
Y23292D1*
Y23278D1*
Y23264D1*
Y23249D1*
Y23235D1*
Y23221D1*
Y23207D1*
Y23193D1*
Y23179D1*
X6651Y23448D2*
Y23434D1*
Y23420D1*
Y23405D1*
Y23391D1*
Y23377D1*
Y23363D1*
Y23349D1*
Y23335D1*
Y23320D1*
Y23306D1*
Y23292D1*
Y23278D1*
Y23264D1*
Y23249D1*
Y23235D1*
Y23221D1*
Y23207D1*
Y23193D1*
Y23179D1*
X6693Y23448D2*
Y23434D1*
Y23420D1*
Y23405D1*
Y23391D1*
Y23377D1*
Y23363D1*
Y23349D1*
Y23335D1*
Y23320D1*
Y23306D1*
Y23292D1*
Y23278D1*
Y23264D1*
Y23249D1*
Y23235D1*
Y23221D1*
Y23207D1*
Y23193D1*
Y23179D1*
Y23164D1*
Y23150D1*
Y23136D1*
Y23122D1*
Y23108D1*
Y23094D1*
Y23079D1*
Y23065D1*
Y23051D1*
Y23037D1*
Y23023D1*
Y23009D1*
Y22994D1*
Y22980D1*
Y22966D1*
Y22952D1*
Y22938D1*
Y22923D1*
Y22909D1*
Y22895D1*
Y22881D1*
Y22867D1*
Y22853D1*
Y22838D1*
X953Y23448D2*
Y23434D1*
Y23420D1*
Y23405D1*
X896D1*
Y23391D1*
Y23377D1*
X868D1*
Y23363D1*
X1137Y23448D2*
Y23434D1*
Y23420D1*
Y23405D1*
X1194D1*
Y23391D1*
Y23377D1*
X1251D1*
Y23363D1*
Y23349D1*
X1279D1*
Y23335D1*
X1281Y23320D1*
X1285Y23306D1*
X1288Y23292D1*
X1292Y23278D1*
X1297Y23264D1*
X1304Y23249D1*
X1312Y23235D1*
X1317Y23221D1*
X1319Y23207D1*
X1321Y23193D1*
Y23179D1*
Y23164D1*
Y23150D1*
Y23136D1*
Y23122D1*
X1320Y23108D1*
X1318Y23094D1*
X1310Y23079D1*
X1303Y23065D1*
X1298Y23051D1*
X1295Y23037D1*
X1293Y23023D1*
X1290Y23009D1*
X1284Y22994D1*
X1271Y22980D1*
X1258Y22966D1*
X1244Y22952D1*
X1229Y22938D1*
X1216Y22923D1*
X1206Y22909D1*
X1199Y22895D1*
X1194Y22881D1*
X1137D1*
Y22867D1*
X995Y22853D1*
X2753Y23448D2*
Y23434D1*
Y23420D1*
Y23405D1*
X2696D1*
Y23391D1*
X2909Y23448D2*
X2913Y23434D1*
X2920Y23420D1*
X2928Y23405D1*
X2933Y23391D1*
X2937Y23377D1*
X2965D1*
X2967Y23363D1*
X2969Y23349D1*
X2977Y23335D1*
X2984Y23320D1*
X2990Y23306D1*
X2989Y23292D1*
X2982Y23278D1*
X2975Y23264D1*
X2970Y23249D1*
X2965Y23235D1*
X2937D1*
Y23221D1*
Y23207D1*
X2880D1*
Y23193D1*
Y23179D1*
X2795D1*
Y23164D1*
Y23150D1*
X2739D1*
Y23136D1*
Y23122D1*
X2682D1*
X2672Y23108D1*
X2664Y23094D1*
X2659Y23079D1*
X2656Y23065D1*
X2654Y23051D1*
Y23037D1*
Y23023D1*
Y23009D1*
X2625D1*
Y22994D1*
Y22980D1*
Y22966D1*
X2654D1*
Y22952D1*
Y22938D1*
X2655Y22923D1*
X2657Y22909D1*
X2665Y22895D1*
X2672Y22881D1*
X2678Y22867D1*
X2682Y22853D1*
X2739D1*
Y22838D1*
Y22824D1*
X2795D1*
Y22810D1*
X5006Y23448D2*
Y23434D1*
Y23420D1*
Y23405D1*
X4950D1*
X4940Y23391D1*
X4930Y23377D1*
X4921Y23363D1*
X5191Y23448D2*
Y23434D1*
Y23420D1*
Y23405D1*
X5247D1*
Y23391D1*
Y23377D1*
X5276D1*
X5286Y23363D1*
X5299Y23349D1*
X5311Y23335D1*
X5321Y23320D1*
X5327Y23306D1*
X5330Y23292D1*
X5332Y23278D1*
Y23264D1*
X5361D1*
Y23249D1*
Y23235D1*
Y23221D1*
Y23207D1*
Y23193D1*
Y23179D1*
Y23164D1*
Y23150D1*
Y23136D1*
Y23122D1*
Y23108D1*
Y23094D1*
Y23079D1*
Y23065D1*
Y23051D1*
Y23037D1*
Y23023D1*
Y23009D1*
X5332D1*
X5328Y22994D1*
X5320Y22980D1*
X5309Y22966D1*
X5297Y22952D1*
X5287Y22938D1*
X5281Y22923D1*
X5276Y22909D1*
X5219D1*
Y22895D1*
Y22881D1*
X5162D1*
Y22867D1*
X5021Y22853D1*
X627Y23420D2*
Y23405D1*
Y23391D1*
Y23377D1*
Y23363D1*
Y23349D1*
Y23335D1*
Y23320D1*
Y23306D1*
Y23292D1*
Y23278D1*
Y23264D1*
Y23249D1*
Y23235D1*
Y23221D1*
Y23207D1*
Y23193D1*
Y23179D1*
X2186Y23420D2*
X2181Y23405D1*
X2173Y23391D1*
X2162Y23377D1*
X2151Y23363D1*
X2141Y23349D1*
X2135Y23335D1*
X2132Y23320D1*
X2130Y23306D1*
Y23292D1*
Y23278D1*
X2133Y23264D1*
X2142Y23249D1*
X2153Y23235D1*
X2164Y23221D1*
X2174Y23207D1*
X2181Y23193D1*
X2186Y23179D1*
X2427Y23420D2*
Y23405D1*
Y23391D1*
Y23377D1*
Y23363D1*
Y23349D1*
Y23335D1*
Y23320D1*
Y23306D1*
Y23292D1*
Y23278D1*
Y23264D1*
Y23249D1*
Y23235D1*
Y23221D1*
Y23207D1*
Y23193D1*
Y23179D1*
X3263Y23420D2*
X3259Y23405D1*
X3252Y23391D1*
X3244Y23377D1*
X3238Y23363D1*
X3232Y23349D1*
X3224Y23335D1*
X3216Y23320D1*
X3211Y23306D1*
Y23292D1*
X3218Y23278D1*
X3225Y23264D1*
X3230Y23249D1*
X3233Y23235D1*
X3234Y23221D1*
X3235Y23207D1*
X3291D1*
Y23193D1*
Y23179D1*
X3518Y23420D2*
Y23405D1*
Y23391D1*
Y23377D1*
Y23363D1*
Y23349D1*
Y23335D1*
Y23320D1*
Y23306D1*
Y23292D1*
Y23278D1*
Y23264D1*
Y23249D1*
Y23235D1*
Y23221D1*
Y23207D1*
Y23193D1*
Y23179D1*
X4057Y23420D2*
Y23405D1*
Y23391D1*
Y23377D1*
X4085D1*
Y23363D1*
Y23349D1*
Y23335D1*
Y23320D1*
Y23306D1*
Y23292D1*
Y23278D1*
Y23264D1*
X4057D1*
Y23249D1*
Y23235D1*
X4085D1*
Y23221D1*
Y23207D1*
X4057D1*
Y23193D1*
Y23179D1*
X1732Y23391D2*
Y23377D1*
Y23363D1*
Y23349D1*
X1704D1*
X1703Y23335D1*
X1701Y23320D1*
X1693Y23306D1*
X1685Y23292D1*
X1680Y23278D1*
X1678Y23264D1*
X1677Y23249D1*
X1676Y23235D1*
Y23221D1*
Y23207D1*
X1647D1*
X1646Y23193D1*
X1644Y23179D1*
X1636Y23164D1*
X1629Y23150D1*
X1624Y23136D1*
X1621Y23122D1*
X1620Y23108D1*
X1619Y23094D1*
X1591D1*
Y23079D1*
Y23065D1*
Y23051D1*
Y23037D1*
X1775Y23391D2*
Y23377D1*
X1776Y23363D1*
X1778Y23349D1*
X1786Y23335D1*
X1794Y23320D1*
X1799Y23306D1*
X1801Y23292D1*
X1803Y23278D1*
Y23264D1*
X1832D1*
Y23249D1*
Y23235D1*
X1833Y23221D1*
X1835Y23207D1*
X1843Y23193D1*
X1850Y23179D1*
X1856Y23164D1*
X1863Y23150D1*
X1871Y23136D1*
X1878Y23122D1*
X1884Y23108D1*
X1886Y23094D1*
X1887Y23079D1*
X1888Y23065D1*
Y23051D1*
Y23037D1*
X5758Y23391D2*
Y23377D1*
Y23363D1*
Y23349D1*
Y23335D1*
Y23320D1*
Y23306D1*
Y23292D1*
X5729D1*
X5728Y23278D1*
X5726Y23264D1*
X5718Y23249D1*
X5711Y23235D1*
X5706Y23221D1*
X5703Y23207D1*
X5702Y23193D1*
X5701Y23179D1*
X5673D1*
Y23164D1*
Y23150D1*
X5672Y23136D1*
X5670Y23122D1*
X5667Y23108D1*
X5663Y23094D1*
X5661Y23079D1*
X5659Y23065D1*
Y23051D1*
X5658Y23037D1*
X5828Y23391D2*
Y23377D1*
Y23363D1*
Y23349D1*
Y23335D1*
Y23320D1*
Y23306D1*
Y23292D1*
X5857D1*
X5858Y23278D1*
X5860Y23264D1*
X5868Y23249D1*
X5876Y23235D1*
X5881Y23221D1*
X5883Y23207D1*
X5884Y23193D1*
X5885Y23179D1*
Y23164D1*
Y23150D1*
X5914D1*
X5915Y23136D1*
X5917Y23122D1*
X5925Y23108D1*
X5932Y23094D1*
X5937Y23079D1*
X5940Y23065D1*
X5941Y23051D1*
X5942Y23037D1*
X287Y23179D2*
Y23164D1*
Y23150D1*
Y23136D1*
X3745Y23179D2*
Y23164D1*
Y23150D1*
Y23136D1*
X4610Y23164D2*
X4605Y23150D1*
X4598Y23136D1*
X4591Y23122D1*
X4586Y23108D1*
X4583Y23094D1*
X4582Y23079D1*
X4581Y23065D1*
X4553D1*
X4543Y23051D1*
X4535Y23037D1*
X4529Y23023D1*
X4525Y23009D1*
X4496D1*
X4482Y22994D1*
X4467Y22980D1*
X4454Y22966D1*
X4446Y22952D1*
X4439Y22938D1*
X4411D1*
X4401Y22923D1*
X4393Y22909D1*
X4387Y22895D1*
X4383Y22881D1*
X4354D1*
X4345Y22867D1*
X4335Y22853D1*
X4326Y22838D1*
X4652Y23164D2*
Y23150D1*
Y23136D1*
Y23122D1*
X4680D1*
Y23108D1*
Y23094D1*
X4652D1*
Y23079D1*
Y23065D1*
Y23051D1*
Y23037D1*
Y23023D1*
Y23009D1*
Y22994D1*
Y22980D1*
Y22966D1*
Y22952D1*
Y22938D1*
Y22923D1*
Y22909D1*
Y22895D1*
Y22881D1*
Y22867D1*
Y22853D1*
Y22838D1*
X627Y23136D2*
Y23122D1*
Y23108D1*
Y23094D1*
Y23079D1*
Y23065D1*
Y23051D1*
Y23037D1*
Y23023D1*
Y23009D1*
Y22994D1*
Y22980D1*
Y22966D1*
Y22952D1*
Y22938D1*
Y22923D1*
Y22909D1*
Y22895D1*
Y22881D1*
X2427Y23136D2*
Y23122D1*
Y23108D1*
Y23094D1*
Y23079D1*
Y23065D1*
Y23051D1*
Y23037D1*
Y23023D1*
Y23009D1*
Y22994D1*
Y22980D1*
Y22966D1*
Y22952D1*
Y22938D1*
Y22923D1*
Y22909D1*
Y22895D1*
Y22881D1*
Y22867D1*
Y22853D1*
Y22838D1*
X3376Y23136D2*
Y23122D1*
X3375Y23108D1*
X3373Y23094D1*
X3365Y23079D1*
X3358Y23065D1*
X3353Y23051D1*
X3350Y23037D1*
X3349Y23023D1*
X3348Y23009D1*
X3320D1*
X3310Y22994D1*
X3302Y22980D1*
X3296Y22966D1*
X3293Y22952D1*
X3291Y22938D1*
X3263D1*
X3262Y22923D1*
X3260Y22909D1*
X3251Y22895D1*
X3240Y22881D1*
X3228Y22867D1*
X3216Y22853D1*
X3206Y22838D1*
X3518Y23136D2*
Y23122D1*
Y23108D1*
Y23094D1*
Y23079D1*
Y23065D1*
Y23051D1*
Y23037D1*
Y23023D1*
Y23009D1*
Y22994D1*
Y22980D1*
Y22966D1*
Y22952D1*
Y22938D1*
Y22923D1*
Y22909D1*
Y22895D1*
Y22881D1*
Y22867D1*
Y22853D1*
Y22838D1*
X4057Y23136D2*
Y23122D1*
Y23108D1*
Y23094D1*
Y23079D1*
Y23065D1*
Y23051D1*
Y23037D1*
Y23023D1*
Y23009D1*
Y22994D1*
Y22980D1*
Y22966D1*
Y22952D1*
Y22938D1*
Y22923D1*
Y22909D1*
Y22895D1*
Y22881D1*
X6268Y23136D2*
Y23122D1*
Y23108D1*
Y23094D1*
Y23079D1*
Y23065D1*
Y23051D1*
Y23037D1*
Y23023D1*
Y23009D1*
Y22994D1*
Y22980D1*
Y22966D1*
Y22952D1*
Y22938D1*
Y22923D1*
Y22909D1*
Y22895D1*
Y22881D1*
Y22867D1*
Y22853D1*
Y22838D1*
X6651Y23136D2*
Y23122D1*
Y23108D1*
Y23094D1*
Y23079D1*
Y23065D1*
Y23051D1*
Y23037D1*
Y23023D1*
Y23009D1*
Y22994D1*
Y22980D1*
Y22966D1*
Y22952D1*
Y22938D1*
Y22923D1*
Y22909D1*
Y22895D1*
Y22881D1*
Y22867D1*
Y22853D1*
Y22838D1*
X1562Y22994D2*
X1561Y22980D1*
X1559Y22966D1*
X1551Y22952D1*
X1544Y22938D1*
X1539Y22923D1*
X1536Y22909D1*
X1535Y22895D1*
X1534Y22881D1*
X1506D1*
Y22867D1*
Y22853D1*
Y22838D1*
X1945Y22994D2*
Y22980D1*
Y22966D1*
Y22952D1*
Y22938D1*
Y22923D1*
Y22909D1*
X1973D1*
X1974Y22895D1*
X1977Y22881D1*
X1985Y22867D1*
X1993Y22853D1*
X2002Y22838D1*
X5658Y22994D2*
X5636Y22980D1*
X5616Y22966D1*
X5609Y22952D1*
X5605Y22938D1*
X5603Y22923D1*
X5602Y22909D1*
X5573D1*
Y22895D1*
Y22881D1*
Y22867D1*
Y22853D1*
Y22838D1*
X5942Y22994D2*
X5965Y22980D1*
X5984Y22966D1*
X5992Y22952D1*
X6000Y22938D1*
X6009Y22923D1*
X6017Y22909D1*
X6022Y22895D1*
X6025Y22881D1*
X6026Y22867D1*
X6027Y22853D1*
Y22838D1*
X825Y22938D2*
X826Y22923D1*
X829Y22909D1*
X837Y22895D1*
X844Y22881D1*
X850Y22867D1*
X854Y22853D1*
X910D1*
Y22838D1*
Y22824D1*
X995D1*
Y22810D1*
X868Y22938D2*
Y22923D1*
Y22909D1*
X896D1*
Y22895D1*
Y22881D1*
X981D1*
Y22867D1*
X1123Y22853D1*
X2994Y22938D2*
X2984Y22923D1*
X2976Y22909D1*
X2970Y22895D1*
X2965Y22881D1*
X2909D1*
Y22867D1*
X2795Y22853D1*
X3008Y22938D2*
X3018Y22923D1*
X3028Y22909D1*
X3036Y22895D1*
X3023Y22881D1*
X3014Y22867D1*
X3008Y22853D1*
X2980D1*
Y22838D1*
Y22824D1*
X2895D1*
Y22810D1*
X4851Y22938D2*
Y22923D1*
Y22909D1*
X4879D1*
X4889Y22895D1*
X4897Y22881D1*
X4903Y22867D1*
X4907Y22853D1*
X4964D1*
Y22838D1*
Y22824D1*
X5021D1*
Y22810D1*
X4921Y22938D2*
X4931Y22923D1*
X4940Y22909D1*
X4945Y22895D1*
X4950Y22881D1*
X5006D1*
Y22867D1*
X5148Y22853D1*
X258Y22881D2*
Y22867D1*
Y22853D1*
Y22838D1*
X3717Y22881D2*
Y22867D1*
Y22853D1*
Y22838D1*
X287Y22739D2*
Y22725D1*
Y22711D1*
X258D1*
Y22697D1*
Y22683D1*
X287D1*
Y22668D1*
Y22654D1*
Y22640D1*
Y22626D1*
Y22612D1*
Y22598D1*
Y22583D1*
X783Y22739D2*
Y22725D1*
Y22711D1*
Y22697D1*
Y22683D1*
Y22668D1*
Y22654D1*
Y22640D1*
Y22626D1*
Y22612D1*
Y22598D1*
Y22583D1*
Y22569D1*
Y22555D1*
Y22541D1*
Y22527D1*
Y22512D1*
Y22498D1*
Y22484D1*
Y22470D1*
Y22456D1*
Y22442D1*
Y22427D1*
Y22413D1*
Y22399D1*
Y22385D1*
Y22371D1*
Y22357D1*
Y22342D1*
Y22328D1*
Y22314D1*
Y22300D1*
Y22286D1*
Y22272D1*
Y22257D1*
Y22243D1*
Y22229D1*
Y22215D1*
Y22201D1*
Y22186D1*
Y22172D1*
Y22158D1*
Y22144D1*
Y22130D1*
Y22116D1*
Y22101D1*
Y22087D1*
Y22073D1*
Y22059D1*
Y22045D1*
Y22031D1*
Y22016D1*
Y22002D1*
Y21988D1*
X910Y22739D2*
X901Y22725D1*
X892Y22711D1*
X887Y22697D1*
X884Y22683D1*
X883Y22668D1*
X882Y22654D1*
X883Y22640D1*
X885Y22626D1*
X893Y22612D1*
X902Y22598D1*
X910Y22583D1*
X1477Y22739D2*
X1504Y22725D1*
X1534Y22711D1*
X1548Y22739D2*
X1522Y22725D1*
X1491Y22711D1*
X2158Y22739D2*
Y22725D1*
Y22711D1*
Y22697D1*
Y22683D1*
Y22668D1*
Y22654D1*
Y22640D1*
Y22626D1*
Y22612D1*
Y22598D1*
Y22583D1*
X2455Y22739D2*
Y22725D1*
Y22711D1*
X2399D1*
Y22697D1*
Y22683D1*
X2342D1*
X2332Y22668D1*
X2324Y22654D1*
X2318Y22640D1*
X2314Y22626D1*
X2285D1*
X2275Y22612D1*
X2267Y22598D1*
X2262Y22583D1*
X2259Y22569D1*
X2258Y22555D1*
X2257Y22541D1*
X2228D1*
X2224Y22527D1*
X2217Y22512D1*
X2210Y22498D1*
X2205Y22484D1*
X2202Y22470D1*
X2201Y22456D1*
X2200Y22442D1*
Y22427D1*
Y22413D1*
Y22399D1*
Y22385D1*
Y22371D1*
Y22357D1*
Y22342D1*
Y22328D1*
Y22314D1*
Y22300D1*
Y22286D1*
Y22272D1*
X2201Y22257D1*
X2204Y22243D1*
X2211Y22229D1*
X2219Y22215D1*
X2224Y22201D1*
X2226Y22186D1*
X2228Y22172D1*
Y22158D1*
X2257D1*
X2258Y22144D1*
X2260Y22130D1*
X2269Y22116D1*
X2281Y22101D1*
X2297Y22087D1*
X2313Y22073D1*
X2327Y22059D1*
X2336Y22045D1*
X2342Y22031D1*
X2399D1*
Y22016D1*
Y22002D1*
X2455D1*
Y21988D1*
Y21974D1*
X2569D1*
Y21960D1*
X2753Y22739D2*
Y22725D1*
Y22711D1*
X2838D1*
Y22697D1*
Y22683D1*
X2866D1*
Y22668D1*
Y22654D1*
X2923D1*
Y22640D1*
Y22626D1*
X2951D1*
X2952Y22612D1*
X2955Y22598D1*
X2962Y22583D1*
X2970Y22569D1*
X2975Y22555D1*
X2978Y22541D1*
X2980Y22527D1*
X3008D1*
Y22512D1*
Y22498D1*
X3009Y22484D1*
X3011Y22470D1*
X3019Y22456D1*
X3027Y22442D1*
X3032Y22427D1*
X3034Y22413D1*
X3036Y22399D1*
Y22385D1*
Y22371D1*
Y22357D1*
Y22342D1*
Y22328D1*
X3035Y22314D1*
X3033Y22300D1*
X3025Y22286D1*
X3018Y22272D1*
X3013Y22257D1*
X3010Y22243D1*
X3009Y22229D1*
X3008Y22215D1*
Y22201D1*
Y22186D1*
X2980D1*
X2979Y22172D1*
X2976Y22158D1*
X2968Y22144D1*
X2961Y22130D1*
X2955Y22116D1*
X2951Y22101D1*
X2923D1*
X2909Y22087D1*
X2893Y22073D1*
X2881Y22059D1*
X2872Y22045D1*
X2866Y22031D1*
X2838D1*
Y22016D1*
Y22002D1*
X2781D1*
Y21988D1*
Y21974D1*
X2639D1*
Y21960D1*
X3391Y22739D2*
Y22725D1*
Y22711D1*
X3362D1*
Y22697D1*
Y22683D1*
Y22668D1*
Y22654D1*
Y22640D1*
Y22626D1*
Y22612D1*
Y22598D1*
Y22583D1*
Y22569D1*
Y22555D1*
Y22541D1*
Y22527D1*
Y22512D1*
Y22498D1*
Y22484D1*
Y22470D1*
Y22456D1*
Y22442D1*
Y22427D1*
Y22413D1*
Y22399D1*
Y22385D1*
Y22371D1*
Y22357D1*
Y22342D1*
Y22328D1*
Y22314D1*
Y22300D1*
Y22286D1*
Y22272D1*
Y22257D1*
Y22243D1*
Y22229D1*
Y22215D1*
X3391D1*
Y22201D1*
Y22186D1*
X3362D1*
Y22172D1*
Y22158D1*
X3391D1*
Y22144D1*
Y22130D1*
X3532Y22739D2*
Y22725D1*
Y22711D1*
Y22697D1*
Y22683D1*
Y22668D1*
Y22654D1*
Y22640D1*
Y22626D1*
Y22612D1*
Y22598D1*
Y22583D1*
Y22569D1*
Y22555D1*
Y22541D1*
Y22527D1*
Y22512D1*
Y22498D1*
Y22484D1*
Y22470D1*
Y22456D1*
Y22442D1*
Y22427D1*
Y22413D1*
Y22399D1*
Y22385D1*
Y22371D1*
Y22357D1*
Y22342D1*
Y22328D1*
Y22314D1*
Y22300D1*
Y22286D1*
Y22272D1*
Y22257D1*
Y22243D1*
Y22229D1*
Y22215D1*
Y22201D1*
Y22186D1*
Y22172D1*
Y22158D1*
Y22144D1*
Y22130D1*
Y22116D1*
Y22101D1*
Y22087D1*
Y22073D1*
Y22059D1*
Y22045D1*
Y22031D1*
Y22016D1*
Y22002D1*
Y21988D1*
X3915Y22739D2*
Y22725D1*
Y22711D1*
X3830D1*
Y22697D1*
Y22683D1*
X3773D1*
X3764Y22668D1*
X3755Y22654D1*
X3749Y22640D1*
X3745Y22626D1*
X3717D1*
X3716Y22612D1*
X3713Y22598D1*
X3705Y22583D1*
X3698Y22569D1*
X3693Y22555D1*
X3690Y22541D1*
X3689Y22527D1*
Y22512D1*
Y22498D1*
Y22484D1*
X3692Y22470D1*
X3699Y22456D1*
X3707Y22442D1*
X3712Y22427D1*
X3715Y22413D1*
X3716Y22399D1*
X3717Y22385D1*
X3745D1*
X3755Y22371D1*
X3763Y22357D1*
X3769Y22342D1*
X3773Y22328D1*
X3830D1*
X3840Y22314D1*
X3850Y22300D1*
X3858Y22286D1*
X3841Y22272D1*
X3826Y22257D1*
X3813Y22243D1*
X3807Y22229D1*
X3804Y22215D1*
X3803Y22201D1*
X3802Y22186D1*
X3773D1*
X3772Y22172D1*
X3770Y22158D1*
X3762Y22144D1*
X3755Y22130D1*
X3749Y22116D1*
X3745Y22101D1*
X3717D1*
X3712Y22087D1*
X3705Y22073D1*
X3698Y22059D1*
X3692Y22045D1*
X3688Y22031D1*
X3660D1*
Y22016D1*
Y22002D1*
Y21988D1*
X4269Y22739D2*
Y22725D1*
Y22711D1*
Y22697D1*
Y22683D1*
Y22668D1*
Y22654D1*
Y22640D1*
Y22626D1*
Y22612D1*
Y22598D1*
Y22583D1*
Y22569D1*
Y22555D1*
Y22541D1*
Y22527D1*
Y22512D1*
Y22498D1*
Y22484D1*
Y22470D1*
Y22456D1*
Y22442D1*
Y22427D1*
Y22413D1*
Y22399D1*
Y22385D1*
Y22371D1*
Y22357D1*
Y22342D1*
Y22328D1*
Y22314D1*
Y22300D1*
Y22286D1*
Y22272D1*
Y22257D1*
Y22243D1*
Y22229D1*
Y22215D1*
Y22201D1*
Y22186D1*
Y22172D1*
Y22158D1*
Y22144D1*
Y22130D1*
Y22116D1*
Y22101D1*
Y22087D1*
Y22073D1*
Y22059D1*
Y22045D1*
Y22031D1*
Y22016D1*
Y22002D1*
Y21988D1*
X4709Y22739D2*
X4699Y22725D1*
X4691Y22711D1*
X4685Y22697D1*
X4680Y22683D1*
X4652D1*
Y22668D1*
Y22654D1*
X4651Y22640D1*
X4649Y22626D1*
X4641Y22612D1*
X4633Y22598D1*
X4628Y22583D1*
X4626Y22569D1*
X4624Y22555D1*
Y22541D1*
X4595D1*
Y22527D1*
X4594Y22512D1*
X4592Y22498D1*
X4584Y22484D1*
X4577Y22470D1*
X4571Y22456D1*
X4564Y22442D1*
X4556Y22427D1*
X4549Y22413D1*
X4543Y22399D1*
X4541Y22385D1*
X4539Y22371D1*
Y22357D1*
X4510D1*
Y22342D1*
Y22328D1*
X4509Y22314D1*
X4507Y22300D1*
X4499Y22286D1*
X4492Y22272D1*
X4487Y22257D1*
X4484Y22243D1*
X4483Y22229D1*
X4482Y22215D1*
X4454D1*
Y22201D1*
Y22186D1*
X4453Y22172D1*
X4450Y22158D1*
X4442Y22144D1*
X4435Y22130D1*
X4430Y22116D1*
X4427Y22101D1*
X4426Y22087D1*
X4425Y22073D1*
X4397D1*
X4393Y22059D1*
X4386Y22045D1*
X4378Y22031D1*
X4373Y22016D1*
X4370Y22002D1*
X4369Y21988D1*
X4865Y22739D2*
X4866Y22725D1*
X4868Y22711D1*
X4876Y22697D1*
X4883Y22683D1*
X4888Y22668D1*
X4891Y22654D1*
X4892Y22640D1*
X4893Y22626D1*
X4921D1*
Y22612D1*
Y22598D1*
X4922Y22583D1*
X4925Y22569D1*
X4933Y22555D1*
X4940Y22541D1*
X4945Y22527D1*
X4948Y22512D1*
X4950Y22498D1*
X4978D1*
X4979Y22484D1*
X4982Y22470D1*
X4989Y22456D1*
X4997Y22442D1*
X5002Y22427D1*
X5005Y22413D1*
X5007Y22399D1*
X5011Y22385D1*
X5018Y22371D1*
X5025Y22357D1*
X5030Y22342D1*
X5033Y22328D1*
X5034Y22314D1*
X5035Y22300D1*
X5063D1*
X5064Y22286D1*
X5067Y22272D1*
X5074Y22257D1*
X5082Y22243D1*
X5087Y22229D1*
X5089Y22215D1*
X5091Y22201D1*
Y22186D1*
Y22172D1*
Y22158D1*
X5120D1*
X5121Y22144D1*
X5123Y22130D1*
X5131Y22116D1*
X5138Y22101D1*
X5144Y22087D1*
X5146Y22073D1*
X5147Y22059D1*
X5148Y22045D1*
Y22031D1*
X5176D1*
Y22016D1*
Y22002D1*
Y21988D1*
X5276Y22739D2*
Y22725D1*
Y22711D1*
Y22697D1*
Y22683D1*
Y22668D1*
Y22654D1*
Y22640D1*
Y22626D1*
Y22612D1*
Y22598D1*
Y22583D1*
Y22569D1*
Y22555D1*
Y22541D1*
Y22527D1*
Y22512D1*
Y22498D1*
Y22484D1*
Y22470D1*
Y22456D1*
Y22442D1*
Y22427D1*
Y22413D1*
Y22399D1*
Y22385D1*
Y22371D1*
Y22357D1*
Y22342D1*
Y22328D1*
Y22314D1*
Y22300D1*
Y22286D1*
Y22272D1*
Y22257D1*
Y22243D1*
Y22229D1*
Y22215D1*
Y22201D1*
Y22186D1*
Y22172D1*
Y22158D1*
Y22144D1*
Y22130D1*
Y22116D1*
Y22101D1*
Y22087D1*
Y22073D1*
Y22059D1*
Y22045D1*
Y22031D1*
Y22016D1*
Y22002D1*
Y21988D1*
X5432Y22739D2*
Y22725D1*
Y22711D1*
X5460D1*
Y22697D1*
Y22683D1*
Y22668D1*
Y22654D1*
Y22640D1*
Y22626D1*
Y22612D1*
Y22598D1*
Y22583D1*
Y22569D1*
Y22555D1*
Y22541D1*
Y22527D1*
Y22512D1*
Y22498D1*
Y22484D1*
Y22470D1*
Y22456D1*
Y22442D1*
X5772Y22739D2*
Y22725D1*
Y22711D1*
Y22697D1*
Y22683D1*
Y22668D1*
Y22654D1*
Y22640D1*
Y22626D1*
Y22612D1*
Y22598D1*
Y22583D1*
Y22569D1*
Y22555D1*
Y22541D1*
Y22527D1*
X5771Y22512D1*
X5768Y22498D1*
X5761Y22484D1*
X5753Y22470D1*
X5748Y22456D1*
X5743Y22442D1*
X5928Y22739D2*
Y22725D1*
Y22711D1*
Y22697D1*
Y22683D1*
Y22668D1*
Y22654D1*
Y22640D1*
Y22626D1*
Y22612D1*
Y22598D1*
Y22583D1*
Y22569D1*
Y22555D1*
Y22541D1*
Y22527D1*
Y22512D1*
Y22498D1*
Y22484D1*
Y22470D1*
Y22456D1*
Y22442D1*
Y22427D1*
Y22413D1*
Y22399D1*
Y22385D1*
Y22371D1*
Y22357D1*
Y22342D1*
Y22328D1*
Y22314D1*
Y22300D1*
Y22286D1*
Y22272D1*
Y22257D1*
Y22243D1*
Y22229D1*
Y22215D1*
Y22201D1*
Y22186D1*
Y22172D1*
Y22158D1*
Y22144D1*
Y22130D1*
Y22116D1*
Y22101D1*
Y22087D1*
Y22073D1*
Y22059D1*
Y22045D1*
Y22031D1*
Y22016D1*
Y22002D1*
Y21988D1*
X6169Y22739D2*
Y22725D1*
Y22711D1*
X6112D1*
Y22697D1*
Y22683D1*
X6084D1*
X6074Y22668D1*
X6064Y22654D1*
X6055Y22640D1*
X6068Y22626D1*
X6077Y22612D1*
X6084Y22598D1*
X6112D1*
X6123Y22583D1*
X6136Y22569D1*
X6151Y22555D1*
X6169Y22541D1*
X6466Y22739D2*
Y22725D1*
Y22711D1*
X6551D1*
X6561Y22697D1*
X6570Y22683D1*
X6575Y22668D1*
X6580Y22654D1*
X6636D1*
X6646Y22640D1*
X6654Y22626D1*
X6660Y22612D1*
X6663Y22598D1*
X6664Y22583D1*
X6665Y22569D1*
X6693D1*
X6697Y22555D1*
X6704Y22541D1*
X6712Y22527D1*
X6717Y22512D1*
X6719Y22498D1*
X6721Y22484D1*
Y22470D1*
X6750D1*
Y22456D1*
Y22442D1*
Y22427D1*
Y22413D1*
Y22399D1*
Y22385D1*
Y22371D1*
Y22357D1*
Y22342D1*
Y22328D1*
Y22314D1*
Y22300D1*
Y22286D1*
Y22272D1*
Y22257D1*
Y22243D1*
X6721D1*
X6720Y22229D1*
X6718Y22215D1*
X6710Y22201D1*
X6703Y22186D1*
X6698Y22172D1*
X6695Y22158D1*
X6694Y22144D1*
X6693Y22130D1*
X6665D1*
X6663Y22116D1*
X6660Y22101D1*
X6644Y22087D1*
X6622Y22073D1*
X6599Y22059D1*
X6579Y22045D1*
X6563Y22031D1*
X6557Y22016D1*
X6551Y22002D1*
X6495D1*
Y21988D1*
Y21974D1*
X6381D1*
Y21960D1*
X1477Y22612D2*
Y22598D1*
Y22583D1*
X1548Y22612D2*
Y22598D1*
Y22583D1*
X2583Y22612D2*
Y22598D1*
Y22583D1*
Y22569D1*
X2469D1*
X2455Y22555D1*
X2440Y22541D1*
X2427Y22527D1*
X2418Y22512D1*
X2415Y22498D1*
X2414Y22484D1*
X2413Y22470D1*
X2384D1*
Y22456D1*
Y22442D1*
Y22427D1*
Y22413D1*
Y22399D1*
Y22385D1*
Y22371D1*
Y22357D1*
Y22342D1*
Y22328D1*
Y22314D1*
Y22300D1*
Y22286D1*
Y22272D1*
Y22257D1*
Y22243D1*
X2413D1*
X2414Y22229D1*
X2416Y22215D1*
X2424Y22201D1*
X2431Y22186D1*
X2437Y22172D1*
X2441Y22158D1*
X2498D1*
Y22144D1*
Y22130D1*
X2557D1*
X2599Y22116D1*
X2639Y22101D1*
X2654Y22612D2*
Y22598D1*
Y22583D1*
Y22569D1*
X2739D1*
X2753Y22555D1*
X2769Y22541D1*
X2786Y22527D1*
X2800Y22512D1*
X2811Y22498D1*
X2819Y22484D1*
X2822Y22470D1*
X2823Y22456D1*
Y22442D1*
X2824Y22427D1*
Y22413D1*
X2852D1*
Y22399D1*
Y22385D1*
Y22371D1*
Y22357D1*
Y22342D1*
Y22328D1*
Y22314D1*
Y22300D1*
X2824D1*
Y22286D1*
Y22272D1*
X2823Y22257D1*
X2820Y22243D1*
X2811Y22229D1*
X2800Y22215D1*
X2789Y22201D1*
X2779Y22186D1*
X2772Y22172D1*
X2767Y22158D1*
X2739D1*
Y22144D1*
Y22130D1*
X2680D1*
X2638Y22116D1*
X2597Y22101D1*
X3958Y22612D2*
Y22598D1*
Y22583D1*
Y22569D1*
X3901D1*
X3891Y22555D1*
X3883Y22541D1*
X3877Y22527D1*
X3875Y22512D1*
X3873Y22498D1*
X3874Y22484D1*
X3876Y22470D1*
X3884Y22456D1*
X3891Y22442D1*
X3897Y22427D1*
X3901Y22413D1*
X4085Y22612D2*
X4090Y22598D1*
X4097Y22583D1*
X4104Y22569D1*
X4109Y22555D1*
X4112Y22541D1*
X4113Y22527D1*
Y22512D1*
Y22498D1*
Y22484D1*
Y22470D1*
Y22456D1*
X4114Y22442D1*
Y22427D1*
Y22413D1*
X6268Y22612D2*
Y22598D1*
Y22583D1*
Y22569D1*
X6211D1*
X6198Y22555D1*
X6183Y22541D1*
X6367Y22612D2*
Y22598D1*
Y22583D1*
Y22569D1*
X6452D1*
X6466Y22555D1*
X6482Y22541D1*
X6494Y22527D1*
X6503Y22512D1*
X6509Y22498D1*
X6537D1*
Y22484D1*
Y22470D1*
X6538Y22456D1*
X6541Y22442D1*
X6548Y22427D1*
X6556Y22413D1*
X6561Y22399D1*
X6563Y22385D1*
X6565Y22371D1*
Y22357D1*
X6564Y22342D1*
X6562Y22328D1*
X6554Y22314D1*
X6547Y22300D1*
X6542Y22286D1*
X6539Y22272D1*
X6538Y22257D1*
X6537Y22243D1*
Y22229D1*
Y22215D1*
X6509D1*
X6498Y22201D1*
X6486Y22186D1*
X6474Y22172D1*
X6464Y22158D1*
X6457Y22144D1*
X6452Y22130D1*
X6393D1*
X6351Y22116D1*
X6310Y22101D1*
X627Y22583D2*
Y22569D1*
Y22555D1*
Y22541D1*
Y22527D1*
Y22512D1*
Y22498D1*
Y22484D1*
Y22470D1*
Y22456D1*
Y22442D1*
X1109Y22583D2*
Y22569D1*
Y22555D1*
Y22541D1*
Y22527D1*
Y22512D1*
Y22498D1*
Y22484D1*
Y22470D1*
Y22456D1*
Y22442D1*
Y22427D1*
Y22413D1*
Y22399D1*
Y22385D1*
Y22371D1*
Y22357D1*
Y22342D1*
Y22328D1*
Y22314D1*
Y22300D1*
Y22286D1*
Y22272D1*
Y22257D1*
Y22243D1*
Y22229D1*
Y22215D1*
Y22201D1*
Y22186D1*
Y22172D1*
Y22158D1*
Y22144D1*
Y22130D1*
Y22116D1*
Y22101D1*
Y22087D1*
Y22073D1*
Y22059D1*
Y22045D1*
Y22031D1*
Y22016D1*
Y22002D1*
X1137D1*
Y21988D1*
X1279Y22583D2*
Y22569D1*
Y22555D1*
Y22541D1*
Y22527D1*
Y22512D1*
Y22498D1*
Y22484D1*
Y22470D1*
Y22456D1*
Y22442D1*
Y22427D1*
Y22413D1*
Y22399D1*
Y22385D1*
Y22371D1*
Y22357D1*
Y22342D1*
Y22328D1*
Y22314D1*
Y22300D1*
Y22286D1*
Y22272D1*
Y22257D1*
Y22243D1*
Y22229D1*
Y22215D1*
Y22201D1*
Y22186D1*
Y22172D1*
Y22158D1*
Y22144D1*
Y22130D1*
Y22116D1*
Y22101D1*
Y22087D1*
Y22073D1*
Y22059D1*
Y22045D1*
Y22031D1*
Y22016D1*
Y22002D1*
Y21988D1*
X1747Y22583D2*
Y22569D1*
Y22555D1*
Y22541D1*
Y22527D1*
Y22512D1*
Y22498D1*
Y22484D1*
Y22470D1*
Y22456D1*
Y22442D1*
Y22427D1*
Y22413D1*
Y22399D1*
Y22385D1*
Y22371D1*
Y22357D1*
Y22342D1*
Y22328D1*
Y22314D1*
Y22300D1*
Y22286D1*
Y22272D1*
Y22257D1*
Y22243D1*
Y22229D1*
Y22215D1*
Y22201D1*
Y22186D1*
Y22172D1*
Y22158D1*
Y22144D1*
Y22130D1*
Y22116D1*
Y22101D1*
Y22087D1*
Y22073D1*
Y22059D1*
Y22045D1*
Y22031D1*
Y22016D1*
Y22002D1*
Y21988D1*
X1931Y22583D2*
Y22569D1*
Y22555D1*
Y22541D1*
Y22527D1*
Y22512D1*
Y22498D1*
Y22484D1*
Y22470D1*
Y22456D1*
Y22442D1*
Y22427D1*
Y22413D1*
Y22399D1*
Y22385D1*
Y22371D1*
Y22357D1*
Y22342D1*
Y22328D1*
Y22314D1*
Y22300D1*
Y22286D1*
Y22272D1*
Y22257D1*
Y22243D1*
Y22229D1*
Y22215D1*
Y22201D1*
Y22186D1*
Y22172D1*
Y22158D1*
Y22144D1*
Y22130D1*
Y22116D1*
Y22101D1*
Y22087D1*
Y22073D1*
Y22059D1*
Y22045D1*
Y22031D1*
Y22016D1*
Y22002D1*
Y21988D1*
X4751Y22541D2*
Y22527D1*
X4750Y22512D1*
X4748Y22498D1*
X4740Y22484D1*
X4733Y22470D1*
X4728Y22456D1*
X4725Y22442D1*
X4724Y22427D1*
X4723Y22413D1*
Y22399D1*
Y22385D1*
X4695D1*
Y22371D1*
Y22357D1*
Y22342D1*
Y22328D1*
Y22314D1*
Y22300D1*
Y22286D1*
Y22272D1*
X4794Y22541D2*
Y22527D1*
Y22512D1*
Y22498D1*
Y22484D1*
Y22470D1*
X4822D1*
X4823Y22456D1*
X4826Y22442D1*
X4833Y22427D1*
X4841Y22413D1*
X4846Y22399D1*
X4849Y22385D1*
X4850Y22371D1*
Y22357D1*
Y22342D1*
X4851Y22328D1*
X4879D1*
Y22314D1*
Y22300D1*
Y22286D1*
Y22272D1*
X287Y22442D2*
Y22427D1*
Y22413D1*
Y22399D1*
Y22385D1*
Y22371D1*
Y22357D1*
Y22342D1*
Y22328D1*
Y22314D1*
X627D2*
Y22300D1*
Y22286D1*
Y22272D1*
Y22257D1*
Y22243D1*
Y22229D1*
Y22215D1*
Y22201D1*
Y22186D1*
Y22172D1*
Y22158D1*
Y22144D1*
Y22130D1*
X5460Y22314D2*
Y22300D1*
Y22286D1*
Y22272D1*
Y22257D1*
Y22243D1*
Y22229D1*
Y22215D1*
Y22201D1*
Y22186D1*
Y22172D1*
Y22158D1*
Y22144D1*
Y22130D1*
Y22116D1*
Y22101D1*
Y22087D1*
Y22073D1*
Y22059D1*
Y22045D1*
Y22031D1*
Y22016D1*
Y22002D1*
Y21988D1*
X5743Y22314D2*
X5748Y22300D1*
X5755Y22286D1*
X5762Y22272D1*
X5767Y22257D1*
X5770Y22243D1*
X5771Y22229D1*
Y22215D1*
X5772Y22201D1*
Y22186D1*
Y22172D1*
Y22158D1*
Y22144D1*
Y22130D1*
Y22116D1*
Y22101D1*
Y22087D1*
Y22073D1*
Y22059D1*
Y22045D1*
Y22031D1*
Y22016D1*
Y22002D1*
Y21988D1*
X4014Y22286D2*
X4010Y22272D1*
X4003Y22257D1*
X3996Y22243D1*
X3991Y22229D1*
X3988Y22215D1*
X3987Y22201D1*
X3986Y22186D1*
X3958D1*
X3957Y22172D1*
X3954Y22158D1*
X3946Y22144D1*
X3939Y22130D1*
X3934Y22116D1*
X3931Y22101D1*
X3930Y22087D1*
X3929Y22073D1*
X3901D1*
X3897Y22059D1*
X3889Y22045D1*
X3882Y22031D1*
X3877Y22016D1*
X3874Y22002D1*
X3873Y21988D1*
X4114Y22286D2*
Y22272D1*
Y22257D1*
Y22243D1*
Y22229D1*
Y22215D1*
Y22201D1*
Y22186D1*
Y22172D1*
Y22158D1*
Y22144D1*
Y22130D1*
Y22116D1*
Y22101D1*
Y22087D1*
Y22073D1*
Y22059D1*
Y22045D1*
Y22031D1*
Y22016D1*
Y22002D1*
Y21988D1*
X6140Y22186D2*
X6131Y22172D1*
X6122Y22158D1*
X6116Y22144D1*
X6112Y22130D1*
X6084D1*
X6074Y22116D1*
X6065Y22101D1*
X6063Y22087D1*
X6068Y22073D1*
X6075Y22059D1*
X6080Y22045D1*
X6084Y22031D1*
X6112D1*
Y22016D1*
Y22002D1*
X6169D1*
Y21988D1*
Y21974D1*
X6282D1*
Y21960D1*
X6183Y22186D2*
Y22172D1*
Y22158D1*
X6211D1*
Y22144D1*
Y22130D1*
X6270D1*
X6312Y22116D1*
X6353Y22101D1*
X258Y22130D2*
Y22116D1*
Y22101D1*
Y22087D1*
Y22073D1*
Y22059D1*
Y22045D1*
Y22031D1*
Y22016D1*
Y22002D1*
Y21988D1*
X3079Y22130D2*
Y22116D1*
Y22101D1*
Y22087D1*
Y22073D1*
Y22059D1*
Y22045D1*
Y22031D1*
Y22016D1*
Y22002D1*
Y21988D1*
X4638Y22144D2*
Y22130D1*
Y22116D1*
Y22101D1*
X4610D1*
X4605Y22087D1*
X4598Y22073D1*
X4591Y22059D1*
X4586Y22045D1*
X4583Y22031D1*
X4582Y22016D1*
X4581Y22002D1*
X4553D1*
Y21988D1*
X4936Y22144D2*
Y22130D1*
Y22116D1*
Y22101D1*
X4964D1*
Y22087D1*
X4965Y22073D1*
X4967Y22059D1*
X4975Y22045D1*
X4983Y22031D1*
X4988Y22016D1*
X4990Y22002D1*
X4992Y21988D1*
X3079Y21832D2*
X3078Y21818D1*
X3075Y21804D1*
X3068Y21790D1*
X3060Y21775D1*
X3055Y21761D1*
X3053Y21747D1*
X3051Y21733D1*
Y21719D1*
X3022D1*
X3021Y21705D1*
X3019Y21690D1*
X3011Y21676D1*
X3003Y21662D1*
X2997Y21648D1*
X2990Y21634D1*
X2978Y21620D1*
X2964Y21605D1*
X2951Y21591D1*
X2942Y21577D1*
X2939Y21563D1*
X2937Y21549D1*
X2933Y21535D1*
X2926Y21520D1*
X2918Y21506D1*
X2913Y21492D1*
X2911Y21478D1*
X2910Y21464D1*
X2909Y21449D1*
X2880D1*
X2871Y21435D1*
X2862Y21421D1*
X2857Y21407D1*
X2854Y21393D1*
X2853Y21379D1*
X2852Y21364D1*
X2824D1*
Y21350D1*
Y21336D1*
X2823Y21322D1*
X2820Y21308D1*
X2813Y21294D1*
X2805Y21279D1*
X2798Y21265D1*
X2789Y21251D1*
X2766Y21237D1*
X2739Y21223D1*
X3093Y21832D2*
X3103Y21818D1*
X3111Y21804D1*
X3117Y21790D1*
X3119Y21775D1*
X3121Y21761D1*
Y21747D1*
X3150D1*
X3151Y21733D1*
X3153Y21719D1*
X3161Y21705D1*
X3168Y21690D1*
X3173Y21676D1*
X3176Y21662D1*
X3177Y21648D1*
X3178Y21634D1*
X3206D1*
X3211Y21620D1*
X3218Y21605D1*
X3225Y21591D1*
X3231Y21577D1*
X3237Y21563D1*
X3245Y21549D1*
X3253Y21535D1*
X3258Y21520D1*
X3261Y21506D1*
X3262Y21492D1*
X3263Y21478D1*
X3291D1*
X3293Y21464D1*
X3295Y21449D1*
X3303Y21435D1*
X3310Y21421D1*
X3315Y21407D1*
X3318Y21393D1*
X3319Y21379D1*
X3320Y21364D1*
X3348D1*
X3349Y21350D1*
X3352Y21336D1*
X3359Y21322D1*
X3367Y21308D1*
X3372Y21294D1*
X3374Y21279D1*
X3376Y21265D1*
Y21251D1*
X3405D1*
X3418Y21237D1*
X3433Y21223D1*
X3745Y21832D2*
Y21818D1*
Y21804D1*
X3717D1*
X3707Y21790D1*
X3699Y21775D1*
X3693Y21761D1*
X3690Y21747D1*
X3689Y21733D1*
Y21719D1*
X3688Y21705D1*
Y21690D1*
X3660D1*
X3650Y21676D1*
X3642Y21662D1*
X3636Y21648D1*
X3633Y21634D1*
X3628Y21620D1*
X3620Y21605D1*
X3613Y21591D1*
X3608Y21577D1*
X3605Y21563D1*
X3604Y21549D1*
X3603Y21535D1*
X3575D1*
X3574Y21520D1*
X3571Y21506D1*
X3564Y21492D1*
X3556Y21478D1*
X3551Y21464D1*
X3547Y21449D1*
X3518D1*
X3517Y21435D1*
X3515Y21421D1*
X3507Y21407D1*
X3499Y21393D1*
X3494Y21379D1*
X3490Y21364D1*
X3485Y21350D1*
X3481Y21336D1*
X3477Y21322D1*
X3472Y21308D1*
X3465Y21294D1*
X3457Y21279D1*
X3451Y21265D1*
X3444Y21251D1*
X3433Y21237D1*
X3419Y21223D1*
X3759Y21832D2*
Y21818D1*
Y21804D1*
Y21790D1*
Y21775D1*
X3788D1*
X3789Y21761D1*
X3791Y21747D1*
X3799Y21733D1*
X3806Y21719D1*
X3811Y21705D1*
X3814Y21690D1*
X3815Y21676D1*
X3816Y21662D1*
X3844D1*
X3845Y21648D1*
X3848Y21634D1*
X3856Y21620D1*
X3864Y21605D1*
X3873Y21591D1*
X3882Y21577D1*
X3891Y21563D1*
X3896Y21549D1*
X3899Y21535D1*
X3900Y21520D1*
X3901Y21506D1*
X3929D1*
X3930Y21492D1*
X3933Y21478D1*
X3940Y21464D1*
X3948Y21449D1*
X3953Y21435D1*
X3956Y21421D1*
X3957Y21407D1*
X3958Y21393D1*
X3986D1*
X3987Y21379D1*
X3989Y21364D1*
X3997Y21350D1*
X4005Y21336D1*
X4010Y21322D1*
X4012Y21308D1*
X4014Y21294D1*
Y21279D1*
X4043D1*
X4044Y21265D1*
X4050Y21251D1*
X4072Y21237D1*
X4099Y21223D1*
X4397Y21832D2*
X4396Y21818D1*
X4394Y21804D1*
X4385Y21790D1*
X4374Y21775D1*
X4362Y21761D1*
X4352Y21747D1*
X4346Y21733D1*
X4343Y21719D1*
X4341Y21705D1*
X4340Y21690D1*
X4312D1*
X4311Y21676D1*
X4308Y21662D1*
X4301Y21648D1*
X4293Y21634D1*
X4288Y21620D1*
X4285Y21605D1*
X4284Y21591D1*
X4255D1*
X4254Y21577D1*
X4252Y21563D1*
X4244Y21549D1*
X4237Y21535D1*
X4232Y21520D1*
X4229Y21506D1*
X4228Y21492D1*
X4227Y21478D1*
X4199D1*
X4197Y21464D1*
X4195Y21449D1*
X4187Y21435D1*
X4180Y21421D1*
X4174Y21407D1*
X4167Y21393D1*
X4159Y21379D1*
X4152Y21364D1*
X4147Y21350D1*
X4144Y21336D1*
X4143Y21322D1*
X4142Y21308D1*
X4114D1*
Y21294D1*
X4113Y21279D1*
Y21265D1*
X4106Y21251D1*
X4084Y21237D1*
X4057Y21223D1*
X4411Y21832D2*
Y21818D1*
Y21804D1*
X4439D1*
X4441Y21790D1*
X4443Y21775D1*
X4451Y21761D1*
X4458Y21747D1*
X4464Y21733D1*
X4471Y21719D1*
X4479Y21705D1*
X4486Y21690D1*
X4491Y21676D1*
X4494Y21662D1*
X4495Y21648D1*
X4496Y21634D1*
X4525D1*
X4529Y21620D1*
X4536Y21605D1*
X4543Y21591D1*
X4548Y21577D1*
X4551Y21563D1*
X4552Y21549D1*
X4553Y21535D1*
X4581D1*
X4582Y21520D1*
X4585Y21506D1*
X4592Y21492D1*
X4600Y21478D1*
X4605Y21464D1*
X4610Y21449D1*
X400Y21690D2*
Y21676D1*
Y21662D1*
X343D1*
X333Y21648D1*
X319Y21634D1*
X304Y21620D1*
X287Y21605D1*
X273Y21591D1*
X264Y21577D1*
X257Y21563D1*
X248Y21549D1*
X240Y21535D1*
X235Y21520D1*
X232Y21506D1*
X231Y21492D1*
X230Y21478D1*
Y21464D1*
X443Y21690D2*
Y21676D1*
Y21662D1*
Y21648D1*
Y21634D1*
Y21620D1*
Y21605D1*
Y21591D1*
Y21577D1*
Y21563D1*
Y21549D1*
Y21535D1*
Y21520D1*
Y21506D1*
Y21492D1*
Y21478D1*
Y21464D1*
X599Y21690D2*
Y21676D1*
Y21662D1*
Y21648D1*
Y21634D1*
Y21620D1*
Y21605D1*
Y21591D1*
Y21577D1*
Y21563D1*
Y21549D1*
Y21535D1*
Y21520D1*
Y21506D1*
Y21492D1*
Y21478D1*
Y21464D1*
X669Y21690D2*
Y21676D1*
Y21662D1*
X698D1*
X707Y21648D1*
X716Y21634D1*
X722Y21620D1*
X726Y21605D1*
X783D1*
X787Y21591D1*
X794Y21577D1*
X802Y21563D1*
X807Y21549D1*
X809Y21535D1*
X810Y21520D1*
X811Y21506D1*
X839D1*
Y21492D1*
Y21478D1*
Y21464D1*
X6084Y21690D2*
Y21676D1*
Y21662D1*
Y21648D1*
Y21634D1*
Y21620D1*
Y21605D1*
Y21591D1*
Y21577D1*
Y21563D1*
Y21549D1*
Y21535D1*
Y21520D1*
Y21506D1*
Y21492D1*
Y21478D1*
Y21464D1*
Y21449D1*
X6183Y21690D2*
Y21676D1*
Y21662D1*
Y21648D1*
Y21634D1*
Y21620D1*
Y21605D1*
Y21591D1*
Y21577D1*
Y21563D1*
Y21549D1*
Y21535D1*
Y21520D1*
Y21506D1*
Y21492D1*
Y21478D1*
Y21464D1*
Y21449D1*
Y21435D1*
Y21421D1*
Y21407D1*
Y21393D1*
Y21379D1*
Y21364D1*
Y21350D1*
Y21336D1*
Y21322D1*
Y21308D1*
Y21294D1*
Y21279D1*
Y21265D1*
Y21251D1*
Y21237D1*
Y21223D1*
Y21209D1*
Y21194D1*
Y21180D1*
Y21166D1*
Y21152D1*
Y21138D1*
Y21123D1*
Y21109D1*
Y21095D1*
Y21081D1*
X3065Y21577D2*
Y21563D1*
X3064Y21549D1*
X3061Y21535D1*
X3053Y21520D1*
X3046Y21506D1*
X3040Y21492D1*
X3034Y21478D1*
X3026Y21464D1*
X3018Y21449D1*
X3013Y21435D1*
X3010Y21421D1*
X3009Y21407D1*
X3008Y21393D1*
X2980D1*
X2979Y21379D1*
X2976Y21364D1*
X2968Y21350D1*
X2961Y21336D1*
X2956Y21322D1*
X2953Y21308D1*
X2952Y21294D1*
X2951Y21279D1*
X2923D1*
X2922Y21265D1*
X2920Y21251D1*
X2912Y21237D1*
X2904Y21223D1*
X2898Y21209D1*
X2892Y21194D1*
X2884Y21180D1*
X2876Y21166D1*
X2871Y21152D1*
X2868Y21138D1*
X2866Y21123D1*
X2838D1*
X2837Y21109D1*
X2834Y21095D1*
X2827Y21081D1*
X2819Y21067D1*
X2814Y21053D1*
X2812Y21038D1*
X2810Y21024D1*
Y21010D1*
X2781D1*
Y20996D1*
Y20982D1*
Y20968D1*
X3107Y21577D2*
X3112Y21563D1*
X3119Y21549D1*
X3126Y21535D1*
X3132Y21520D1*
X3138Y21506D1*
X3146Y21492D1*
X3154Y21478D1*
X3159Y21464D1*
X3162Y21449D1*
X3163Y21435D1*
X3164Y21421D1*
X3192D1*
X3193Y21407D1*
X3196Y21393D1*
X3203Y21379D1*
X3211Y21364D1*
X3216Y21350D1*
X3219Y21336D1*
X3220Y21322D1*
X3221Y21308D1*
X3249D1*
X3250Y21294D1*
X3252Y21279D1*
X3260Y21265D1*
X3268Y21251D1*
X3273Y21237D1*
X3275Y21223D1*
X3277Y21209D1*
Y21194D1*
X3306D1*
X3310Y21180D1*
X3317Y21166D1*
X3324Y21152D1*
X3330Y21138D1*
X3337Y21123D1*
X3345Y21109D1*
X3352Y21095D1*
X3358Y21081D1*
X3360Y21067D1*
X3362Y21053D1*
Y21038D1*
X3391D1*
X3392Y21024D1*
X3394Y21010D1*
X3402Y20996D1*
X3411Y20982D1*
X3419Y20968D1*
X3731Y21577D2*
X3726Y21563D1*
X3719Y21549D1*
X3712Y21535D1*
X3707Y21520D1*
X3704Y21506D1*
X3703Y21492D1*
X3702Y21478D1*
X3674D1*
X3673Y21464D1*
X3671Y21449D1*
X3663Y21435D1*
X3655Y21421D1*
X3650Y21407D1*
X3648Y21393D1*
X3647Y21379D1*
X3646Y21364D1*
X3617D1*
X3616Y21350D1*
X3614Y21336D1*
X3606Y21322D1*
X3599Y21308D1*
X3594Y21294D1*
X3591Y21279D1*
X3590Y21265D1*
X3589Y21251D1*
X3561D1*
X3560Y21237D1*
X3557Y21223D1*
X3549Y21209D1*
X3541Y21194D1*
X3532Y21180D1*
X3523Y21166D1*
X3514Y21152D1*
X3509Y21138D1*
X3506Y21123D1*
X3505Y21109D1*
X3504Y21095D1*
X3476D1*
X3475Y21081D1*
X3473Y21067D1*
X3469Y21053D1*
X3462Y21038D1*
X3452Y21024D1*
X3444Y21010D1*
X3438Y20996D1*
X3435Y20982D1*
X3433Y20968D1*
X3773Y21577D2*
Y21563D1*
Y21549D1*
Y21535D1*
Y21520D1*
Y21506D1*
X3802D1*
X3803Y21492D1*
X3805Y21478D1*
X3813Y21464D1*
X3820Y21449D1*
X3827Y21435D1*
X3833Y21421D1*
X3841Y21407D1*
X3849Y21393D1*
X3854Y21379D1*
X3856Y21364D1*
X3858Y21350D1*
Y21336D1*
X3887D1*
X3888Y21322D1*
X3890Y21308D1*
X3898Y21294D1*
X3905Y21279D1*
X3910Y21265D1*
X3913Y21251D1*
X3914Y21237D1*
X3915Y21223D1*
X3943D1*
X3945Y21209D1*
X3947Y21194D1*
X3955Y21180D1*
X3963Y21166D1*
X3972Y21152D1*
X3981Y21138D1*
X3990Y21123D1*
X3995Y21109D1*
X3998Y21095D1*
X3999Y21081D1*
X4000Y21067D1*
X4028D1*
X4030Y21053D1*
X4032Y21038D1*
X4040Y21024D1*
X4047Y21010D1*
X4052Y20996D1*
X4055Y20982D1*
X4057Y20968D1*
X4383Y21577D2*
Y21563D1*
Y21549D1*
Y21535D1*
Y21520D1*
Y21506D1*
X4354D1*
X4353Y21492D1*
X4351Y21478D1*
X4343Y21464D1*
X4336Y21449D1*
X4331Y21435D1*
X4328Y21421D1*
X4327Y21407D1*
X4326Y21393D1*
X4298D1*
X4297Y21379D1*
X4294Y21364D1*
X4285Y21350D1*
X4274Y21336D1*
X4263Y21322D1*
X4253Y21308D1*
X4246Y21294D1*
X4243Y21279D1*
X4242Y21265D1*
X4241Y21251D1*
X4213D1*
Y21237D1*
Y21223D1*
X4212Y21209D1*
X4209Y21194D1*
X4202Y21180D1*
X4194Y21166D1*
X4189Y21152D1*
X4186Y21138D1*
X4184Y21123D1*
X4156D1*
X4146Y21109D1*
X4138Y21095D1*
X4133Y21081D1*
X4130Y21067D1*
X4128Y21053D1*
Y21038D1*
X4099D1*
Y21024D1*
Y21010D1*
Y20996D1*
Y20982D1*
Y20968D1*
X4425Y21577D2*
X4430Y21563D1*
X4437Y21549D1*
X4444Y21535D1*
X4449Y21520D1*
X4452Y21506D1*
X4453Y21492D1*
X4454Y21478D1*
X4482D1*
X4483Y21464D1*
X4485Y21449D1*
X4493Y21435D1*
X4501Y21421D1*
X4506Y21407D1*
X4508Y21393D1*
X4510Y21379D1*
Y21364D1*
Y21350D1*
X6339Y21563D2*
Y21549D1*
Y21535D1*
Y21520D1*
Y21506D1*
Y21492D1*
Y21478D1*
Y21464D1*
Y21449D1*
Y21435D1*
Y21421D1*
Y21407D1*
Y21393D1*
Y21379D1*
Y21364D1*
Y21350D1*
Y21336D1*
Y21322D1*
Y21308D1*
Y21294D1*
Y21279D1*
Y21265D1*
Y21251D1*
Y21237D1*
X6438Y21563D2*
Y21549D1*
Y21535D1*
Y21520D1*
Y21506D1*
Y21492D1*
Y21478D1*
Y21464D1*
Y21449D1*
Y21435D1*
Y21421D1*
Y21407D1*
Y21393D1*
Y21379D1*
Y21364D1*
Y21350D1*
Y21336D1*
Y21322D1*
Y21308D1*
Y21294D1*
Y21279D1*
Y21265D1*
Y21251D1*
Y21237D1*
X6594Y21478D2*
Y21464D1*
Y21449D1*
X6565D1*
Y21435D1*
Y21421D1*
Y21407D1*
Y21393D1*
Y21379D1*
Y21364D1*
Y21350D1*
Y21336D1*
Y21322D1*
X6693Y21478D2*
Y21464D1*
Y21449D1*
Y21435D1*
Y21421D1*
Y21407D1*
Y21393D1*
Y21379D1*
Y21364D1*
Y21350D1*
Y21336D1*
Y21322D1*
X882Y21449D2*
Y21435D1*
Y21421D1*
X854D1*
Y21407D1*
Y21393D1*
X882D1*
Y21379D1*
Y21364D1*
Y21350D1*
X2639Y21449D2*
Y21435D1*
Y21421D1*
Y21407D1*
Y21393D1*
X2668D1*
X2669Y21379D1*
X2671Y21364D1*
X2679Y21350D1*
X2687Y21336D1*
X2693Y21322D1*
X2699Y21308D1*
X2707Y21294D1*
X2715Y21279D1*
X2722Y21265D1*
X2731Y21251D1*
X2754Y21237D1*
X2781Y21223D1*
X2569Y21350D2*
Y21336D1*
X2570Y21322D1*
X2572Y21308D1*
X2580Y21294D1*
X2587Y21279D1*
X2593Y21265D1*
X2600Y21251D1*
X2608Y21237D1*
X2615Y21223D1*
X2621Y21209D1*
X2623Y21194D1*
X2625Y21180D1*
Y21166D1*
X2654D1*
X2658Y21152D1*
X2665Y21138D1*
X2672Y21123D1*
X2677Y21109D1*
X2680Y21095D1*
X2681Y21081D1*
X2682Y21067D1*
X2710D1*
X2711Y21053D1*
X2714Y21038D1*
X2722Y21024D1*
X2729Y21010D1*
X2734Y20996D1*
X2737Y20982D1*
X2739Y20968D1*
X6084Y21350D2*
Y21336D1*
Y21322D1*
Y21308D1*
Y21294D1*
Y21279D1*
Y21265D1*
Y21251D1*
Y21237D1*
Y21223D1*
Y21209D1*
Y21194D1*
Y21180D1*
Y21166D1*
Y21152D1*
Y21138D1*
Y21123D1*
Y21109D1*
Y21095D1*
Y21081D1*
X230Y21308D2*
Y21294D1*
Y21279D1*
X231Y21265D1*
X233Y21251D1*
X241Y21237D1*
X249Y21223D1*
X254Y21209D1*
X258Y21194D1*
X287D1*
X301Y21180D1*
X316Y21166D1*
X329Y21152D1*
X337Y21138D1*
X343Y21123D1*
X400D1*
Y21109D1*
X443Y21308D2*
Y21294D1*
Y21279D1*
Y21265D1*
Y21251D1*
Y21237D1*
Y21223D1*
Y21209D1*
Y21194D1*
Y21180D1*
Y21166D1*
Y21152D1*
Y21138D1*
Y21123D1*
Y21109D1*
X599Y21308D2*
Y21294D1*
Y21279D1*
Y21265D1*
Y21251D1*
Y21237D1*
Y21223D1*
Y21209D1*
Y21194D1*
Y21180D1*
Y21166D1*
Y21152D1*
Y21138D1*
Y21123D1*
Y21109D1*
X839Y21308D2*
Y21294D1*
Y21279D1*
X811D1*
X810Y21265D1*
X808Y21251D1*
X800Y21237D1*
X792Y21223D1*
X786Y21209D1*
X779Y21194D1*
X767Y21180D1*
X753Y21166D1*
X740Y21152D1*
X732Y21138D1*
X726Y21123D1*
X669D1*
Y21109D1*
X20632Y27484D2*
D89*
X20660Y27513D1*
X20703Y27542D1*
X20761Y27570D1*
X20833Y27585D1*
X20890D1*
X20962Y27570D1*
X21019Y27542D1*
X21062Y27513D1*
X21091Y27484D1*
X20811Y27392D2*
X21112D1*
X20854D2*
X20825Y27363D1*
X20811Y27334D1*
Y27291D1*
X20825Y27262D1*
X20854Y27234D1*
X20897Y27219D1*
X20926D1*
X20969Y27234D1*
X20998Y27262D1*
X21012Y27291D1*
Y27334D1*
X20998Y27363D1*
X20969Y27392D1*
X20897Y27127D2*
Y26954D1*
X20868D1*
X20839Y26969D1*
X20825Y26983D1*
X20811Y27012D1*
Y27055D1*
X20825Y27083D1*
X20854Y27112D1*
X20897Y27127D1*
X20926D1*
X20969Y27112D1*
X20997Y27083D1*
X21012Y27055D1*
Y27012D1*
X20997Y26983D1*
X20969Y26954D1*
X20811Y26862D2*
X21012D1*
X20897D2*
X20854Y26847D1*
X20825Y26819D1*
X20811Y26790D1*
Y26747D1*
X20710Y26654D2*
X21012D1*
X20868D2*
X20825Y26611D1*
X20811Y26582D1*
Y26539D1*
X20825Y26511D1*
X20868Y26496D1*
X21012D1*
X20811Y26232D2*
X21012D1*
X20854D2*
X20825Y26260D1*
X20811Y26289D1*
Y26332D1*
X20825Y26361D1*
X20854Y26389D1*
X20897Y26404D1*
X20926D1*
X20969Y26389D1*
X20997Y26361D1*
X21012Y26332D1*
Y26289D1*
X20997Y26260D1*
X20969Y26232D1*
X20811Y26139D2*
X21112D1*
X20854D2*
X20825Y26110D1*
X20811Y26082D1*
Y26038D1*
X20825Y26010D1*
X20854Y25981D1*
X20897Y25966D1*
X20926D1*
X20969Y25981D1*
X20998Y26010D1*
X21012Y26038D1*
Y26082D1*
X20998Y26110D1*
X20969Y26139D1*
X20854Y25716D2*
X20825Y25730D1*
X20811Y25773D1*
Y25816D1*
X20825Y25860D1*
X20854Y25874D1*
X20883Y25860D1*
X20897Y25831D1*
X20911Y25759D1*
X20926Y25730D1*
X20954Y25716D1*
X20969D1*
X20997Y25730D1*
X21012Y25773D1*
Y25816D1*
X20997Y25860D1*
X20969Y25874D1*
X20811Y25317D2*
X21012Y25231D1*
X21069Y25260D1*
X21098Y25289D1*
X21112Y25317D1*
Y25332D1*
X20811Y25145D2*
X21012Y25231D1*
X20811Y24981D2*
X20825Y25009D1*
X20854Y25038D1*
X20897Y25052D1*
X20926D1*
X20969Y25038D1*
X20997Y25009D1*
X21012Y24981D1*
Y24938D1*
X20997Y24909D1*
X20969Y24880D1*
X20926Y24866D1*
X20897D1*
X20854Y24880D1*
X20825Y24909D1*
X20811Y24938D1*
Y24981D1*
Y24773D2*
X20954D1*
X20997Y24759D1*
X21012Y24730D1*
Y24687D1*
X20997Y24658D1*
X20954Y24615D1*
X20811D2*
X21012D1*
X20854Y24073D2*
X20825Y24087D1*
X20811Y24130D1*
Y24174D1*
X20825Y24217D1*
X20854Y24231D1*
X20883Y24217D1*
X20897Y24188D1*
X20911Y24116D1*
X20926Y24087D1*
X20954Y24073D1*
X20969D1*
X20997Y24087D1*
X21012Y24130D1*
Y24174D1*
X20997Y24217D1*
X20969Y24231D1*
X20710Y23980D2*
X21012D1*
X20868D2*
X20825Y23937D1*
X20811Y23908D1*
Y23865D1*
X20825Y23837D1*
X20868Y23823D1*
X21012D1*
X20811Y23658D2*
X20825Y23687D1*
X20854Y23716D1*
X20897Y23730D1*
X20926D1*
X20969Y23716D1*
X20997Y23687D1*
X21012Y23658D1*
Y23615D1*
X20997Y23586D1*
X20969Y23558D1*
X20926Y23543D1*
X20897D1*
X20854Y23558D1*
X20825Y23586D1*
X20811Y23615D1*
Y23658D1*
Y23451D2*
X20954D1*
X20997Y23436D1*
X21012Y23408D1*
Y23364D1*
X20997Y23336D1*
X20954Y23293D1*
X20811D2*
X21012D1*
X20710Y23200D2*
X21012D1*
X20710Y22935D2*
X21012D1*
X20854D2*
X20825Y22964D1*
X20811Y22993D1*
Y23036D1*
X20825Y23064D1*
X20854Y23093D1*
X20897Y23108D1*
X20926D1*
X20969Y23093D1*
X20997Y23064D1*
X21012Y23036D1*
Y22993D1*
X20997Y22964D1*
X20969Y22935D1*
X20710Y22508D2*
X20954D1*
X20997Y22494D1*
X21012Y22465D1*
Y22436D1*
X20811Y22551D2*
Y22451D1*
Y22344D2*
X21012D1*
X20897D2*
X20854Y22329D1*
X20825Y22301D1*
X20811Y22272D1*
Y22229D1*
Y22121D2*
X21012Y22036D1*
X21069Y22064D1*
X21098Y22093D1*
X21112Y22121D1*
Y22136D1*
X20811Y21949D2*
X21012Y22036D1*
X20811Y21393D2*
X21012D1*
X20854D2*
X20825Y21422D1*
X20811Y21450D1*
Y21493D1*
X20825Y21522D1*
X20854Y21551D1*
X20897Y21565D1*
X20926D1*
X20969Y21551D1*
X20997Y21522D1*
X21012Y21493D1*
Y21450D1*
X20997Y21422D1*
X20969Y21393D1*
X20811Y21300D2*
X21012D1*
X20868D2*
X20825Y21257D1*
X20811Y21228D1*
Y21186D1*
X20825Y21157D1*
X20868Y21143D1*
X21012D1*
X20710Y20878D2*
X21012D1*
X20854D2*
X20825Y20906D1*
X20811Y20935D1*
Y20978D1*
X20825Y21007D1*
X20854Y21036D1*
X20897Y21050D1*
X20926D1*
X20969Y21036D1*
X20997Y21007D1*
X21012Y20978D1*
Y20935D1*
X20997Y20906D1*
X20969Y20878D1*
X21676Y27311D2*
X21647Y27325D1*
X21633Y27368D1*
Y27412D1*
X21647Y27455D1*
X21676Y27469D1*
X21704Y27455D1*
X21719Y27426D1*
X21733Y27354D1*
X21747Y27325D1*
X21776Y27311D1*
X21791D1*
X21819Y27325D1*
X21834Y27368D1*
Y27412D1*
X21819Y27455D1*
X21791Y27469D1*
X21633Y27218D2*
X21834D1*
X21690D2*
X21647Y27175D1*
X21633Y27146D1*
Y27104D1*
X21647Y27075D1*
X21690Y27061D1*
X21834D1*
X21532Y26968D2*
X21546Y26954D1*
X21532Y26939D1*
X21518Y26954D1*
X21532Y26968D1*
X21633Y26954D2*
X21834D1*
X21532Y26732D2*
Y26760D1*
X21546Y26789D1*
X21590Y26803D1*
X21834D1*
X21633Y26846D2*
Y26746D1*
X21532Y26524D2*
Y26553D1*
X21546Y26582D1*
X21590Y26596D1*
X21834D1*
X21633Y26639D2*
Y26539D1*
X21676Y25982D2*
X21647Y25997D1*
X21633Y26040D1*
Y26083D1*
X21647Y26126D1*
X21676Y26140D1*
X21704Y26126D1*
X21719Y26097D1*
X21733Y26025D1*
X21747Y25997D1*
X21776Y25982D1*
X21791D1*
X21819Y25997D1*
X21834Y26040D1*
Y26083D1*
X21819Y26126D1*
X21791Y26140D1*
X21633Y25818D2*
X21647Y25847D1*
X21676Y25875D1*
X21719Y25890D1*
X21747D1*
X21791Y25875D1*
X21819Y25847D1*
X21834Y25818D1*
Y25775D1*
X21819Y25746D1*
X21791Y25718D1*
X21747Y25703D1*
X21719D1*
X21676Y25718D1*
X21647Y25746D1*
X21633Y25775D1*
Y25818D1*
Y25610D2*
X21834D1*
X21690D2*
X21647Y25567D1*
X21633Y25538D1*
Y25496D1*
X21647Y25467D1*
X21690Y25452D1*
X21834D1*
X21690D2*
X21647Y25409D1*
X21633Y25380D1*
Y25338D1*
X21647Y25309D1*
X21690Y25294D1*
X21834D1*
X21719Y25202D2*
Y25029D1*
X21690D1*
X21661Y25044D1*
X21647Y25058D1*
X21633Y25087D1*
Y25130D1*
X21647Y25158D1*
X21676Y25187D1*
X21719Y25202D1*
X21747D1*
X21791Y25187D1*
X21819Y25158D1*
X21834Y25130D1*
Y25087D1*
X21819Y25058D1*
X21791Y25029D1*
X21532Y24645D2*
X21834D1*
X21676D2*
X21647Y24616D1*
X21633Y24588D1*
Y24545D1*
X21647Y24516D1*
X21676Y24487D1*
X21719Y24473D1*
X21747D1*
X21791Y24487D1*
X21819Y24516D1*
X21834Y24545D1*
Y24588D1*
X21819Y24616D1*
X21791Y24645D1*
X21532Y24381D2*
X21834D1*
X21633Y24288D2*
X21776D1*
X21819Y24274D1*
X21834Y24245D1*
Y24202D1*
X21819Y24173D1*
X21776Y24130D1*
X21633D2*
X21834D1*
X21719Y24037D2*
Y23865D1*
X21690D1*
X21661Y23880D1*
X21647Y23894D1*
X21633Y23923D1*
Y23966D1*
X21647Y23994D1*
X21676Y24023D1*
X21719Y24037D1*
X21747D1*
X21791Y24023D1*
X21819Y23994D1*
X21834Y23966D1*
Y23923D1*
X21819Y23894D1*
X21791Y23865D1*
X21532Y23730D2*
X21776D1*
X21819Y23715D1*
X21834Y23686D1*
Y23658D1*
X21633Y23773D2*
Y23672D1*
Y23494D2*
X21647Y23522D1*
X21676Y23551D1*
X21719Y23565D1*
X21747D1*
X21791Y23551D1*
X21819Y23522D1*
X21834Y23494D1*
Y23451D1*
X21819Y23422D1*
X21791Y23393D1*
X21747Y23379D1*
X21719D1*
X21676Y23393D1*
X21647Y23422D1*
X21633Y23451D1*
Y23494D1*
Y23214D2*
X21647Y23243D1*
X21676Y23272D1*
X21719Y23286D1*
X21747D1*
X21791Y23272D1*
X21819Y23243D1*
X21834Y23214D1*
Y23171D1*
X21819Y23142D1*
X21791Y23114D1*
X21747Y23099D1*
X21719D1*
X21676Y23114D1*
X21647Y23142D1*
X21633Y23171D1*
Y23214D1*
X21532Y22963D2*
X21776D1*
X21819Y22949D1*
X21834Y22920D1*
Y22892D1*
X21633Y23007D2*
Y22906D1*
X21532Y22799D2*
X21834D1*
X21690D2*
X21647Y22756D1*
X21633Y22727D1*
Y22684D1*
X21647Y22656D1*
X21690Y22641D1*
X21834D1*
X21532Y22214D2*
X21776D1*
X21819Y22200D1*
X21834Y22171D1*
Y22142D1*
X21633Y22257D2*
Y22157D1*
Y22050D2*
X21834D1*
X21719D2*
X21676Y22035D1*
X21647Y22007D1*
X21633Y21978D1*
Y21935D1*
Y21670D2*
X21834D1*
X21676D2*
X21647Y21698D1*
X21633Y21727D1*
Y21770D1*
X21647Y21799D1*
X21676Y21827D1*
X21719Y21842D1*
X21747D1*
X21791Y21827D1*
X21819Y21799D1*
X21834Y21770D1*
Y21727D1*
X21819Y21698D1*
X21791Y21670D1*
X21532Y21463D2*
Y21491D1*
X21546Y21520D1*
X21590Y21534D1*
X21834D1*
X21633Y21577D2*
Y21477D1*
X21532Y21255D2*
Y21284D1*
X21546Y21313D1*
X21590Y21327D1*
X21834D1*
X21633Y21370D2*
Y21269D1*
X21532Y21163D2*
X21546Y21148D1*
X21532Y21134D1*
X21518Y21148D1*
X21532Y21163D1*
X21633Y21148D2*
X21834D1*
X21676Y20869D2*
X21647Y20897D1*
X21633Y20926D1*
Y20969D1*
X21647Y20998D1*
X21676Y21026D1*
X21719Y21041D1*
X21747D1*
X21791Y21026D1*
X21819Y20998D1*
X21834Y20969D1*
Y20926D1*
X21819Y20897D1*
X21791Y20869D1*
X22426Y27512D2*
X22627Y27454D1*
X22426Y27397D1*
X22627Y27340D1*
X22426Y27282D1*
X22325Y27190D2*
X22627D1*
X22483D2*
X22440Y27147D1*
X22426Y27118D1*
Y27075D1*
X22440Y27046D1*
X22483Y27032D1*
X22627D1*
X22325Y26939D2*
X22339Y26925D1*
X22325Y26910D1*
X22311Y26925D1*
X22325Y26939D1*
X22426Y26925D2*
X22627D1*
X22325Y26818D2*
X22627D1*
X22512Y26725D2*
Y26553D1*
X22483D1*
X22454Y26567D1*
X22440Y26581D1*
X22426Y26610D1*
Y26653D1*
X22440Y26682D1*
X22469Y26711D1*
X22512Y26725D1*
X22540D1*
X22583Y26711D1*
X22612Y26682D1*
X22627Y26653D1*
Y26610D1*
X22612Y26581D1*
X22583Y26553D1*
X22426Y26154D2*
X22627Y26068D1*
X22684Y26097D1*
X22713Y26126D1*
X22727Y26154D1*
Y26169D1*
X22426Y25982D2*
X22627Y26068D1*
X22426Y25818D2*
X22440Y25846D1*
X22469Y25875D1*
X22512Y25889D1*
X22540D1*
X22583Y25875D1*
X22612Y25846D1*
X22627Y25818D1*
Y25775D1*
X22612Y25746D1*
X22583Y25717D1*
X22540Y25703D1*
X22512D1*
X22469Y25717D1*
X22440Y25746D1*
X22426Y25775D1*
Y25818D1*
Y25610D2*
X22569D1*
X22612Y25596D1*
X22627Y25567D1*
Y25524D1*
X22612Y25495D1*
X22569Y25452D1*
X22426D2*
X22627D1*
X22426Y24896D2*
X22627D1*
X22469D2*
X22440Y24924D1*
X22426Y24953D1*
Y24996D1*
X22440Y25025D1*
X22469Y25053D1*
X22512Y25068D1*
X22540D1*
X22583Y25053D1*
X22612Y25025D1*
X22627Y24996D1*
Y24953D1*
X22612Y24924D1*
X22583Y24896D1*
X22426Y24803D2*
X22627D1*
X22512D2*
X22469Y24789D1*
X22440Y24760D1*
X22426Y24731D1*
Y24688D1*
X22512Y24595D2*
Y24423D1*
X22483D1*
X22454Y24438D1*
X22440Y24452D1*
X22426Y24481D1*
Y24524D1*
X22440Y24552D1*
X22469Y24581D1*
X22512Y24595D1*
X22540D1*
X22583Y24581D1*
X22612Y24552D1*
X22627Y24524D1*
Y24481D1*
X22612Y24452D1*
X22583Y24423D1*
X22325Y24039D2*
X22627D1*
X22483D2*
X22440Y23996D1*
X22426Y23967D1*
Y23924D1*
X22440Y23896D1*
X22483Y23881D1*
X22627D1*
X22512Y23789D2*
Y23617D1*
X22483D1*
X22454Y23631D1*
X22440Y23645D1*
X22426Y23674D1*
Y23717D1*
X22440Y23746D1*
X22469Y23774D1*
X22512Y23789D1*
X22540D1*
X22583Y23774D1*
X22612Y23746D1*
X22627Y23717D1*
Y23674D1*
X22612Y23645D1*
X22583Y23617D1*
X22426Y23524D2*
X22627D1*
X22512D2*
X22469Y23509D1*
X22440Y23481D1*
X22426Y23452D1*
Y23409D1*
X22512Y23316D2*
Y23144D1*
X22483D1*
X22454Y23158D1*
X22440Y23173D1*
X22426Y23201D1*
Y23245D1*
X22440Y23273D1*
X22469Y23302D1*
X22512Y23316D1*
X22540D1*
X22583Y23302D1*
X22612Y23273D1*
X22627Y23245D1*
Y23201D1*
X22612Y23173D1*
X22583Y23144D1*
X22247Y23051D2*
X22275Y23023D1*
X22318Y22994D1*
X22376Y22965D1*
X22448Y22951D1*
X22505D1*
X22577Y22965D1*
X22634Y22994D1*
X22677Y23023D1*
X22706Y23051D1*
M02*
